<mxfile host="app.diagrams.net" agent="Mozilla/5.0 (Windows NT 10.0; Win64; x64) AppleWebKit/537.36 (KHTML, like Gecko) Chrome/127.0.0.0 Safari/537.36" version="24.7.7">
  <diagram name="PÃ¡gina-1" id="96zsLqYwL1akKU3sU-jD">
    <mxGraphModel dx="1216" dy="534" grid="1" gridSize="10" guides="1" tooltips="1" connect="1" arrows="1" fold="1" page="1" pageScale="1" pageWidth="827" pageHeight="1169" math="0" shadow="0">
      <root>
        <mxCell id="0" />
        <mxCell id="1" parent="0" />
        <mxCell id="ztNJ0AJeoRaNc8H2oBHc-1" value="" style="shape=image;verticalLabelPosition=bottom;labelBackgroundColor=default;verticalAlign=top;aspect=fixed;imageAspect=0;image=data:image/png,iVBORw0KGgoAAAANSUhEUgAAA9QAAANMCAYAAAC94eWqAAAABGdBTUEAALGPC/xhBQAAAAFzUkdCAK7OHOkAAAAgY0hSTQAAeiYAAICEAAD6AAAAgOgAAHUwAADqYAAAOpgAABdwnLpRPAAAAAZiS0dEAP8A/wD/oL2nkwAAAAlwSFlzAAAASAAAAEgARslrPgAAgABJREFUeNrs3Wd4FGX/9vFzNgmhh95776Ag0gRpAkoTQUAEK6B4K5ZbxYK9KyKCiCAqTar0JtKbIKD03kFqQk+AtOt54V8fvSV9k2t29/s5Dg8RQ/bcZTMz516/mXGMMQIAAPBlly5dMnFxcZIkY4yMMfJ4PP/4Go/Ho7CwMMd2VgCA/wi2HQAAAASeq1evmlOnTunkyZM6c+aMzp49q0uXLuny5cu6dOnSX/+cP3/+H/999erVP/+8rl27lpqHNpKUK1cuBQUFKSwsTCEhIcqePbty5MihsLAw5cqVS7ly5frr13ny5FH+/PlVoEABFSxYUPnz51fmzJkp5gAAOaxQAwAAbzpx4oQ5ePCgDh06pKNHj+rMmTM6efKkTp06pTNnzujEiRO6fPmy7ZhpkiNHDhUpUkSFCxdW8eLFVaxYMRUtWlQlSpRQ0aJFVbp0aeXOnZvSDQB+jkINAABS5Pr162bv3r06dOiQDh48qD/L85+/TuXKsd/JnTu3ypYtqzJlyqhs2bIqW7asypUrp6pVqypfvnyUbQDwAxRqAABwQzExMWbfvn3asWOHtm/f/te/Dxw4oNjYWNvxfFrevHlVpUoVVa5cWZUrV1bVqlVVs2ZNFShQgKINAD6EQg0AAHThwgXzyy+/aNOmTdq6dat27typ3bt3Kzo62na0gFK4cGHVqlVLNWvW1E033aRatWqpfPnychyHog0ALkShBgAgwMTExJi9e/dqzZo1Wr16tTZt2qTdu3crPj7edjTcQI4cOVSjRg3Vrl1btWvX1m233abSpUtTsAHABSjUAAD4uePHj5tly5Zp3bp12rBhgzZv3qyYmBjbsZAGxYoVU8OGDdWoUSM1btxY1apVk8fjoWQDQAajUAMA4GdOnDhhli1bpuXLl2v58uXav3+/7UhIZ7ly5fqrYDdt2lR16tRRUFAQBRsA0hmFGgAAH3f69GmzcuVKrV69WmvWrNGvv/4q9u+BLXv27KpXr55atGihFi1a6Oabb+Y8bABIBxRqAAB8TFxcnFm/fr3mzZunefPmacuWLbYjweWKFCmi1q1bq02bNmrZsqXCwsIo1wDgBRRqAAB8wPnz582PP/6oefPmaeHChQoPD7cdCT4qJCREDRs21J133qk777xTVatWpVwDQCpRqAEAcKndu3eb2bNna968eVq7di33fka6KFu2rDp27Ki7775b9evX5+JmAJACFGoAAFxk7969ZsqUKZoyZYq2bdtmOw4CTMGCBdWhQwd17NhRzZs3V6ZMmSjXAJAICjUAAJYdOXLEzJw5U1OnTtWaNWtsxwEk/XHl8Hbt2qlLly5q3bq1QkJCKNcA8D8o1AAAWHDw4MG/VqJ/++0323GARBUsWFBdunRR165d1bBhQ64YDgD/h0INAEAGuXbtmpkzZ45GjhypJUuWcGsr+KTixYvrvvvu06OPPqpy5cpRrAEENAo1AADpbNOmTWbkyJGaOHGiLl++bDsO4DW1a9dWz549df/99ytv3ryUawABh0INAEA6OHHihBk7dqy+++477dmzx3YcIF1lzZpV9957r/r06aP69etTrAEEDAo1AABeEh8fbxYuXKjhw4dr4cKFiouLsx0JyHDVq1dXnz59dP/99ytXrlyUawB+jUINAEAaXbx40Xz77bf64osvtH//fttxAFfImjWrunbtqieeeEK1a9emWAPwSxRqAABSad++fWb06NH66quvdOHCBdtxANeqXbu2nnrqKXXv3p3bbwHwKxRqAABSID4+3syZM0fDhg3jSt1AChUpUkSPP/64+vTpowIFClCsAfg8CjUAAMlw9epV880332jQoEE6dOiQ7TiAT8ucObN69eql5557ThUqVKBYA/BZFGoAABJx5coVM3r0aH300Uc6ceKE7TiAX/F4PLrzzjvVv39/tWjRgmINwOdQqAEAuIGzZ8+aIUOG6IsvvuD8aCADNGjQQAMGDFDbtm3lOA7lGoBPoFADAPA3p06dMp999pmGDh2qqKgo23GAgFO9enX997//VY8ePRQUFESxBuBqFGoAACQdPnzYvPPOOxo3bpyio6NtxwECXpUqVfTyyy+rW7duFGsArkWhBgAEtFOnTpl3331XI0eOpEgDLlS+fHm9/vrr6t69uzweD8UagKtQqAEAAen8+fNmyJAhGjx4sC5dumQ7DoAkVK5cWW+++aY6d+7MOdYAXINCDQAIKJGRkWbYsGH68MMPdf78edtxAKRQ9erVNXDgQHXp0oVSDcA6CjUAICBcv37djBgxQu+9957OnDljOw6ANGrcuLE+/vhj1a1bl2INwBoKNQDA702bNs08//zzOnz4sO0oALzIcRzde++9evfdd1W2bFmKNYAMR6EGAPitzZs3m6efflorVqywHQVAOgoJCdFDDz2kt99+WwUKFKBYA8gwHtsBAADwtjNnzpi+ffuaOnXqUKaBABATE6ORI0eqYsWKGjx4sImJiWHFCECGYIUaAOA3YmJizPDhw/X666/r4sWLtuMAsKRChQr69NNPddddd7FaDSBdUagBAH5h8eLF5umnn9aOHTtsRwHgEi1atNCQIUNUpUoVijWAdMHINwDApx07dsx06NDBtGzZkjIN4B8WL16sm266SS+99JKJiopiFQmA17FCDQDwSfHx8ebrr7/W888/r0uXLtmOA8DlihYtqsGDB3P/agBeRaEGAPicrVu3mj59+mj9+vW2owDwMW3bttXQoUNVqlQpijWANKNQAwB8RlRUlHnjjTc0ePBgxcbG2o4DL8qcObMKFiyookWLqkCBAsqXL5/CwsKUM2fOf/w7LCxMuXLlUlhYmDyeP85cy5o1q0JDQyX9cV/iXLly/VWULly4YIwxiouL+2uS4fr164qKipIkRUZGKjo6WhcuXFB4eLjOnTuniIiIf/z777/mfecfsmXLptdff13PPPOMgoODKdYAUo1CDQDwCT/++KN5/PHHdejQIdtRkELBwcEqUaKEypYtq7Jly6p06dIqUqSIChcurMKFC6tQoULKkyePT5SaiIgIc/ToUR09elSHDx/W4cOHdeTIER09elRHjhxReHi47YhIgZtvvlmjR49WrVq1fOL9B8B9KNQAAFc7f/68eeqppzR+/HjbUZCEIkWKqHr16qpSpcpf5bls2bIqVaqUQkJCAqKwREZGmj9L9t69e7Vjxw5t27ZNO3fu1OXLl23Hww2EhITo+eef18CBA5U5c+aAeJ8C8B4KNQDAtRYvXmweeughHT9+3HYU/E2mTJlUrlw51a5dW1WrVlWVKlVUt25dFSxYkDKSiBMnTpidO3dqx44d+vPfv/76q65evWo7GiSVLVtWo0aNUtOmTXkfA0g2CjUAwHWioqLMCy+8oOHDh4v9lF3BwcGqUaOG6tWrp1tvvVW33nqrKlSoIMdxKB1eEBsba/bs2aP169dr7dq1WrdunXbt2qX4+Hjb0QKSx+NR//799e677ypLliy8xwEkiUINAHCV9evXm169emnv3r22owSkwoULq0GDBn8V6Nq1aytr1qwUiwx08eJF8/PPP2vdunV//XPx4kXbsQJKpUqVNGbMGNWtW5f3PoBEUagBAK4QExNj3nrrLX3wwQdcSTkD5c2bV7fffruaNm2qZs2aqXLlyhQIl4mPjzc7d+7UunXrtGzZMv300086e/as7Vh+Lzg4WAMGDNBrr70WMNcAAJByFGoAgHU7duwwvXr10q+//mo7it/Lnj27GjdurGbNmqlZs2aqWbOmPB4PZcGHxMfHm99++02LFi3SokWLtHbtWkVHR9uO5bdq1aql8ePHq2rVqvycAPgXCjUAwKqxY8eaxx9//K/7AsP7SpYsqVatWqlt27a64447FBoaSjHwI1FRUWbt2rVavHixFi9erE2bNtmO5HcyZ86sDz74QE899RTXDwDwDxRqAIAVFy9eNL1799bUqVNtR/E7Ho9HdevWVbt27dS2bVvVqFGDAhBADh8+bObNm6dp06Zp1apViouLsx3Jb7Rr106jR49W/vz5+ZkCIIlCDQCwYMOGDaZbt246ePCg7Sh+IygoSM2aNVPXrl3Vrl07FShQgAN+6MyZM2bGjBmaNm2ali9fzvUJvKBw4cIaM2aMWrZsyc8YAAo1ACDjGGPM4MGD9dJLL3HOpxd4PB41atRIXbt2VefOnSnRSFR4eLiZOXOmfvjhBy1ZskQxMTG2I/ksx3H0wgsv6J133lFwcDA/d0AAo1ADADJERESEefDBBzV37lzbUXya4ziqW7euunXrpi5duqho0aIczCPFzp8/b2bNmqXJkydr0aJF3Pc6lRo1aqRJkybxcwgEMAo1ACDd/frrr+aee+7R4cOHbUfxWUWLFtUDDzyghx56SOXKlePgHV5z7Ngx89133+m7777jNIxUyJ8/v8aNG6dWrVrxcwkEIAo1ACBdjR8/3vTt25ereKdCUFCQmjZtqj59+ujuu+9mtBTpbtOmTWbkyJGaMGGCIiMjbcfxGY7j6Mknn9SgQYP4OQUCDIUaAJAuoqOjzdNPP60vv/zSdhSfU7lyZT3yyCPq2bMn50XDigsXLpiJEyfqm2++0caNG23H8RnNmzfXpEmTlC9fPn5ugQBBoQYAeN3vv/9uunTpop9//tl2FJ8RFBSkjh076sknn1STJk04GIdrbN261Xz11VcaM2YMq9bJULJkSU2fPl0333wzP8dAAKBQAwC8atWqVaZLly46ffq07Sg+IU+ePOrdu7f69eunEiVKcAAO1zp//rwZOXKkhg0bpuPHj9uO42pZsmTRiBEj1KtXL36mAT9HoQYAeM0333xjHn/8cW6JlQwVK1bU448/rkcffVTZsmXjoBs+Iz4+3sybN08ffPCB1q5dazuOq/Xp00dDhw5VpkyZ+BkH/BSFGgCQZnFxceaFF17Qp59+ajuK67Vq1UovvPCCmjVrxgE2fN7q1avNZ599ppkzZyouLs52HFe6/fbbNW3aNOXNm5efecAPUagBAGly+fJl0717d82bN892FNfyeDzq2LGjXn75ZdWuXZuDavidQ4cOmaFDh2rkyJGcZ30DZcuW1ezZs1WlShV+/gE/Q6EGAKTa8ePHTfv27fXbb7/ZjuJKHo9H99xzj9544w0OpBEQwsPDzbBhwzR48GBdunTJdhxXyZEjhyZMmKB27dqxLQD8CIUaAJAqq1evNp06ddLZs2dtR3GdzJkz66GHHtLzzz+v0qVLc/CMgHPmzBnz8ccf68svv2TF+m+CgoL0ySef6Omnn2a7APgJCjUAIMWmTp1qevbsqevXr9uO4iohISF6+OGHNXDgQBUtWpQDZgS8M2fOmI8++khffvmloqKibMdxjccee0zDhg1TUFAQ2wnAx1GoAQAp8vnnn5tnnnlG8fHxtqO4xp+j3e+++67Kly/PATLwP8LDw80nn3yioUOHUqz/zx133KFp06YpR44cbDMAH0ahBgAkizHGPP/88xo0aJDtKK7Svn17vfPOO6pevToHxUASTp06Zd577z2NGDFCMTExtuNYV6dOHc2ZM0eFChVi+wH4KAo1ACBJ169fNw8++KAmTZpkO4prNGvWTO+++67q1avHgTCQQnv27DHPP/+85syZYzuKdaVLl9b8+fNVqVIltiWAD6JQAwASdfHiRXP33Xdr2bJltqO4QoUKFfTJJ59wpV7AC5YsWWKee+45bdmyxXYUq/LkyaPZs2erYcOGbFcAH+OxHQAA4F6nT582jRs3pkxLCgsL0yeffKJt27ZRpgEvad68ubNp0yaNGjVKhQoVsh3HmnPnzumOO+7Q/PnzWekCfAwr1ACAGzp69Khp2bKl9u7dazuKVR6PRz169NDHH3+sggULUqSBdBIZGWk+/vhjffTRR7p69artOFYEBQVp5MiRevjhh9nWAD6CQg0A+Jc9e/aYli1b6tixY7ajWNW0aVMNHjxYNWvW5OAWyCBHjhwxL774oiZPnmw7ihWO42jw4MHq378/2x3AB1CoAQD/sGXLFtOqVSudPn3adhRrChcurMGDB6tr164c0AKWLFy40PTr10+HDh2yHcWKV155Re+88w7bIMDlKNQAgL9s2LDBtGnTRhEREbajWOE4ju6//34NHjxYefPm5UAWsOzq1avmww8/1HvvvReQt9l6/PHH9cUXX8hxHLZHgEtRqAEAkv642m6HDh0UGRlpO4oVNWvW1IgRI7gNFuBCv/32m+ndu7c2bdpkO0qG69u3r4YPHy6Px8O2CXAhrvINANDKlSsDtkxnzZpVr7/+un755RfKNOBSN910k/PLL7/oq6++Uo4cOWzHyVBfffWVevbsqdjYWFbBABdihRoAAtySJUtMu3btAvKqum3atNHw4cNVqlQpijTgI44cOWL69eun+fPn246Sobp166axY8cqJCSE7RXgIqxQA0AAC9QynSNHDo0aNUrz5s2jTAM+pmTJks68efOc77//Xrlz57YdJ8NMmjRJ3bt3Z6UacBlWqAEgQK1cudLceeedATfm3bBhQ3333XcqV64cRRrwcadOnTIPP/ywFixYYDtKhuncubMmTpyo4OBgtmGAC7BCDQABaOXKleauu+4KqDKdJUsWffDBB1q5ciVlGvAThQoVcubNm6fPPvtMoaGhtuNkiGnTpqlHjx6Ki4tjVQxwAVaoASDArFy50rRp00ZRUVG2o2SY+vXr67vvvlOFChUo0oCf2rp1q+nRo4e2b99uO0qGePjhhzVq1Ciu/g1Yxgo1AASQjRs3mnbt2gVMmQ4ODta7776rVatWUaYBP1ejRg1nw4YNevrppxUIt23+5ptv9MQTT8iwOgZYxQo1AASIvXv3msaNG+v06dO2o2SI4sWL6/vvv1ejRo38/8gawD8sWbLEPPjggzp+/LjtKOnuqaee0pAhQ9jOAZawQg0AAeDgwYOmadOmAVOmO3bsqM2bN1OmgQDVvHlzZ8uWLerYsaPtKOnu888/1/vvv88KGWAJhRoA/NyJEydMy5YtdeLECdtR0l1oaKg+++wzTZ8+XXny5KFMAwEsT548zvTp0/XZZ58pJCTEdpx09fLLL2vIkCGUasACRr4BwI+Fh4eb22+/XTt27LAdJd2VKlVKkyZN0q233kqRBvAPK1euNF27dtWpU6dsR0k3Ho9HEyZMULdu3dgGAhmIQg0AfioqKso0a9ZM69evtx0l3XXp0kWjR49Wjhw5OJAEcEPHjx83nTt39uttYqZMmTR79my1atWKbSGQQRj5BgA/FBcXZ+6//36/PnCUJMdx9OKLL2ry5MmUaQCJKlasmLN69Wq9+OKLtqOkm+joaHXq1Enr1q1jxQzIIKxQA4AfevLJJ82wYcNsx0hXOXPm1Lhx49S+fXuKNIAUmTBhgunTp4/f3kIwf/78Wrt2rcqVK8f2EUhnFGoA8DPvv/++efnll23HSFcVK1bUzJkzValSJQ4WAaTKli1bzD333KMDBw7YjpIuypUrpzVr1qhAgQJsJ4F0RKEGAD8yYcIE07NnT/nztv2ee+7Rd999p+zZs3OQCCBNzp8/b+655x4tW7bMdpR00aBBAy1evFhZsmRhewmkE86hBgA/sXTpUvPwww/7bZl2HEdvv/22pk6dSpkG4BW5c+d2Fi5cqF69etmOki7Wrl2r+++/X/Hx8f65YwBcgEINAH5gz549pnPnzoqOjrYdJV2EhoZq3LhxevXVVx3HcSjTALwmU6ZMzpgxY5zPPvtM/rh5mT59ul599VXbMQC/xcg3APi48+fPm3r16mnv3r22o6SLPHnyaMaMGWrcuLH/HekCcJUpU6aYBx54QNeuXbMdxetGjhyp3r17sx0FvIxCDQA+LDY21rRu3VpLliyxHSVdlC1bVvPmzVPFihU5CASQIdauXWs6dOig8PBw21G8KiQkRD/++KOaNm3K9hTwIka+AcCH9e/f32/LdL169fTzzz9TpgFkqAYNGjg///yzKlSoYDuKV8XExKhLly7av38/q2mAF1GoAcBHDR8+3AwfPtx2jHTRtWtXLVu2TPnz56dMA8hw5cqVc1atWqV69erZjuJVERER6tChgy5fvkypBryEQg0APmjJkiWmf//+tmOki//85z/6/vvvlTlzZso0AGsKFCjgLF26VHfddZftKF61c+dO9erVS4bzPgGvoFADgI85dOiQuffeexUbG2s7itcNHDhQQ4cOdTweD2UagHVZsmRxpk+frs6dO9uO4lUzZ87U22+/bTsG4Be4KBkA+JBr166ZRo0aadOmTbajeJXjOProo4/03//+lyINwHXi4uJM79699e2339qO4jWO42jq1Km655572O4CacAKNQD4kP/85z9+V6aDgoI0atQoyjQA1woKCnJGjx6tp556ynYUrzHG6KGHHtLOnTtZXQPSgBVqAPARX3/9tendu7ftGF4VGhqqiRMn6u6776ZMA3A9Y4x5/vnnNWjQINtRvKZy5cr65ZdflD17drbDQCpQqAHAB2zatMk0atRI165dsx3Fa7JmzapZs2apRYsWHMQB8ClvvPGGefPNN23H8Jr77rtPEyZMYFsMpAKFGgBc7ty5c6ZOnTo6dOiQ7ShekyVLFs2ZM0fNmzfnAA6ATxo2bJh56qmn5C/H0l9++aUee+wxtslAClGoAcDFjDHmrrvu0oIFC2xH8RrKNAB/MXz4cPOf//zHL0p1aGio1qxZo9q1a7NtBlKAi5IBgIsNGjTI78r07NmzKdMA/EK/fv2cIUOG2I7hFdevX1enTp0UERHh+58OABmIFWoAcKmNGzeahg0bKjo62nYUr8iSJYtmzZqlli1bUqYB+JV33nnHDBw40HYMr7j77rs1ffp0ttNAMrFCDQAudOXKFdOjRw+/KdOhoaGaOnUqZRqAX3r11VedAQMG2I7hFTNmzNCXX37JihuQTKxQA4AL9ejRw3z//fe2Y3hFpkyZNGvWLLVu3ZoyDcBvGWPMf/7zHw0fPtx2lDTLkiWLNmzYoKpVq7LdBpLACjUAuMy3337rN2Xa4/FozJgxlGkAfs9xHGfYsGF65JFHbEdJs6tXr6pr1666evUqK29AEijUAOAie/bsMU899ZTtGF4zbNgwdevWjTINICA4juN89dVXuueee2xHSbMdO3bov//9r+0YgOsx8g0ALhEbG2saNmyoX375xXYUr3jrrbc0cOBAyjSAgBMdHW06duzo83dpcBxHs2bNUrt27diWAwlghRoAXOKDDz7wmzLdv39/yjSAgJUpUybnhx9+0G233WY7SpoYY9S7d2+dPXuWFTggAaxQA4ALbN682dx6661+cVXvHj16aOzYsfJ4PBRqAAHt3LlzpkGDBtqzZ4/tKGnSoUMHzZw5k206cAMUagCw7Pr16+aWW27Rtm3bbEdJs1atWmnOnDkKCQnhwAsAJO3fv9/Ur19f4eHhtqOkydixY9WzZ0+27cD/YOQbACx77bXX/KJMV6lSRZMmTaJMA8DflCtXzpk3b56yZs1qO0qaPPnkkzp69CgrccD/YIUaACxau3atady4seLi4mxHSZPChQtr3bp1KlGiBGUaAG5g0qRJ5r777pMvH3u3aNFCixYtkuM4bOuB/8MKNQBYcvXqVfPggw/6fJnOli2bZs+eTZkGgER069bNefvtt23HSJPFixdr9OjRtmMArkKhBgBL3nrrLe3bt892jDTxeDwaN26c6tSpQ5kGgCS88sorTt++fW3HSJPnnntOx48f991ldsDLGPkGAAu2bt1q6tSpo5iYGNtR0uTTTz/VM888Q5kGgGSKiYkxd955pxYvXmw7Sqrdddddmjt3Ltt+QBRqAMhwcXFxpl69etq4caPtKGnSt29fjRgxggMqAEihCxcumAYNGmjXrl22o6TaxIkT1a1bN/YBCHgUagDIYJ9++ql57rnnbMdIkwYNGmjZsmXKlCkTB1MAkAp79uwxt9xyiy5fvmw7Sqrkz59fO3fuVL58+dgPIKBRqIEAERERYc6dO6dz584pIiJCkZGRioyMVHR0tCTp0qVLN7w4VlBQkHLmzCnHcZQrVy6FhYUpR44cypkzp3Lnzq38+fNzm6QUOHTokKlevboiIyNtR0m1woULa+PGjSpSpAh/7wCQBj/88IPp0qWLz175+4EHHtB3333HvgABjUIN+LjY2Fhz7NgxHTlyREePHtXhw4f/+vXx48d19uxZnTt3Ll131vnz51eBAgVUoEABFS1aVKVLl/7HP8WKFVNQUBA7XEmtWrUyixYtsh0j1TJlyqSlS5eqYcOG/H0CgBc8//zz5pNPPrEdI1Ucx9GyZcvUpEkT9gkIWBRqwEcYY8yhQ4e0fft27dixQ9u2bdPOnTu1a9euv1aZ3So0NFSVKlVSpUqVVK1aNVWuXFk1atRQuXLlAupelpMmTTLdu3e3HSNNvvjiC/Xr1y9g/s4AIL3Fxsaali1bavny5bajpEqVKlX022+/cQoQAhaFGnCp06dPm3Xr1mn9+vX6+eeftXHjRl25csV2LK8KCwtTnTp1VKdOHd1yyy2qV6+eihYt6pc75CtXrphKlSrp999/tx0l1R588EF9++23fvn3AwA2nT592tx88806ceKE7Sip8t577+mll15i/4CARKEGXOLAgQPmp59+0sqVK7Vu3TodOnTIdiQrypYtq9tuu01NmjRR48aNVaZMGb/YQQ8YMMB8+OGHtmOkWp06dbRq1SplzpzZL/4+AMBt1qxZY5o2beqTt1PMmjWrtm/frtKlS7OPQMChUAOWnD9/3ixdulQ//fSTfvrpJx08eNB2JFcqU6aMWrdurdatW6tZs2bKli2bz+2s9+zZY2rUqOH60fyEhIWF6ddff/WbDzcAwK0+//xz079/f9sxUqVdu3aaPXs2+wkEHAo1kIEOHTpkpk+frhkzZmjdunU3vKo2EhYaGqrbbrtNHTt2VMeOHX1mPLx169bmxx9/tB0j1aZMmaIuXbr4xGsNAL7uvvvuMxMnTrQdI1UWLFig1q1bs79AQKFQA+ls165dZvr06Zo+fbp+/fVX23H8hsfj0a233qpOnTqpc+fOKlWqlCt34DNmzDCdOnWyHSPV+vbtqxEjRrjytQUAfxQZGWluvvlm7d2713aUFKtUqZK2bt3K7TQRUCjUQDo4efKkGT9+vMaMGaMdO3bYjuP3HMdRw4YN1bNnT3Xp0kW5c+d2xY786tWrpkqVKjp8+LDtKKlSvXp1rV+/XlmyZHHF6wkAgeKXX34xDRs2VGxsrO0oKTZo0CA9++yz7DcQMCjUgJdcv37dzJkzR999950WLlzIOLcloaGhatu2rR5++GG1bt1aHo/H2k79vffeM6+88ortlyRVsmXLpg0bNqhy5cocFAGABW+99ZZ5/fXXbcdIsbCwMO3Zs0cFCxZk/4GAQKEG0mjPnj1m+PDhGj9+vM6dO2c7Dv6mVKlS6t27tx5++GEVKlQoQ3fsZ86cMeXLl9elS5dsvwyp8s033+ihhx7iYAgALImNjTWNGzfWzz//bDtKij3yyCP6+uuv2YcgIFCogVSIj483Cxcu1Oeff65FixaJnyN3CwkJUceOHfXMM8+ofv36GbKDf+KJJ8zw4cNtP/VU6d69u77//nsOhADAsgMHDpibbrpJly9fth0lRYKCgvTrr7+qRo0a7Evg9yjUQApcunTJfPvtt/riiy+0b98+23GQCg0aNNBzzz2njh07pts4+O7du0316tV98ty3IkWKaNu2bcqTJw8HQQDgAt9884155JFHbMdIsdatW2vBggXsS+D3KNRAMkRERJghQ4Zo6NChunDhgu048IKyZcvq+eef10MPPaRMmTJ5dYffsWNHM2vWLNtPMcUcx9G8efPUpk0bDoAAwEU6depkZsyYYTtGii1atEgtW7ZknwK/RqEGEnH27FnzxRdf6LPPPtPFixdtx0E6KF68uJ577jn16dPHK1ezXrlypWnSpIntp5Uq3CILANwpPDzc1KhRQydPnrQdJUVq1qypX3/91eoFQoH0RqEGbuDkyZPmww8/1KhRoxQVFWU7DjJA0aJFNWDAAPXp0yfVK9bGGHPrrbdqw4YNtp9OipUuXVpbtmxRjhw5OOgBABdauHChufPOO33uui1jxoxRr1692LfAb1Gogb+5fPmy+fjjj/Xpp58qMjLSdhxYUKZMGb3zzjvq1q2bHMdJ0QHADz/8YDp37mz7KaSYx+PR0qVL1aRJEw54AMDFHn30UTN69GjbMVKkRIkS2rt3r0JDQ9nHwC95bAcA3CAmJsYMGzbMlCtXTm+//TZlOoAdPHhQ9913n+rUqaPFixcn+xPH+Ph488Ybb9iOnyr9+/enTAOAD/joo49UsGBB2zFS5OjRoxo5cqTtGEC6YYUaAW/atGnmpZde0v79+21HgQu1a9dOgwcPVtmyZRMtnBMnTjT33Xef7bgpVq5cOW3dutUr548DANKfL+5vChUqpAMHDihr1qzsa+B3WKFGwNq/f79p3bq16dKlC2UaCZozZ44qV66s/v37m8uXL9/wE8i4uDjz1ltv2Y6aKsOHD6dMA4AP6d69u9O2bVvbMVLk1KlTGjZsmO0YQLpghRoBJyoqyrz77rv65JNPFB0dbTsOfEixYsU0ePBgde7c+R8FdOzYseaBBx6wHS/FevXqpTFjxlCmAcDHHDp0yFSrVs2nLpyaN29eHTx4UDlz5mS/A7/CCjUCyuzZs03VqlX13nvvUaaRYsePH1eXLl3UsWNH8/vvvxvpj/PvfXF1Ol++fBo0aJDtGACAVChdurTz5ptv2o6RIhERERo8eLDtGIDXsUKNgHDmzBnzxBNPaNq0abajwE+EhYXp/fffV3BwsPr06WM7Top99913euCBB1glAAAfFRsba+rWravffvvNdpRky507tw4dOqSwsDD2P/AbFGr4vWnTppl+/frp7NmztqPAD3k8HsXHx9uOkSLNmjXT4sWLU3xbMACAu2zcuNHUq1dPcXFxtqMk27vvvquXX36Z/Q/8BoUafuv8+fNmwIAB3KoB+JvQ0FBt3rxZlSpV4mAGAPzAM888Yz777DPbMZItb968Onz4sLJnz85+CH6Bc6jhl2bPnm0qV65MmQb+x4ABAyjTAOBH3nzzTZ+6N3VERIRGjBhhOwbgNaxQw6/ExMSYgQMH6qOPPhLvbeCfihcvrl27dilbtmwUagDwIyNHjjR9+/a1HSPZChYsqEOHDnHbRvgFVqjhN/bv32/q16+vDz/8kDIN3MDHH39MmQYAP/TII4+oevXqtmMk2+nTpzV69GjbMQCvYIUafmH69OnmkUce0YULF2xHAVypYcOGWrVqFRciAwA/tXTpUtO8eXPbMZKtdOnS2rt3r4KDg9kvwaexQg2fFh0dbfr162fuueceyjSQgKCgIA0bNowyDQB+rFmzZs5dd91lO0ayHTp0SNOnT7cdA0gzVqjhs8LDw829996rZcuW2Y4CuFrfvn01YsQIyjQA+Lk9e/aY6tWrKyYmxnaUZKlTp442bNjA/gk+jRVq+KQtW7aYW265hTINJCFXrlx6++23bccAAGSAihUrOo899pjtGMm2ceNGrVixgtU9+DQKNXzOpEmTTIMGDXT48GHbUQDXe+WVV5Q/f34+/QeAAPH6668rd+7ctmMk28cff2w7ApAmFGr4DGOMGThwoLnvvvsUFRVlOw7gesWLF9d//vMf2zEAABkob968zsCBA23HSLb58+drz549rFLDZ1Go4RNiY2PNI488onfeeYdbYgHJ9MYbbyhz5sysTgNAgHniiSdUqlQp2zGSxRijYcOG2Y4BpBoXJYPrRUZGmq5du2revHm2owA+o2LFitq+fTu3IwGAADVq1CjTp08f2zGSJUeOHDp27JjCwsLYZ8HnsEINVzt37py54447KNNACn344YeUaQAIYA8++KBKly5tO0ayXL58WWPGjLEdA0gVCjVc68iRI6ZevXpau3at7SiAT6lfv746dOhAmQaAABYSEuK8/PLLtmMk2xdffCHD6Cx8ECPfcKUDBw6Y5s2b68iRI7ajAD5nxYoVaty4MYUaAAJcTEyMqVixog4dOmQ7SrLMnz9fbdq0Yf8Fn8IKNVxn79695vbbb6dMA6nQunVryjQAQNIfq9SvvPKK7RjJ9tVXX9mOAKQYK9RwlV27dpnmzZvr5MmTtqP4jQIFCqh06dIqVaqUChcurLx58ypv3rzKnz+/8uXLpxw5ckiSsmfPrpCQkH/82ejoaEVGRkqSzp07p4iIiH/8c+zYMR0+fFhHjhzRuXPnbD9VSFq7dq3q169PoQYASPpjlbpSpUo6ePCg7ShJCg4O1pEjR1SkSBH2Y/AZwbYDAH/atm2badGihc6cOWM7is9xHEelS5dWzZo1Vb16ddWoUUOVKlVS6dKllTVr1gzZKV26dMkcPHhQO3fu1LZt27Rt2zZt376dSYMM1Lx5c8o0AOAf/m+V2jzyyCO2oyQpNjZW3377rXxpVR1ghRqusHfvXnPbbbdRppMpZ86cql+/vho0aKBGjRrplltuUY4cOVxZpM6dO2d+/vln/fzzz1q7dq02bNigK1eu2I7ll5YvX64mTZq48n0AALDHl1apS5UqpQMHDsjj8bA/g0+gUMO6Y8eOmUaNGuno0aO2o7hWcHCwGjZsqDZt2qhVq1aqXr26goKCfHJHExsbazZs2KCFCxfqxx9/1MaNGxUXF2c7ls+77bbbtHLlSp98TwAA0t8333zjE6vUkrRw4UK1atWKfRp8AoUaVp09e9bcdttt2rNnj+0orhMWFqYOHTqoXbt2atmypcLCwvxyxxIREWEWLVqkH374QfPnz9fVq1dtR/JJixYtUsuWLf3yPQIASLvo6GhTqlQpn7hOTefOnTV16lT2afAJFGpYc/HiRdOsWTP9+uuvtqO4Rvbs2dWuXTvde++9at26tTJnzhxQO5MrV66YuXPnaurUqZo/f76uXbtmO5JPqFevnn7++eeAeq8AAFLunXfeMQMHDrQdI0mhoaE6ceKE8uTJw74NrkehhhXXr183d9xxh1auXGk7iivUr19fvXv31r333qts2bKx85B0/vx5M378eH399dfaunWr7TiuNnfuXN111128bwAAiQoPDzclSpTwiWmwL774Qv369WPfBtejUCPDGWPM/fffr++//952FKvCwsLUq1cv9e7dW9WrV2eHkYgNGzaYUaNGafz48T5xEJCRqlWrpq1bt8pxHN5DAIAk9e3b14wcOdJ2jCTdeuutWrduHfs2uB6FGhnujTfeMG+++abtGNYULlxYffr00dNPP61cuXKxo0iBs2fPmm+++UZDhw7V77//bjuOK4wePVoPP/ww7yMAQLLs2bPHVKlSRfHx8bajJGnXrl2qVKkS+zi4GoUaGWrChAmmZ8+eCsT33U033aTnn39eXbp0UXBwMDuHNLh27ZoZP368PvjgAx04cMB2HGsKFiyoI0eOKDQ0lPcTACDZ2rRpYxYuXGg7RpJeeuklvffee+zj4Goe2wEQOFavXm0eeeSRgCvT1apV0/Tp07Vp0yZ1797doUynXebMmZ1HH33U2b17t0aPHq1SpUrZjmRFv379KNMAgBR75plnbEdIlgkTJig+Pj6wDhzhc1ihRoY4evSoqV27tsLDw21HyTAVK1bU66+/rq5du8rj8VB60lF0dLT59ttv9fbbbwfMKHiWLFl05MgR5c+fn/cWACBFjDGmRo0a2r59u+0oSVq1apUaNWrEvg6uxQo10l1MTIzp3r17wJTp3Llz64MPPtDWrVvVvXt3hzKd/jJlyuT07dvX2bt3rz744ANlz57ddqR016tXL8o0ACBVHMdxnn76adsxkmXKlCm2IwCJYoUa6e7xxx83I0aMsB0j3QUHB6tv37568803lTdvXoqORUePHjUvvviiJk+e7JenGDiOo507d3KhFgBAql27ds0UK1ZMERERtqMkqnDhwjp27JiCgoLY58GVWKFGuho3blxAlOkGDRrot99+07BhwxzKtH0lSpRwJk6c6CxdulTly5e3HcfrWrduTZkGAKRJ5syZnR49etiOkaSTJ09q5cqVtmMACaJQI91s27bNPPbYY7ZjpKusWbPqgw8+0MqVK1WtWjUKjsvcfvvtztatW/X6668rU6ZMtuN4zeOPP247AgDADzz66KO2IyTL5MmTbUcAEsTIN9JFZGSkufnmm7V3717bUdLNnXfeqS+//FIlSpSgSPuArVu3mocfflibNm2yHSVNihUrpsOHDzP6BgDwijp16hi37xvz58+vkydPsu+DK7FCjXTxzDPP+G2ZzpIliz777DPNnTuXMu1DatSo4axbt06vv/66goKCbMdJtUcffZQDCgCA1zz88MO2IyTp7NmzWr16te0YwA2xQg2vmzVrlunYsaPtGOmievXqmjBhgqpXr06h8WE///yzuf/++3Xw4EHbUVIkKChIBw8e5IMcAIDXXLx40RQpUkRRUVG2oySqf//++uyzz9j/wXVYoYZXnTp1yvTu3dt2DK9zHEfPP/+8Nm7cSJn2A/Xr13c2btwoX/vgp23btpRpAIBXhYWFOb6wP5w1a5YMK4FwIQo1vMYYYx599FGdPXvWdhSvypEjh6ZMmaKPPvrIyZQpE2XGT+TOnduZPn26PvvsMwUHB9uOkyx9+/a1HQEA4Id8Yez78OHD2rx5s+0YwL9QqOE1I0aM0Lx582zH8KpKlSrpl19+UefOnSnSfshxHKd///7OggULlC9fPttxElWqVCm1atXKdgwAgB9q2rSpSpcubTtGkmbMmGE7AvAvFGp4xfHjx82AAQNsx/CqDh066JdffuF+vwGgRYsWzqZNm1SjRg3bURLUr18/eTwe3osAAK/zeDzOgw8+aDtGkmbNmmU7AvAvXJQMXtG+fXszZ84c2zG8pn///ho0aBBXUw4wly5dMvfee69+/PFH21H+IXfu3Dpy5Ihy5MjB+xEAkC4OHz5sypQpIzd3A8dxdPToURUrVoz9IVyDFWqk2dSpU/2mTAcFBWnIkCH67LPPHMp04MmZM6czd+5cue3Ces8++yxlGgCQrkqVKuXccssttmMkyhijhQsX2o4B/AOFGmly/vx589RTT9mO4RVZsmTRDz/8oKeeeoriEsCCg4OdkSNHOu+++67tKJL+OI//+eeftx0DABAAOnfubDtCkhYsWGA7AvAPFGqkyQsvvKBTp07ZjpFm2bNn17x589ShQwfKNCRJL7/8sjNs2DA5jr23RHBwsEaNGqXQ0FDelwCAdHfPPffYjpCkxYsXKyYmxr1z6Qg4FGqk2q+//mq++eYb2zHSLCwsTD/++KOaNm1KacE/PPHEE864ceOs3Vbr008/VaNGjXhfAgAyRJkyZZzatWvbjpGoS5cuae3atbZjAH+hUCNVjDHmySefVHx8vO0oaZI3b14tWbJEDRo0oLTghnr06OFMmDBBISEhGfq4TzzxhJ588knelwCADOULq9SMfcNNKNRIle+//97nPx0MCwvTwoULVbt2bUoLEnXvvfc6CxcuVFhYWIY8Xt++fTV06FDbTxsAEIC6du1qO0KSli5dajsC8Bdum4UUi4qKMpUqVdKxY8dsR0m17Nmza9GiRapfvz5lGsm2ZcsW06lTJx08eDBdvn9wcLDeeecdvfDCC3JsnrwNAAhotWrVMlu2bLEdI0FBQUE6e/ascufOzb4S1rFCjRT76KOPfLpMZ8mSRbNmzaJMI8Vq1qzpbN26Vf369fP6xcpKlSqlxYsX68UXX3Qo0wAAm9x+te+4uDitWLHCdgxAEoUaKXTy5Enz8ccf246RakFBQZo8ebKaNWtGYUGqZMuWzfniiy+cjRs3ql27dmku1tmyZdNrr72mnTt3qkmTJrwvAQDWub1QS9KSJUtsRwAkMfKNFHryySfNsGHDbMdItWHDhumJJ56gtMBrduzYYcaNG6eJEyfq6NGjyf5zlSpV0sMPP6xHH32UkTUAgOtUrVrV7Ny503aMBFWpUkU7duxg/wnrKNRItmPHjpny5cvr+vXrtqOkyrPPPqtBgwax4UW6OXTokFm7dq127typ48eP6/Tp04qLi5MkFSpUSCVLllTZsmXVrFkzlSxZkvciAMC1nn32WTN48GDbMRLkOI5OnDihQoUKsT+FVRRqJFvfvn3NyJEjbcdIlU6dOmnq1KnyeDxsdAEAAJKwcOFC06ZNG9sxEjV16lR17tyZYztYxTnUSJbDhw+b7777znaMVKlUqZK+++47yjQAAEAyNWnSRFmyZLEdI1Fr1qyxHQGgUCN53nzzTUVHR9uOkWJhYWGaPXu2cuTIQZkGAABIpixZsjiNGjWyHSNRq1evth0BoFAjaYcPHzbjx4+3HSPFHMfRN998o/Lly1OmAQAAUqhly5a2IyRq8+bNunz5MuevwioKNZI0ZMgQxcbG2o6RYi+99JI6depEmQYAAEiFVq1a2Y6QqNjYWK1fv952DAQ4CjUSdf78efP111/bjpFit956q958803bMQAAAHxW9erVVbhwYdsxEsV51LCNQo1EDR8+XFeuXLEdI0WyZcumsWPHKjg4mNVpAACAVHIcx3H72Dcr1LCNQo0EXb9+3XzxxRe2Y6TY0KFDVaFCBco0AABAGt1xxx22IyTql19+keE+wLCIQo0EjR8/XidPnrQdI0XuvvtuPfTQQ5RpAAAAL2jZsqUcx72HVhERETp8+LDtGAhgFGokaPjw4bYjpEhYWJiGDh1qOwYAAIDfKFCggFOhQgXbMRL1yy+/2I6AAEahxg1t2LDB/Prrr7ZjpMigQYNUtGhR936ECgAA4IPq169vO0KiNmzYYDsCAhiFGjc0atQo2xFSpFmzZnr44YdtxwAAAPA7DRo0sB0hURRq2ORwDj/+1+XLl02RIkV85ureoaGh2rZtm8qXL8/qNAAAgJdt377dVK9e3XaMBOXMmVMXLlyQ4+aTveG3WKHGv0yYMMFnyrQkPf3005RpAACAdFKlShXlzp3bdowEXbp0iQuTwRoKNf7Fl8a9CxYsqJdfftl2DAAAAL/l8XicW265xXaMRG3ZssV2BAQoCjX+Yffu3T51MbL33ntPOXPmZHUaAAAgHbn9wmQUathCocY/fP/997YjJFutWrX04IMP2o4BAADg99xeqLdu3Wo7AgIUhRr/MGnSJNsRku2tt96Sx+NhdRoAACCd1a9fXx6Pe6sDK9Swxb0/FchwGzduNPv27bMdI1nq1Kmjtm3b2o4BAAAQEHLmzOlUqVLFdowEHTp0SFFRUdy+CBmOQo2/+NLq9LvvvsutEQAAADJQnTp1bEdIUHx8vPbs2WM7BgIQhRqSJGOMmTx5su0YydKoUSPdcccdlGkAAIAMVK1aNdsRErV7927bERCAKNSQJG3atEnHjx+3HSNZBgwYYDsCAABAwKlatartCImiUMMGCjUkSfPmzbMdIVkqVqyoNm3a2I4BAAAQcFihBv6NQg1JvlOo//vf/3JlbwAAAAuKFSvm5MmTx3aMBO3atct2BAQgxxguhhfoTp8+bYoUKaL4+HjbURJVsGBBHT58WJkzZ6ZQAwAAWNC4cWOzatUq2zFuKHPmzIqMjGTxBRmKFWpowYIFri/TktS7d2/KNAAAgEVuHvu+du2aTpw4YTsGAgyFGpo/f77tCEnyeDx65JFHbMcAAAAIaG4u1JJ08OBB2xEQYCjUAc4YY5YuXWo7RpJatmypUqVKsToNAABgkduv9E2hRkajUAe47du3KyIiwnaMJPXu3dt2BAAAgIBXvXp12xESdejQIdsREGAo1AFu5cqVtiMkKX/+/Grfvr3tGAAAAAEvT548TuHChW3HSBAr1MhoFOoA5wuF+p577lFISAjj3gAAAC5QpkwZ2xESRKFGRqNQB7jVq1fbjpCkbt262Y4AAACA/1OyZEnbERJ0/Phx2xEQYCjUAWzPnj3G7bcWKFSokBo1amQ7BgAAAP6Pmwv1iRMnFBcXZ2znQOCgUAewtWvX2o6QpC5duigoKIhxbwAAAJcoVaqU7QgJio2N1enTp23HQAChUAewX3/91XaEJHXs2NF2BAAAAPyNm1eoJen333+3HQEBhEIdwH777TfbERKVPXt2NWzY0HYMAAAA/I3bCzXnUSMjUagDVHx8vNm6davtGIlq0aKFQkNDGfcGAABwkZIlS8px3HuIxgo1MhKFOkDt379fly9fth0jUW3atLEdAQAAAP8jS5YsToECBWzHSNCpU6dsR0AAoVAHqM2bN9uOkKTWrVvbjgAAAIAbcPOFyc6cOWM7AgIIhTpAub1QlyxZUiVKlHDvLBEAAEAAc/N51GfPnrUdAQGEQh2gdu/ebTtCorgYGQAAgHsVL17cdoQEUaiRkSjUAWr//v22IySqUaNGtiMAAAAgAXnz5rUdIUGMfCMjUagDkDHGHDx40HaMRLFCDQAA4F5uLtSsUCMjUagD0IkTJxQZGWk7RoKyZcumqlWr2o4BAACABOTJk8d2hARdvHhRsbGxxnYOBAYKdQDat2+f7QiJql69uoKCgrggGQAAgEu5eYXaGKOLFy/ajoEAQaEOQG4/f7pmzZq2IwAAACARbi7UkijUyDAU6gB0+PBh2xESVa1aNdsRAAAAkAi3F+oLFy7YjoAAQaEOQKdOnbIdIVGsUAMAALib2ws1K9TIKBTqAHT69GnbERJVuXJl2xEAAACQiMyZMztZs2a1HSNBrFAjo1CoA5CbV6izZ8+ufPnycUEyAAAAl3Pzlb4vXbpkOwICBIU6AJ08edJ2hASVLl3adgQAAAAkg5vHvt18i1j4Fwp1gDHGGDff7L5UqVK2IwAAACAZcubMaTtCgq5evWo7AgIEhTrAHD16VNHR0bZjJIhCDQAA4BsyZcpkO0KCKNTIKBTqABAfH29Wr15t+vbta6pUqWI7TqKKFi1qOwIAAACSgUINSMG2AyD9nDhxwowbN04jR47UwYMHbcdJlnz58tmOAAAAgGQIDQ21HSFBFGpkFAq1nzHGmEWLFmno0KFasGCB4uPjbUdKETdf3AIAAAD/n5tXqKOiomxHQICgUPuJK1eumHHjxunzzz/X7t27bcdJNQo1AACAb3DzCvX169dtR0CAoFD7uEOHDpkvvvhCo0eP9osb2DPyDQAA4BvcvEIdFxdnOwICBIXaR23fvt189NFHmjhxomJjY23H8ZocOXLYjgAAAIBkoFADFGqf89tvv5nBgwdrwoQJPnd+dHK4ecMMAACA/8/Nx20UamQUCrWPWLJkiXn33Xe1bNky21HSlZs3zAAAAPj/3HwOtT9NcMLdKNQut27dOvPqq69qyZIltqNkCDdvmAEAAPD/uXkhxB8nOeFOFGqX+vXXX83AgQM1f/5821EylJs3zAAAAPj/HMexHSFBrFAjo1CoXWbXrl1m4MCBmj59uowxtuNkuKCgIPdumQEAAPCXmJgY2xEA6yjULnH27FnzxhtvaOTIkXyiBgAAANejUAMUauuio6PNl19+qTfeeMMv7iMNAACAwEChBijUVs2ZM8c8/fTTOnjwoO0oAAAAQIpQqAEKtRU7duwwTzzxhFasWGE7iusYY4zj5itcAAAAQBKFGpAkj+0AgSQyMtK8+OKL5qabbqJMJ4ANMwAAgG+4du2a7QiAdaxQZ5A5c+aYJ598UkeOHLEdxbWCg4MVEhJiOwYAAACS4dKlS7YjANZRqNPZ0aNHTb9+/TRv3jzbUVwvX758YtwbAADAN1y+fNl2BMA6Rr7TiTHGjBw50lSvXp0ynUy1atWyHQEAAADJxAo1wAp1ujh06JDp3bu3lixZYjuKT7nllltsRwAAAEAysUINsELtVfHx8WbIkCGmevXqlOlUoFADAAD4DjcX6qNHj2revHlm586d5urVq8Z2HvgvxxjeX95w5MgR07NnT61atcp2FJ+UN29eHT9+XJkzZ+YcagAAAB+QPXt2ExkZaTtGshQqVEilS5dW6dKlVaZMGZUuXVpVq1ZV1apVlT17do4/kWqMfHvB1KlTTd++fXX+/HnbUXzWgw8+SJkGAADwEVevXvWZMi1Jp06d0qlTp/Tzzz//6/8VLlzY1K5dW1WrVlWVKlVUu3ZtVa5cWR6Ph2NTJIkV6jS4ePGieeKJJzRhwgTbUXyax+PRrl27VKFCBTZaAAAAPuDo0aOmZMmStmOkm+zZs+uWW25Rw4YN1aBBA9WvX1+5cuXiWBX/wgp1Kq1evdr07NlThw8fth3F5z3++OOUaQAAAB9y9uxZ2xHS1ZUrV7Rs2TItW7ZM0h8LQJUrVzZ/FuxGjRqpbNmyHL+CFeqUMsaYzz//XM8//7xiYmJsx/F5hQoV0q5du/jEDwAAwIcsXLjQtGnTxnYMq8qUKaMWLVqoRYsWuuOOOxQWFsbxbACiUKdAeHi46dmzpxYuXGg7il/weDyaOXOm2rVrx8YHAADAh4wfP9707NnTdgzXyJQpkxo0aKBWrVqpVatWqlWrlhzH4Rg3AHDbrGTasGGDueWWWyjTXjRo0CDKNAAAgA86c+aM7QiuEh0dreXLl+ull17SzTffrBIlSqh///5m8eLFJjY2lhVMP0ahToIxxgwaNMg0bNiQ86W96KWXXtLTTz9NmQYAAPBB/n4OdVodP35cn3/+uVq2bKmSJUvqySefNCtWrDDx8fGUaz/DyHciIiMjzUMPPaSpU6fajuI3QkJC9Mknn+ipp56iTAMAAPioBx54wIwdO9Z2DJ9TqFAhderUSQ888IDq1q3L8bAfoFAn4Pjx4+buu+/Wxo0bbUfxG/ny5dPkyZPVrFkzNh4AAAA+rHnz5mbp0qW2Y/i0SpUq6cEHH9SDDz6oggULcnzsoyjUN7BmzRpzzz336PTp07aj+IWQkBA99NBDevvtt1WgQAE2FgAAAD6uUqVKZs+ePbZj+IWgoCA1bdpUffr0UceOHRUSEsLxsg+hUP+PESNGmKeeeopbYnlB1qxZ1aVLF7322msqU6YMGwYAAAA/ERYWZi5dumQ7ht8pVKiQHnnkEfXr109FihTh+NkHUKj/T1xcnOnfv7+++OIL21F8WkhIiJo2baoePXqoU6dOyp49OxsCAAAAP3L58mWTM2dO2zH8WqZMmdSlSxf1799ft9xyC8fTLkah1h8XH+vevbvmzJljO4pPyps3r5o1a6a2bduqffv2ypUrFz/0AAAAfmr37t2mcuXKtmMEjNq1a+upp55S9+7dGQd3oYAv1KdOnTLt2rXj4mMpVLZsWd17771q166dbr31Vnk8Hn64AQAAAsDSpUtN8+bNbccIOP93b2v17dtX2bJl49jbJQK6UO/fv9+0adNG+/fvtx3FJxQrVkydOnVSly5d1LBhQzmOww8yAABAgJkyZYrp2rWr7RgBK1++fHriiSf0zDPPKCwsjONxyzy2A9iycuVKU7duXcp0EsLCwvTYY49p1apVOnLkiIYMGeI0atTIoUwDAAAEJi5GZld4eLjefPNNlS1bVu+++665dOlS4K6QukBAFuq5c+ea1q1b6/z587ajuJLjOLrttts0ZswYnThxQl9++aXTqFEjh7FuAAAAsK7iDhEREXr11VdVqlQpvfnmm+bChQsUawsCrlBPnDjRdOrUSVevXrUdxXXy5cunF154Qbt27dLKlSudXr16OVmzZmWLCQAAgL/kyJHDdgT8zfnz5/XGG2+oXLlyGjx4sImOjqZYZ6CAKtRfffWVuf/++7nH9P+oUKGCPvvsMx05ckQffvihU7FiRUo0AAAAbqhIkSK2I+AGIiIi9Oyzz6p8+fIaOXKkiY+Pp1hngIC5KNmHH35oXnrpJQXK802K4zhq3ry5nnrqKbVt25YLjAEAACBZIiIiTL58+WzHQBLq1Kmjjz76SE2bNuU4Px0FRKEeOHCgeeedd2zHcIXg4GDdd999GjBggCpXrswPFwAAAFKsbNmy5uDBg7ZjIBnatWunTz75RBUqVODYPx34/cj3a6+9RpmWlClTJvXs2VM7duzQmDFjHMo0AAAAUqtFixa2IyCZ5syZo2rVqql///7mypUr/r+amsH8ulC/9tpr5u2337Ydw6rMmTPrySef1IEDBzR27FiHT6YAAACQVvfcc4/tCEiBmJgYff7556pRo4bmzZtHqfYivx35DvQyHRQUpJ49e+rNN99UiRIlKNEAAADwmvj4eFOqVCkdO3bMdhSkQseOHTVkyBB6ghf45Qr166+/HtBlul27dtq8ebO+/fZbhx8SAAAAeJvH43GeeeYZ2zGQSjNnzlSVKlX00UcfmdjYWP9cYc0gfrdC/f7775uXX37Zdgwr6tWrp48//liNGjWiRAMAACBdRUVFmXLlyunkyZO2oyAN6tSpozFjxqhKlSp0iFTwqxXqESNGBGSZLlSokL766iutWbOGMg0AAIAMkTVrVmfQoEG2YyCNNm7cqFq1aumNN94wcXFx/rXamgH8ZoV60qRJpkePHoqPj7cdJcOEhIToqaee0muvvaacOXNSpAEAAJDh2rdvb+bMmWM7Brygfv36+vbbb1WxYkW6RTL5RaFesGCB6dChg2JiYmxHyTAtWrTQ0KFDValSJd7sAAAAsObcuXOmTp06OnTokO0o8IIsWbLo3XffVf/+/eXxeOgaSfD5Qr169WrTqlUrRUVF2Y6SIfLkyaNPP/1UDzzwAG9uAAAAuMKOHTvMHXfcoRMnTtiOAi9p1qyZxo8fr8KFC9M7EuHThXrXrl2mYcOGOn/+vO0oGaJLly4aOnSoChYsyJsaAAAArnL48GHTpk0b7d6923YUeEmBAgU0duxYtWrViv6RAJ+9KFl4eLhp3759QJTpQoUKaerUqZoyZYpDmQYAAIAblSpVytmwYYO6d+9uOwq85MyZM2rTpo369+9voqOjfXclNh355Ap1VFSUadq0qX755RfbUdJd165d9eWXXyp37twUaQAAAPiEiRMnmmeffVanTp2yHQVe0qBBA02cOFElSpSgl/yNz61Qx8XFmfvuu8/vy3RYWJjGjRunSZMmOZRpAAAA+JLu3bs7u3bt0quvvqqcOXPajgMvWLt2rW666SbNnj3b91Zk05HPrVD379/ffP7557ZjpKsmTZpozJgxKlmyJEUaAAAAPu38+fNm/PjxGjNmjDZt2mQ7DtLIcRy9/vrreu211+Q4TsD3FZ8q1F999ZV57LHHbMdIN8HBwXrrrbf04osvcol6AAAA+J3ff//dLF68WL/++qt27dqlM2fO6PLly5KkS5cuKS4uTpcvX1ZsbKztqEhCp06dNGbMGGXPnj2ge4vPFOrVq1eb5s2bKzo62naUdFG4cGFNmjRJjRs3Dug3JID/Lz4+3nz66aeKi4uzmiNHjhzq168f26YbCA8PN9OnT7cdw5rg4GDlyJFDQUFBypkz51//Dg4OVsGCBVWwYEFWL1Lhiy++MFeuXLGa4YEHHlChQoX4u4NVV65cMTExMYqMjNSlS5cUHh6uM2fO6PTp0zp79qzCw8N1+vRpHT16VAcPHlR4eLjtyAGnWrVqmjVrlsqUKROw2wufKNTHjx83derU0enTp21HSRdNmzbVxIkTuR0WgH9Ys2aNadSoke0YkqT9+/erbNmybKP+x6ZNm0ydOnVsx3CtTJkyqVChQipWrJiKFCmiokWLqnTp0qpZs6Zq1qzJBTcTULRoUWP7Xr4bN25U7dq1+fuBT7l06ZI5cOCADh48qAMHDujAgQPaunWrtm3bpsjISNvx/FbevHk1efJkNW/ePCC3GcG2AyTl2rVrplOnTn5Zph3H0UsvvaS33npLQUFBAfkGBJCwKVOm2I7wl6lTp2rAgAG2Y8DHREdH6+jRozp69OgN/3/JkiVNrVq1VLNmTdWpU0dNmzYN+NFBAKmXM2dO56abbtJNN930j9+Pi4sz+/fv1+bNm//6Z9OmTTp79qztyH4hIiJCrVu31qBBg8xTTz0VcNtw169Q9+rVy4wbN852DK/Lnj27xo8frw4dOgTcmw5A0uLj402JEiX0+++/244iSbr55pu1adMmtlf/gxVq78qUKZMaNGig1q1bq1WrVqpZs2ZAjoyzQg1kjF27dpnVq1dr1apVWrVqlQ4fPmw7ks979tln9fHHHwfU9aBcXaiHDRtmnnzySdsxvK5UqVKaNWuWatSoETBvNAAps3r1anPbbbfZjvEP+/btU7ly5dhu/Q2FOn0VKlRId999tx566CHdcsstAfPeo1ADdhw/ftysXLlSP/74oxYsWMAKdip169ZN3333nUJDQwNiG+La+1Bv2rTJ/Pe//7Udw+saNGigdevWUaYBJMpN495/mjp1qu0ICDCnTp3Sl19+qbp166pKlSrmww8/NGfOnHHvSgAAn1asWDHnvvvuc8aMGeOcOnVKGzdu1AcffKCGDRvK43FtbXKdSZMmqXXr1rpw4UJAbK9d+c64ePGiuffee3X9+nXbUbzqoYce0tKlS7n4GIBExcfHmx9++MF2jH+hUMOmXbt2acCAASpevLi6du1qtm7dGhAHagDs8Hg8Tu3atZ0XX3zRWb16tXP8+HENHz5cjRs3plwnw/Lly9W4cWMdP37c77fVrnw3PPLIIzp48KDtGF711ltv6ZtvvnECZfQBQOqtWbNGtsc9b+S3337Tvn37/H7HCHeLjo7WlClTdNNNN6lLly5m+/btvCcBpLvChQs7jz/+uLNixQrnyJEjGjRokG655RbbsVxt27ZtatCggXbu3OnX22nXFeqhQ4e6cmUmtYKCgjRy5EgNHDiQIg0gWdw47v0nVqnhFvHx8Zo2bZpq1qyprl27Gn8/YAPgHsWKFXOeffZZ55dffnH27dunN954Q8WLF7cdy5WOHTumJk2aaPPmzX67jXZVod64caN5/vnnbcfwmtDQUE2cOFG9e/emTANIlvj4eDN9+nTbMRJEoYbbxMfHa8qUKapZs6b69+9vIiMj/fagDYD7lCtXznn99dedw4cP66efflKXLl0UHOz6OxNnqPDwcDVt2lTr1q3zy+2zawr1pUuXTNeuXf3mvOlcuXL9+UNFmQaQbKtXr3bluPefNm/ezNg3XCk2Nlaff/65br75Zq1cuZL3KIAM5fF4nBYtWjhTpkxxDh48qNdee01Fixa1Hcs1Lly4oNatW2vt2rV+t312TaF++umn/ea86fz582v58uW67bbbKNMAUsTN496+lBGBa+/evbr99tvVt29fc+nSJb87cAPgfsWLF3fefPNN5+DBgxozZoyqV69uO5IrXLx4Ua1atdKKFSv8atvsikI9e/Zs8+2339qO4RUFChTQkiVLVLNmTco0gBRx+7j3nxj7htsZYzRy5EjVrl1bO3bs8KsDNwC+I1OmTE6vXr2crVu3OqtWrVLbtm1tR7LuypUruvPOO7Vo0SK/2TZbL9Rnz541ffr0sR3DK4oUKaIVK1aoevXqlGkAKbZq1SqdPHnSdowkbdmyRXv37vWbHSH81/79+9WgQQPNmjWL9ysAqxo1auTMmTPH2bBhg+655x45TuDWhaioKHXo0EFLly71i22z9ULdr18/nT592naMNCtevLiWL1+uSpUqBe5PB4A08aVRal/KisB26dIl3X333RowYICJj4/3i4M3AL6rTp06zrRp05ytW7eqS5cutuNYc+3aNbVr106rV6/2+e2y1UI9btw4M23aNNuvQZoVLVpUy5cvV/ny5SnTAFIlLi7OJ8a9/8TYN3yJMUYffvihunbtqujoaJ8/eAPg+6pVq+ZMmTLFWbNmjW6//XbbcayIiopS+/bttXXrVp/eLlsr1MeOHTNPPfWU7eefZvny5dOiRYtUpkwZyjSAVFu1apVOnTplO0aybd26VXv27PHpHSACz7Rp09S5c2ddv36d9y4AV2jQoIGzbNky56efflLt2rVtx8lw58+f1x133OHTp5JZK9R9+/bVhQsXbD//NMmZM6cWLlyoKlWqUKYBpIkvrvj6YmZgzpw5uvvuu3Xt2jWfPXgD4H9atGjh/PLLL/r6669VsGBB23Ey1OnTp9WyZUsdPXrUJ7fLVgr15MmTzYIFC2w/9zTJkiWL5syZo9q1a1OmAaRJXFyc+eGHH2zHSDHOo4avWrBggdq3b6+oqCifPHgD4J88Ho/zyCOPOHv27NFzzz2nkJAQ25EyzNGjR9WyZUudPn3a57bLGV6oL1y4YJ5++mnbzztNQkJCNG3aNDVu3JgyDSDNVq5c6ZMXZ9y2bZt2797tczs+QJJ++uknde3aVVyoDIDbhIWFOZ988omzbds2tWnTxnacDLN3716f/LAzwwv1iy++6FPnCd7I559/rjvvvJMyDcArfHml15ezA3PnztWAAQNsxwCAG6pYsaIzf/58Z/bs2SpSpIjtOBnil19+UdeuXRUXF+czpTpDC/X69evN119/bfs5p8nLL7+sxx57jDINwCt87ere/4vzqOHrPv74Y40aNcpnDtwABJ527do5O3bsUJ8+fQLi/tVz587Viy++aDtGsmVYoY6OjjaPPPKI4uPjbT/nVOvSpYvefvtt2zEA+JHly5frzJkztmOk2vbt27Vz507KCHzaE088oRUrVvA+BuBauXLlcr766itnwYIFKlmypO046W7QoEH64osvfGK7nGGF+uOPP9aOHTtsP99Ua9SokcaOHSuPx+P/HwsByDDTpk2zHYHngIAXExOj7t2769y5cz5x8AYgcLVq1crZvn27HnvsMdtR0t3TTz+tBQsWuH67nCGF+vjx4+a9996z/VxTrXTp0poxY4YyZ85MmQbgNb4+7v0nzqOGPzh58qSeeeYZ2zEAIEnZs2d3vvzyS2fWrFnKly+f7TjpJjY2Vl27dtWWLVtcXaozpFC/9NJLioqKsv1cUyVz5syaOnWq8uXLR5kG4FXLli3z6XHvP+3YsYOxb/iFsWPHaubMmbyXAfiE9u3bO9u3b/frK4FfvnxZHTp0UHh4uGu3zcHp/QC//PKLmTBhgu3nmWqjRo3iXtMA0oU/jUpPnTpVr7/+uu0YASl//vxasGCBlceOiYnRlStXdOXKFV24cEEHDx7UgQMHtGfPHm3ZskWxsbG2X54U+89//qPbb7/d5MqVi30/ANcrWLCgM3fuXPPpp5/qlVdeUXR0tO1IXnfkyBH17NlT8+bNM248/dYxJv3KvjHGNGrUSGvXrrX9PFPlqaee0pAhQ1z3lwbA98XGxpoiRYro7NmztqN4RdWqVbV9+/aA215u2rTJ1KlTx2qGIkWK6Pfff3fda3/lyhWzfv16LV68WJMnT9ahQ4dsR0q2xx9/XMOHD7f2mhYtWtScOHHC6muwceNGFhQAH7Nx40bTuXNnHTlyxHaUdDFw4EC99dZbrtsupevI9+TJk322TDdu3FiffPKJ7RgA/NTy5cv9pkxLf4x979ixw7XjWMh42bNnd5o3b+68//77zoEDB/Tzzz+rZ8+eCgkJsR0tSV9//bUOHTrE+xmAT6lTp46zceNGNW/e3HaUdPHOO+9o9uzZrts2p1uhvnr1qhkwYIDt55cqBQsW1OTJkxUSEuK6T0AA+Ad/vH+zPz4neIfjOE69evWcsWPHOvv379fjjz+uoKAg27ESFBMTw20yAfikfPnyOT/++KOef/55v7tntTFGvXr10r59+1xVqtOtUA8ePNgnxw08Ho/Gjh2rQoUK+dc7EIBrxMbGmhkzZtiO4XUUaiRHiRIlnOHDhzsbN25UgwYNbMdJ0Lhx47R//35XHbQBQHIEBQU5H330kTN58mRlz57ddhyvunjxojp16qTIyEjXbJ/TpVCfP3/efPzxx7afW6q88MILuuOOOyjTANLNsmXL/Grc+087d+7U9u3bXbODg7vVqlXLWblypd544w1XrlbHxsbqrbfesh0DAFKtS5cuzs8//6wSJUrYjuJV27dvV//+/W3H+Eu6FOpPPvlEFy5csP3cUqx+/frsPAGkO39eyfXn5wbvCwoKcl5//XVn0aJFyp07t+04/zJp0iSdPn2aD4kA+Kxq1ao569at080332w7ileNHj1a06ZNc8X22euFOjw83AwdOtT280qxXLly6fvvv+e8aQDpKjY21sycOdN2jHQzefJk2xHgg5o1a+asXr1axYoVsx3lH2JiYvT999/bjgEAaVK4cGFn5cqVateune0oXtW7d28dOXLEeqn2eqF+7733dPnyZdvPK8VGjBihUqVKUaYBpKulS5f65bj3n/bs2aNt27ZZ37nB91SpUsVZsWKFChcubDvKP4wZM8Z2BABIs2zZsjkzZszQ448/bjuK11y4cEG9evVSXFyc1eMOrxbq33//3YwYMcLm80mVLl26qGvXrpRpAOkuEEaiA+E5In2UKVPGmT9/vnLmzGk7yl+2bNmizZs38yERAJ8XFBTkDB8+3Pnggw/85grgK1eu1AcffGA1g1cL9bvvvqurV69afUIpVbBgQQ0fPtx2DAABICYmxi+v7v2/KNRIi1q1ajluWxUeO3as7QgA4DUvvviiM2zYMHk86XbDpwz1xhtvaN26ddY++PTaq3jkyBEzevRoW88j1UaMGKF8+fL5x0c0AFxt6dKlioiIsB0j3e3evVtbt25lRQ+p1rFjR6dv3762Y/xl/vz5tiMAgFf169fP+eabb1x5l4WUio2NVc+ePRUVFWXl2MNrhfrTTz9VdHS0jeeQavfff786duxImQaQIQJp5TaQnivSx6BBg1xzkbI9e/bo5MmTfEgEwK888MADzv9dlNl2lDTbv3+/XnvtNSuP7ZVCHRER4XOr0wUKFNCQIUNsxwAQIGJiYvz66t7/i0KNtMqWLZvz7rvv2o7xl+XLl9uOAABed++99zo//PCDMmfObDtKmn322Wf65ZdfMvzDT68U6i+++EKRkZEZnT1NBg0apDx58rA6DSBDLFmyJCDGvf+0Z88exr6RZvfff7+qV69uO4YkacWKFbYjAEC6aNeunTN16lSfX6mOi4vTww8/rOjo6Aw9/khzoY6KijLDhg3LyMxp1qRJE/Xo0cN2DAABZMqUKbYjZDhWqZFWHo/Heeqpp2zHkEShBuDf2rZt60yaNEnBwcG2o6TJjh07lNHTTWku1N9++61P3VM1NDRUI0eOlOMv14oH4HoxMTFm1qxZtmNkuED8EAHe16NHD+XNm9d2DO3Zs0eRkZFMXQDwW506dXJGjRrl87fUev/99zN0Si5NhTo2NtYMGjQoo7J6xYABA1ShQgXffpcA8CmLFy/WuXPnbMfIcHv37tWWLVsoIEiTLFmyOHfffbftGDLG6MCBA7ZjAEC6evDBB52hQ4fajpEmMTExeuSRRxQXF5chxyBpKtQ//PCDDh06lDGvjBeULVtWAwYMsB0DQIAJ5NFnVqnhDR07drQdQdIfV5EFAH/3xBNPOO+9957tGGmyceNGffXVVxnyWGkq1L527vSHH36ozJkzszoNIMNER0dbvbp3gQIFlD17dmuPH8gfJsB7mjdvrtDQUNsxKNQAAsZLL73kPP7447ZjpMnAgQMVERGR7qvUqS7UO3bsMKtXr87YVyUNGjRooE6dOtmOASDA/PTTTzp//ry1x//www/1wAMPWHv8ffv2afPmzYx9I00yZ87s1KpVy3YMRr4BBJShQ4eqffv2tmOk2rlz5/Tqq6+m++OkulD70uq0x+PRkCFDuBAZgAw3bdo0a48dFBSktm3byvb5p4x9wxvq1q1rO4IOHjxoOwIAZJigoCBnwoQJcsMHmqk1atQo/fbbb+n6wX6qCvWlS5fMhAkT7LwqqdCjRw/VqVOHMg0gQ0VHR1u9unejRo2UL18+p0mTJsqTJ4+1HIx9wxuqVq1qO4IuXbpkOwIAZKjs2bM7c+fOVbFixWxHSZW4uDg9+eSTMsakW6lOVaEeN26cLl++bO+VSYGsWbPK10+qB+CbFi9ebHXc+88LOQUHBztt27a1lmP//v3p/ukw/F/JkiVtR1BkZKTtCACQ4YoWLerMnTvX6jVZ0mLNmjVKz8XgVBXqL7/80toLklL9+vVTsWLFWJ0GkOFsjzr//crIjH3D17mhUF+5csV2BACwombNms7XX39tO0aqvfjii4qMjEyXD/dTXKhXrFhhduzYYfs1SZbs2bPrhRdesB0DQACyPe590003qVSpUn99mHjHHXcoa9as1vIw9o20snnawp9YoQYQyLp27eo8++yztmOkyokTJzRkyJB0+d4pLtTfffed7dcj2fr376/8+fOzOg0gwy1atEgXLlyw9vj/uyKdNWtWp1WrVtbyHDhwQL/++itj30i1LFmy2I5AoQYQ8D788EPdfvvttmOkykcffZQut9FKUaGOiooy06dPt/1aJEtYWJiee+452zEABCjbK7IdOnT41+/ZHvu2/ZrAt2XLls12BEVHR9uOAABWBQcHO5MmTVLRokVtR0mxixcv6sMPP/T6901RoZ41a5bPXOHy2WefVe7cuVmdBpDhrl+/bmbPnm3t8cuUKaMaNWr8a/vXtm1bhYSEWMtFoUZaxMTE2I7gilIPALYVLFjQmTZtmtVjitQaNmyYfv/9d6+uUqeoUI8bN872a5AsYWFh6t+/v+0YAALUTz/9ZHXc++8XI/u73LlzO02aNLGW68CBA9q0aRNj30gVN4xbU6gB4A/16tVz3nrrLdsxUuzq1avydu5kF+pTp06Zn376yfZrkCx9+/ZVWFgYq9MArLB9RevERrsTKtsZhVVqpJYbbtdJoQaA/++FF16QzQ/qU+ubb77R3r17vfYBf7IL9cSJExUbG2v7+ScpU6ZMrE4DsMb2uHeBAgVUv379BP9/x44d5Tj2Pm+cOnWqjDGsUiPFjh07ZjuCz96DFQDSg8fjccaNG6fcuXPbjpIisbGxeuONN7z3OiT3C31l3LtHjx4qUqQIq9MArFi0aJEuXrxo7fHbt2+voKCgBLeBRYsWderWrWst38GDB7Vp0yZrjw/fdejQIdsRWKEGgP9RvHhxZ8SIEbZjpNiUKVO0f/9+r3zAn6xCvW/fPvPbb7/Zft5JchxH//3vf23HABDAbI80J2ekm7Fv+KLdu3fbjqACBQrYjgAArnPvvfc6DzzwgO0YKRIXF6ePPvrIK98rWYV6xowZtp9zstx1112qUqUKq9MArLh+/bqZNWuWtcfPkSOHmjdvnuTXueH2WYx9I6XWrVtnO4LKlStnOwIAuNKQIUN87lZaY8eO1YkTJ9J8PJKsQu0r955+8sknbUcAEMB+/PFHq7cWbN26tTJnzpzkh4oVK1Z0qlSpYi3noUOHtHHjRmuPD98TGxtrNmzYYDsGhRoAEhAWFuYMGzbMdowUuX79uj799NM0f58kC/Xvv/9ufvnlF9vPN0lly5ZVixYtbMcAEMBsX927U6dOyf5axr7hS1asWKErV67YjkGhBoBEdOzY0encubPtGCkyYsQIhYeHp2mVOslCPX36dPnCZF6/fv3k8XgY9wZgxbVr18ycOXOsPX5ISIhat26d7K+3PfY9adIkxr6RbG6ZlKNQA0Dihg4d6lNX/Y6MjNTw4cPT9D2SLNQzZ860/TyTlCVLFvnaifAA/Ivtce9mzZopV65cyf5QsXbt2ipevLi1vMeOHZMbRnjhftevXzc//PCD7RjKmjWrihUrZjsGALhaoUKFnI8//th2jBT5/PPPFRUVleoP+RMt1BEREWblypW2n2OSunbtqrx587I6DcAa2yPMKR3hdhzHYewbvmDSpEk6ffq07Rhq0KABk3AAkAwPP/ywGjdubDtGskVEROj7779P9Z9PtFDPnz9fsbGxtp9jkvr27Ws7AoAAdu3aNTN79mxrj+/xeNShQ4cU/znbY99c7RtJMcaYwYMH244hSWrSpIntCADgExzHcT7//HMFBQXZjpJsX3zxRar/bKKF+scff7T93JJUvnx53XrrrbZjAAhgCxYs0OXLl609fr169VS4cOEUr5w1btxY+fLls5b7yJEj8oWLXsKecePGacuWLbZjSJJuv/122xEAwGfUrFnTefTRR23HSLbNmzdrzZo1qfqQP8FCbYwxixcvtv3cktSrVy85jsMIFgBrpk2bZvXxU7M6LUlBQUFO27ZtrWZn7BsJiYyMNK+88ortGJL+OH+6bt26tmMAgE95++23lStXLtsxki21q9QJFuqtW7e64pylxDiOox49etiOASCAXb161erVvaW03QLL9tj3tGnTGPvGDT377LM6fvy47RiSpIYNGypTpkx8eA8AKZA/f37ntddesx0j2X744QedOnUqxcckCRbqRYsW2X5OSWrUqJFKly7NDg6ANQsXLrQ67l2lShVVqFAh1dvBli1bKlu2bNbyHzlyROvXr7f2+HCnGTNmmJEjR9qO8ZeuXbvajgAAPuk///mPKlasaDtGskRHR+vrr79O8Z9LsFD/9NNPtp9Tku6//37bEQAEONsjy2m9UneWLFmclNy/Oj3Yfg3hLr/99ptx060ws2bNqi5dutiOAQA+KSQkxHn//fdtx0i2r776SrGxsSlapb5hob569apZtWqV7eeTqJCQEHXu3Nl2DAABzNfHvf/E2Dfc4uDBg+bOO++0OvXxvzp27KicOXMyDQcAqdSxY0fVrl3bdoxkOX78eIontW9YqFetWqVr167Zfj6Juv3225UnTx52cACsWbBgga5cuWLt8YsXL646deqk+fvcddddCgkJsfY8jh49qnXr1ll7fLjD5s2bTaNGjXTq1CnbUf7BTavlAOCLHMdx3nrrLdsxkm3cuHEp+voEC7XbderUyXYEAAHO9qhyhw4dvHKXg1y5cjlNmza1+lxsv5awa86cOaZJkyY6efKk7Sj/UKJECTVv3tx2DADweXfeeafToEED2zGSZdasWbp48WKyJ+duWKjXrFlj+3kkHtrjSfVtYgDAG6KioszcuXOtZvDmqLbtse+pU6cy9h2Arl27Zvr37286dOigS5cu2Y7zLy+99JKCgoKYhgMAL/CVVeqrV6+m6Jao/yrUsbGxZsOGDbafR6Lq16+vwoULs4MDYI3tce88efLotttu89r3a9++vTweT9q/USodP35cP//8s7XHR8Yyxpjvv//eVK5cWZ9//rnc+FlKyZIl9fDDD9uOAQB+o3nz5s7tt99uO0aypGTs+19HT1u3brV6kJgctldSAMD2iPL/nffstQ8WixQp4tx6661Wn5Pt1xTp79q1a+a7774ztWvXVo8ePXT48GHbkRL06quvcu9pAPCyl19+2XaEZFm5cqUOHz6crE97/1Wo165dazt/ktq2bWs7AoAA5m/j3n/yxhXD04Krffun//t5MY899pgpVqyYHnroIf3222+2YyWqTJkyXIwMANJBy5YtnVq1atmOkSRjjMaPH5+sr/W5Ql2yZElVrFiRT4wBWDN//nxFRkZae/wsWbLojjvu8Pr3tT39w9i3b4uKijK7du0yS5YsMV9//bV54oknTP369U3evHnVrl07ffXVV4qIiLAdM1k++ugjr06AAAD+v+eee852hGT5/vvvk/V1wf/7G24v1OlxEAkAKWF7NPmOO+5QtmzZvH6wX758eadatWpm+/bt1p7blClT5CtXAXWL06dPq2zZshm+sm+M0YULFxQXF+fKC4qlVpcuXXTPPfdQpgEgnXTt2lUvv/yyjh07ZjtKonbt2qXdu3ebSpUqJbpP+EehPnnypDly5Ijt7Ilq2bKl7QgAAlhUVJSZN2+e1QzpOZrdsWNH2SzUP/zwgz799FPj8XgoNMkUFxengwcP2o7hF/Lly6dhw4bZjgEAfi0kJMTp37+/+e9//2s7SpJmzpypAQMGJPo1/xj53rJli+3MiQoKCuJ+kACsmjdvntVx7+DgYLVr1y7dvj9j3whkn3/+uQoUKMCHOQCQznr37q2cOXPajpGkmTNnJvk1PlWo69Spozx58rCjA2CN7XHvRo0aKW/evOm2HbzppptUsmRJq89xypQpVh8fgalLly7q3r07xxgAkAFy5szp9OzZ03aMJP3yyy/6/fffEz2t6h+FevPmzbYzJ6pp06a2IwAIYFFRUWb+/PlWM3Tq1Cldv7/jOI7tq31PnTpV8fHxXO0bGaZWrVr69ttvbccAgIDSp08f2xGSZIzRrFmzEv0an1qhbtiwoe0IAALYnDlzrI57S0rXce8/2R77PnnypOsvkAn/UbBgQc2aNStdLvQHAEhYjRo1nFtuucV2jCQlNfb9V6G+evWq2bdvn+28CXIcR/Xr17cdA0AAmzZtmtXHv/nmm1WqVKl0P+hv1KiR8ufPb/W5MvaNjBAaGqoZM2aoRIkSlGkAsKB37962IyRp+fLlunDhQoKTc38V6h07dig2NtZ23gRVqlQpXc8bBIDEREZGWh/3zqhR7KCgICcjVsIT88MPPzD2jXQVFBSkb775RvXr1+fYAgAs6datm7Jnz247RqJiYmK0ZMmSBP//X4Xa7edPM+4NwKY5c+YoKirKaob0Pn/672yPfZ84cUJr1qyxmgH+KygoSKNHj9Z9991HmQYAi3LkyOF069bNdowkJatQ79q1y3bORFGoAdhk++re5cqVU9WqVTPs4L9ly5bKkSOH1eds+zWHfwoKCtJ3332nBx54gDINAC7Qq1cv2xGStHjx4gT/31+Fev/+/bZzJqpu3bq2IwAIUJGRkebHH3+0miGjV4xDQ0Od1q1bW33OU6dOVVxcHGPf8JqgoCCNGTNG999/P2UaAFyiUaNGKlGihO0Yidq3b58OHz58w2MSnyjUmTNnVoUKFWzHABCg3HB17w4dOmT4Y9oe+z516hRj3/Ca7Nmza8aMGerRowdlGgBcxHEc55577rEdI0lLly694e97JCk+Pt4cPHjQdsYEVa9eXcHBwewAAVhh+4rTBQsWtHKXgzvvvFOZMmWy+twZ+4Y3FC1aVMuXL1e7du04lgAAF+ratavtCElK6DxqjyQdO3ZM165ds50xQTVq1LAdAUCAunLlilm4cKHVDO3bt5fH48nwIhAWFuY0a9bM6nPnat9Iq5YtW+rXX39V7dq1KdMA4FJ169ZVqVKlbMdI1JIlS2SM+dcxiUf6YybczWrWrGk7AoAANWfOHF29etVqBpuj1xl1q66EnDx5UqtWrbKaAb4pJCREb7/9thYuXKgCBQpQpgHAxRzHce69917bMRJ1+vRpbd++/V+/75Hcff60JNWqVct2BAAByvbIcc6cOWVzlbhDhw7yeDxp/0ZpYPvvAL6nRo0aWr9+vV599VXHxnQHACDlfOE86p9//vlfv+cThbpq1aq2IwAIQJcvX7Y+7t2mTRuFhoZaKwSFChVybJy//Xc//PADV/tGsmTLlk3vvfeeNm7cqJtuuokiDQA+pE6dOsqfP7/tGIlav379v37vr3Oo3Spv3rzKkycPO0UAGW7u3LnWx71tj1y7IcOpU6cY+0aigoKC1KNHD+3evVsvvfSSExISwnEDAPgYj8fj3HHHHbZjJCrBQn3ixAnb2RJUvnx52xEABKjJkydbffzQ0FDdeeedtl8GV4xgMfaNGwkJCVHPnj21fft2jR8/3ilWrBhFGgB8WJs2bWxHSNTOnTt14cKFf0zNUagB4AYuX75sFi1aZDVD8+bNlTNnTusFoXTp0k716tWtZmDsG3+XKVMm9ezZUzt37tTYsWOdSpUqWf85AQCkXatWraxfuyUxxhht2rTpH7/nkf4Yp3MrCjUAG9xwde8OHTrYfhn+YvNK49IfV9ZcuXKl7ZcBltWuXVufffaZjh07prFjxzrlypWjSAOAH8mXL59Tp04d2zEStW7dun/8t+fChQsmKirKdq4EUagB2DBlyhSrj+/xeNS+fXvbL8NfbBdqibHvQFW8eHENGDBAO3bs0MaNG53+/fs73AYLAPxX69atbUdI1P+eRx188uRJ25kSVbp0adsRAASYS5cumR9//NFqhnr16qlQoUKuKQ21atVySpcubQ4dOmQtw/Tp0zV06FATFBTkmtcF3pc9e3Y1btxYzZo1U7NmzVSzZk1x6ysACByNGze2HSFRGzZs+Md/B7v5/GlJKlKkiO0IAALMnDlzdO3aNasZbF9ZO6FMgwcPtvb4p0+f1ooVK6zelxveFRwcrPLly6tatWqqVauWbr/9dtWtW1fBwcEUaAAIULfeequCg4MVGxtrO8oNnTp1SuHh4SZfvnyO5PIVao/Ho0KFCtmOASDA2B73lqQXXnhBL7zwAhfh+h9Tp06lUPuYvHnzqlChQipUqJAKFy6sYsWKqXr16qpSpYqqVKmiTJkyUZ4BAH/Jnj27U6tWLbNx40bbURK0Y8cONWnSRJIUfP78edt5ElSgQAFxL0kAGckN495I2PTp0zVs2DDGvv8mV65c+vDDD608tsfjUVhYmCQpLCxMHo9H2bNnV0hIiAoUKKACBQooNDSUvysAQIo0bNhQbi7UO3fu/P+F+sKFC7bzJKho0aK2IwAIMLNmzdL169dtx0ACzpw5o+XLl6t58+a2o7hG1qxZ1adPH0orAMBvNGzYUEOGDLEdI0E7d+7869eeixcv2s6TIM6fBpDRuJK0+/F3BACAf7vttttsR0jUPwr1pUuXbOdJUMGCBW1HABBALl68aBYtWmQ7BpIwffp0xcbGcn45AAB+qlChQk7x4sVtx0jQjh07/vq1x80j33ny5LEdAUAAYdzbN5w9e1bLly+3HQMAAKSjGjVq2I6QoNOnTys8PNxILl+hzpkzp+0IAALItGnTbEdAMjH2DQCAf3NzoZak3bt3S5I8br7Kd+7cuW1HABAgLly4wLi3D2HsGwAA/1a9enXbERJ1+PBhSZLn8uXLtrMk6M9bcQBAeps9ezbj3j4kPDxcy5Ytsx0DAACkE7evUB85ckSS5HHzAWSuXLlsRwAQIKZMmWI7AlKIsW8AAPxXxYoVlTlzZtsxEnT06FFJkic2NtZ2lgSxQg0gI1y4cMH89NNPtmMghWbMmMHYNwAAfio4ONipVKmS7RgJ+muFOjo62naWBIWGhtqOACAAzJw5U27eFuLGwsPDtXTpUtsxAABAOilXrpztCAn6a4U6JibGdpYEZcqUyXYEAAGA0WHfxd8dAAD+q3Tp0rYjJOivFWo3F+qQkBDbEQD4uQsXLpjFixfbjoFUmjFjhmJiYhj7BgDAD7m5UEdFRSk8PNy4+hzq4OBg2xEA+DnGvX1bREQEV/sGAMBPublQS3+Mfbv6HGpGvgGkN67u7fsY+wYAwD+VKlXKdoREnT17Vp64uDjbORLECjWA9HT+/HmzZMkS2zGQRox9AwDgn0qVKiXHcWzHSNC5c+fkcfN5yvHx8bYjAPBjjHv7h4iICK72DQCAH8qcObNTsGBB2zESdO7cOXncPFbNgS6A9MS4t/9g7BsAAP+UP39+2xESRKEGELDOnz9vWNX0H9OnT1d0dDRj3wAA+Jl8+fLZjpCgc+fOyRMaGmo7R4Io1ADSy/8VMNsx4CXnz59n7BsAAD+UN29e2xES5PoV6uvXr9uOAMBPMSLsf/g7BQDA/7BCnQasHgFID+fOnWPc2w/NnDmTq30DAOBn3LxCHRER4e4Vago1gPQwffp0xcTE2I4BLzt37pwWL15sOwYAAPAiN69QX7161d0r1NeuXbMdAYAfmjZtmu0ISCeMfQMA4F9y5cplO0KCrl+/rmA3r1CfO3fOdgQAfiYiIsIV495NmjRRgQIFbMfwqqNHj2r9+vVWM8ycOVMjRowwmTJlcmy/HgAAIO3cvAAcHR2t4KxZs9rOkaCIiAjbEQD4mRkzZlgf9w4ODtb06dOVJ08evyp9e/fuNRUrVrSa4fz581q8eLHuvPNO2y8HAADwArcXao/bT/IGAG+aMmWK7Qhq0qSJ35VpSapQoYJTuXJl2zEY+wYAwI+4eaI6OjpaHjef5B0eHm47AgA/Eh4ebpYtW2Y7hjp06GA7gl8/t5kzZyo6OpqrfQMA4AdYoU4DVqgBeNP06dMVGxtrO4batm1rO0K6cUOhvnDhgn766SfbMQAAgBdQqNOAFWoA3uSGUeBatWqpdOnSfjfu/ae6deuqcOHCtmO44u8aAACkHSPfaUChBuAt4eHhZvny5bZjuGIFNz15PB6nXbt2tmNo1qxZjH0DAOAHgoKCbEdIUFxcnLtXqE+fPm07AgA/4ZZxb38v1G55jhcuXNCiRYtsxwAAAGkUHR1tO0KCMmXK5O4V6jNnzigyMpIVBgBp5oare5coUUK1atWyHSPdNW/eXDly5LAdg7FvAAD8wPXr121HSFBoaKi7V6gl6ciRI7YjAPBx4eHhZsWKFbZjqGPHjnIcx2/Pn/5TaGio06pVK9sxNHPmTF27do0PZQEA8GGuL9RuXqGWpIMHD9qOAMDH/fDDD64Y927fvr3tCBnGDWPfly5d4mrfAAD4ONePfOfIkcMJCwuznSVBhw8fth0BgI9zw7h3rly51LhxY9sxMkzbtm0VEhJiOwZj3wAA+DjXr1BLUsmSJW1nSRCFGkBanD171qxcudJ2jD8Lpt+Pe/8pV65czm233WY7BmPfAAD4OJ8o1KVLl7adJUGHDh2yHQGAD3PL1b0Dadz7T24Y+758+TJX+wYAwIdFRkbajpCgTJky/VGoS5UqZTtLgijUANLCDePeoaGhat26te0YGc4tHyIw9g0AgO+KiIiwHSFBPrFCvXv3bsXFxTGuByDFzpw544qrezdr1kw5cuQImHHvP5UqVcpxw23CZs+ezdg3AAA+ys2FOlu2bO5fob569ar27dtnOwYAHzRt2jTFxcXZjqGOHTvajmCNG8a+L126pB9//NF2DAAAkArh4eG2IyQoX7587i/UkrR161bbEQD4IDeM+no8HrVr1852DGvcUKgld7wXAABAyvlEoS5TpoztLInatm2b7QgAfMzp06fNqlWrbMdQ3bp1Vbhw4YAb9/7TTTfd5LjhtKLZs2fr6tWrjH0DAOBj3Fyo8+bN+0ehzpEjh5MnTx7beRLECjWAlHLLuLdbVmhtatu2re0Iunz5MmPfAAD4IDefQ/1XoZakcuXK2c6TIAo1gJSaNm2a7QiS3HOla5vc8qECY98AAPgWY4w5deqU7RgJ+kehrl69uu08CTpy5IguXLjAqB6AZDl16pQrxr3LlSunKlWqBOy4958aN26s3Llz246hOXPmMPYNAIAPOXPmjKKiomzHSNBf51BL7i7Uxhj99ttvtmMA8BHTp093xbh3IF/d++9CQkKcO++803YMxr4BAPAxhw4dsh0hUf9Yoa5Ro4btPIlas2aN7QgAfMTkyZNtR5BEof47t4x9T5kyxXYEAACQTG4v1Pnz56dQA/Avp06dMm7YXhQoUED16tWzHcM12rRpo8yZM9uOwdg3AAA+5PDhw7YjJMhxHBUqVOj/F+q8efM6RYoUsZ0rQWvXrlVcXBwHQQAS5Zare7dr105BQUEBf/70n7Jnz+40bdrUdgxduXJFCxYssB0DAAAkg5tXqAsXLqzMmTM7nr//pptXqS9duqQdO3bYjgHA5dxyJWeu7v1vbhn7dst7BAAAJM7NK9SlSpWSJPlMoZYY+waQOLeMe2fNmlUtWrSwHcN1OnbsKI/Hk/ZvlEZz5sxRZGQkE08AALicmxdUS5cuLel/CrWbr/QtUagBJG7q1KmuGPdu1aqVsmbNyrj3/yhYsKBzyy232I6hyMhIrvYNAIDLnTt3zpw4ccJ2jATdsFC7fYV65cqVtiMAcLFp06bZjiCJce/EuGXsm6t9AwDgblu3brUdIVE3HPmuWrWqcubMaTtbgo4dO6YdO3YwpgfgX06ePGlWr15tO4aCgoLUtm1b2zFcyy2FmrFvAADcze2FukyZMpL+p1AHBQU5t956q+1sieLqrABuZOrUqYqPj7cdQ40aNVK+fPkY905AlSpVnAoVKtiOoaioKC1cuNB2DAAAkIBt27bZjpCoG65QS1KDBg1sZ0sUhRrAjTDu7Tvc8hpxtW8AANzLzYU6ODhYxYsXl3SDQt2wYUPb+RK1evVqXblyhTE9AH/5/fffXXF1b8k9I81u5pbXaO7cuYqKimJ/AgCAy8TGxprt27fbjpGgChUqKDg42JFuUKjr16+v4OBg2xkTFB0draVLl9qOAcBFpk2b5opx7+rVq6ts2bKMeyehQYMGKlSokO0YioyM1Pz5823HAAAA/2PLli2KjIy0HSNBNWvW/OvX/2rO2bNnd6pXr25+++032zkTtGDBAteMDAKwj3Fv3+LxeJw777zTfPPNN7ajaOrUqercuXOq/3z+/PnVp08fq88hV65cVh8fAABvW7t2re0IiapWrdpfv3aM+fe025NPPmmGDRtmO2eCSpQoocOHD8txHFaCAOi3334zblihLlOmjHLnzs12KRnOnDljjh07ZjuGQkNDVa1aNf7O4Cpbt241MTExVjNUrlxZWbNm5WcDgBXdunUzkydPth0jQXPmzFHbtm0dKYFCPWnSJNO9e3fbORO1du1a1a9fnw09AAAAAPiR4sWLm+PHj9uOkaCjR4+qePHiNz6HWnL/hckkacqUKbYjAAAAAAC86MiRI64u07ly5VKxYsX++u8bFurixYs75cuXt501UZMnT1Z8fDxXZwUAAAAAP7F69WrbERJVo0aNf5x67EnoC9u0aWM7a6JOnjwpt9wmBwAAAACQdm6/o1ONGjX+8d8+W6glxr4BAAAAwF8YY8yPP/5oO0aiatWq9Y//vuFFySTp2rVrJm/evIqKirKdOUGFChXS8ePHFRQUxMXJAAAAAMCHbdmyxfxvYXWb3bt3q2LFikmPfGfOnNlp0qSJ7byJOnXqlJYtW2Y7BgAAAAAgjRYuXGg7QqLy5cunChUq/OP3PIn9gdatW9vOnKSvv/7adgQAAAAAQBotWLDAdoRENWzY8B8XJJOSKNS+cB71jBkzdPbsWa72DQAAAAA+6vLly2bt2rW2YyTqRreXTrRQly9f3ilXrpzt3ImKjo7W2LFjbccAAAAAAKTSokWLFBMTYztGolJcqCXfWKX++uuvZRK6uhoAAAAAwNXcfgenzJkzq3bt2v/6/SQL9d133207e5J2797t+huAAwAAAAD+LSoqysybN892jETVrVtXoaGh/7q7VJKFunHjxipUqJDt/EkaNWqU7QgAAAAAgBSaO3euIiMjbcdI1I3GvaVkFOqgoCCnc+fOtvMnaerUqTpz5gxj3wAAAADgQyZPnmw7QpJatmx5w99PslBL0r333ms7f5KuXbum4cOH244BAAAAAEimy5cvG7ffLitHjhypX6GW/ljeLlq0qO3nkaQvvvhCV69eZZUaAAAAAHzA7NmzdfXqVdsxEtW8eXNlypTJudH/S1ah9ng8TpcuXWw/jySFh4fru+++sx0DAAAAAJAM3377re0ISUrszldOcu82tW7dOlO/fn3bzyVJ5cuX1+7du+XxeJy0fzcAAAAAQHo4dOiQKVeunOLj421HSdThw4dVsmTJ1K9QS9Ktt96qUqVK2X4uSdq3b59mz55tOwYAAAAAIBGjRo1yfZmuWrVqgmVaSkGhdhzHJ8a+JemTTz6xHQEAAAAAkIDY2FjjC6frJjbuLaWgUEvSww8/LMdx/yT1mjVrtHTpUi5OBgAAAAAuNG/ePJ08edJ2jCR5tVBXqlTJSehy4W4zcOBA2xEAAAAAADfw9ddf246QpDx58ui2225L9GtSVKglqXfv3rafV7KsXbtWCxcuZJUaAAAAAFxk3759Zv78+bZjJOmee+5RSEgzGtVRAAAyvElEQVRIoiPaKS7UXbp0Ue7cuW0/t2R59dVXZZJ7GXMAAAAAQLr79NNPXX8xMkm69957k/yaFBfqLFmyOPfdd5/t55YsmzZt4orfAAAAAOASZ8+eNWPGjLEdI0n58+fX7bffnuTXpbhQS1KfPn1sP79ke/XVVxUfH88qNQAAAABY9sUXX+jq1au2YySpc+fOCg4OTvKK3Kkq1DVq1HDq1q1r+zkmy/bt2zVp0iTbMQAAAAAgoF29etUMHz7cdoxkSc64t5TKQi35zsXJJGnAgAGKiopilRoAAAAALBkzZozOnj1rO0aSChcurMaNGyfra1NdqLt166ZcuXLZfq7JcuzYMX300Ue2YwAAAABAQIqOjjYffvih7RjJ0rlzZ3k8niTHvaU0FOrs2bM7ffv2tf1ck+3jjz/WsWPHWKUGAAAAgAw2evRoHT582HaMZOnZs2eyv9ZJy12lTpw4YUqXLq3o6GjbzzlZunfvru+//z5ZnzQAAAAAANLu2rVrpnz58jp+/LjtKEmqUaOGtmzZkuzOmOoVakkqUqSI061bN9vPOdkmTpyoVatWsUoNAAAAABnkq6++8okyLaX8jlZpWqGWpK1bt5patWoprd8no9SuXVvr169XUFAQK9UAAAAAkI6ioqJM2bJlderUKdtRkpQ1a1b9/vvvypUrV8asUEt/3EKrZcuWtp97sm3atEmff/657RgAAAAA4PeGDRvmE2Va+uNiZCkp05IXVqgladGiRaZVq1a2n3+yZc2aVdu2bVOZMmVYpQYAAACAdHDmzBlTsWJFXbhwwXaUZFm9erUaNmyYoo6Y5hVqSbrjjjucWrVq2X7+yRYVFaXevXvL+MqcOgAAAAD4mFdffdVnynSlSpXUoEGDFP85rxRqSXrmmWdsvwYpsnTpUo0bN852DAAAAADwO1u2bDHffPON7RjJ1qdPHzmOk+IJZq+MfEtSXFycqVq1qvbs2WP7tUi2vHnzaufOnSpQoACj3wAAAADgJS1btjSLFy+2HSNZsmXLpiNHjihv3rwp7oVeW6EOCgpyBg4caPu1SJGIiAj179/fdgwAAAAA8Bs//PCDz5RpSXrkkUdSVaYlL65QS3+sUteoUUM7d+60/ZqkyIQJE3TfffexSg0AAAAAaRAVFWWqVaumQ4cO2Y6SLMHBwdq3b59KlSqVqj7otRVq6Y9V6jfeeMP2a5Ji/fr10+HDh7lAGQAAAACkwWuvveYzZVr641ZZqS3TkpdXqCXJGGNuvvlmbd682fZrkyINGzbUihUrFBQUxEo1AAAAAKTQ5s2bzS233KLY2FjbUZJt/fr1qlu3bqo7oFdXqCXJcRyfXKVes2aN3n//fdsxAAAAAMDnxMbGmkceecSnynTTpk3TVKaldCjUktShQwfn1ltvtfOqpMGbb76pdevWMfoNAAAAACnw8ccf69dff7UdI0X++9//pvl7eH3k+08//vijad26dUa/JmlWrlw5bdq0STlz5mT0GwAAAACSsG/fPlOzZk1dvXrVdpRkq1KlirZv356qe0//XbqsUEtSq1atnFatWmX8K5NG+/fv1/333y+TXp80AAAAAICfiI2NNQ888IBPlWnpj4unpbVMS+lYqCVp8ODBCgkJybhXxUvmzJnD+dQAAAAAkIQ333xTP//8s+0YKVKtWjV16dLFK98rXQt15cqVnb59+2bIi+JtAwcO1IIFC1ilBgAAAIAbWLNmjfHFhci3335bHo/HK6f4pts51H86f/68KV++vCIiIjLkxfGmPHnyaMOGDSpTpgznUwMAAADA/7l48aKpVauWDh8+bDtKitSuXVsbNmzwyri3lM4r1JKUO3du5/XXX0//VyYdnDt3Tp06dVJUVBQr1QAAAADwf/r16+dzZVr6Y3XaW2VayoAVaumPE9Vr1qypnTt3pvtjpYcePXpo3LhxXn3hAQAAAMAXjR492jz66KO2Y6RY/fr1tXbtWq92unRfoZak4OBg5/PPP8+Ih0oXEyZM0BtvvGE7BgAAAABYtXnzZvPkk0/ajpEqb7/9tte/Z4asUP+pffv2Zs6cORn2eN72zTff6KGHHmKVGgAAAEDACQ8PN7Vr19bRo0dtR0mxFi1a6KeffvJ6l8vQQn3kyBFTrVo1XblyJcMe05tCQkI0b948tWzZklINAAAAIGDEx8ebO++8Uz/++KPtKCkWFBSk3377TdWrV/d6j8uQke8/lSxZ0kmPZfaMEhMTo86dO2vr1q1cpAwAAABAwHj55Zd9skxL0uOPP54uZVrK4BVqSYqLizMNGzbU+vXrM/RxvalkyZJau3atihQpwko1AAAAAL82efJk0717d2V0d/SGPHnyaO/evcqbN2+6dLcMXaGWpKCgIGfUqFHKlClTRj+01xw5ckRNmzbV6dOnfe8dBQAAAADJtHr1avPggw/6ZJmWpDfffDPdyrRkoVBLUvXq1Z0XXnjBxkN7zd69e9WqVSudO3fON99ZAAAAAJCIgwcPmnvuuUfXrl2zHSVVKleurL59+6brY2T4yPefrl+/bm6++WafvTf1n2699Vb99NNPypEjB+PfAAAAAPxCRESEadCggfbu3Ws7SqotXLhQrVq1SteeZmWFWpJCQ0Odr776Sh6PtQhesX79enXo0EFXr15lpRoAAACAz7t27Zrp0KGDT5fpDh06pHuZliwWaklq1KiR8/jjj9uM4BXLli1T586dFR0dTakGAAAA4LNiY2PNfffdpzVr1tiOkmo5c+bU0KFDM+SxrC8Pf/LJJ6pevbrtGGk2f/58dezYkZVqAAAAAD7JGGP69u2rGTNm2I6SJu+//76KFy+eIafkWjuH+u+2b99ubrnlFp892f3vGjdurLlz53JONQAAAACfYYwx/fr104gRI2xHSZN69eppzZo18ng8GdLHrK9QS1K1atWct956y3YMr1i5cqWaNWumiIgI+59UAAAAAEAyDBgwwOfLdKZMmTR69OgMK9OSSwq1JD333HNq3ry57RhesXHjRrVs2VJnz56lVAMAAABwtTfffNN89NFHtmOk2SuvvKIqVapk6KSwK0a+//T777+bmjVrKiIiwnYUr6hSpYp++uknFSlShPFvAAAAAK4zcOBA884779iOkWbVqlXTpk2blClTpgztXq5ZoZakokWLOiNHjrQdw2t27typ+vXra/v27e751AIAAABAwDPGmGeeecYvynRQUJBGjRqV4WVaclmhlqROnTo5jz76qO0YXnP06FE1aNBACxYsoFQDAAAAsC4uLs706dNHn332me0oXvHKK6+oXr16VqaCXTXy/aeoqCjToEEDbdmyxXYUrwkJCdFXX32lhx56iPFvAMC/HDp0yPz0009avXq1du3apcOHD+vKlSuKjY1Vjhw5VLx4cVWoUEENGzZUy5YtVbVqVfYnAIAUi4mJMb169dKkSZNsR/GKevXqadWqVQoODqZQ/92BAwfMLbfcovPnz9uO4lUDBw7Um2++KcdxOBACgAAXHR1tJkyYoK+//lpr165N0Z+tWbOm+vTpo0ceeUShoaHsUwAASYqMjDTdunXT3LlzbUfxihw5cmjz5s0qU6aMtf2gawu1JM2fP9+0a9dO8fHxtqN4VY8ePTRq1ChlyZKFAyAACEDGGDNu3Di9+uqrOnbsWJq+V9GiRfXhhx+qR48e7FMAAAk6efKkadeunTZt2mQ7iteMGTNGvXr1srr/c3Whlv64hPsbb7xhO4bX3Xzzzfrhhx9UqlQpDoAAIIAcPXrU9OrVSytWrPDq973rrrs0ZswY5c2bl/0KAOAfduzYYe666y4dOXLEdhSv6dq1qyZNmmR9n+f6Qh0fH286dOjgN2MJf5c3b159//33uuOOO6y/EQAA6W/hwoWmR48eOnfuXLp8/9KlS2vu3LkZfg9OAIB7LVmyxNxzzz26ePGi7SheU6JECW3ZskW5cuWyvr9z3VW+/xXQ43HGjRuncuXK2Y7idREREbrzzjv13nvvGeP2TzYAAGkyduxY0759+3Qr05J06NAhNW3aVNu2bWOfAgDQ6NGjTZs2bfyqTAcHB2v8+PGuKNOSDxRqScqVK5czffp0ZcuWzXYUr4uLi9Mrr7yi9u3b68KFCxwAAYAf+vrrr81DDz2kmJiYdH+sM2fOqEmTJtq0aRP7FAAIUNevXzf9+/c3jz76aIbsezLSxx9/rNtuu80VZVrygZHvv5s2bZrp2rWr312k7E9ly5bV+PHjrd1DDQDgfV999ZV5/PHHldH723z58mnJkiWqUaMG+xQACCDHjx83nTt31vr1621H8bpu3bpp4sSJrtqv+cQK9Z86d+7sfPDBB7ZjpJsDBw7otttu04ABA0xMTIzvfNIBALihr7/+2vTr1y/Dy7QkhYeH6/bbb2elGsD/a+/eo6yq77sBf88w43C/yMXiJYIJCgZYVVBBAVniBaNUxWJAK4oCYxG1IemK0WrykjZVK0bUCghao60IauItiIHUaIKxBVRuIjVGwFsQFIMIyG2/fyS61HiBzczsc/Z5nrW+K8u1wsxn5pyzf+czv733oYw89dRTyRFHHJHLMt25c+e47bbbso7xF0pqh/pDf//3f59Mnjw56xh1qk+fPnH33Xe7CzhAicpqZ/rT7FQD5F+SJMn1118fV1xxRWzfvj3rOLWuRYsWMX/+/OjUqVPRrWUlWah37NiRDB48OB5++OGso9Sp5s2bxy233BLnnntu0T1xAPh806ZNS2pqaormEqVWrVrFnDlzokePHtYTgJxZs2ZNcsEFF8SsWbOyjlInCoVC3H///TF48OCiXMNK6pTvDzVo0KDwX//1X3HYYYdlHaVObdiwIYYPHx5Dhw5N3nrrrdL7ywdAGZoyZUoyevTooinTERHr16+PgQMHxuLFi60lADny4IMPJl27ds1tmY6IuPLKK4u2TEeU6A71h954442kV69e8eqrr2Ydpc61bt06JkyYEOedd17RPpkAyl2xnOb9eZz+DZAPmzZtSsaNGxdTpkzJOkqdOuOMM+L++++PioqKol23SrpQR0QsXrw46du3b2zYsCHrKPXixBNPjMmTJ0fHjh2L9kkFUI6KvUx/SKkGKG1PP/10csEFF8SKFSuyjlKnjjzyyHjiiSeicePGRb1eleQp3x/XvXv3wkMPPRSNGjXKOkq9+MUvfhHdunWLH//4x8mOHTuK+10bQJkolTId8ae7fw8YMMDp3wAl5r333ksuueSSpG/fvrkv0x07doyHH3646Mt0RA52qD/02GOPJaeffnps3bo16yj15vDDD4+JEydGnz59iv6JBpBXpVSmP85ONUDpePTRR5MxY8aUxaWurVq1iqeffjo6d+5cEutTye9Qf+jkk08uTJ8+PSorK7OOUm+effbZ6NevXwwdOjRZvXp1ab2TA8iBUi3TEXaqAUrBmjVrkqFDhyaDBg0qizJdXV0dP/vZz0qmTEfkqFBHRAwePLjwH//xH1FRkasf6wslSRIzZsyIzp07x+WXX56899573hgB1INp06YlY8aMKcky/aF169ZF//79Y+HChaX7QwDk0LZt25KJEycmhxxySMyYMSPrOPWiUCjEbbfdFscee2zJlOmIHJ3y/XGlvGOwp/bff/+45pprYtiwYUV9NzyAUpa3dcbp3wDF45FHHkm+/e1vx0svvZR1lHr1ox/9KL73ve+V3DqUy63cmpqawo033ph1jEy89tpr8Xd/93fRrVu3uO+++5IkL+/2AIpEHnamP81ONUD2VqxYkZxyyinJ3/zN35Rdmf7Wt75VkmU6IqeFOiLi0ksvLfzzP/9z1jEy88ILL8RZZ50VRxxxRMyaNcsbJIBaMGXKlGT06NGxc+fOrKPUuvXr18fAgQNdUw1Qz1avXp2MHj066dq1a8yaNSvrOPVu7NixccMNN5RkmY7I6SnfH3fLLbckl156aa52EtLo1atXXHHFFTFo0KCSfbICZGnatGlJTU1NLsv0x7Vq1SrmzJkTPXr0sF4A1KG33norueGGG2LixImxZcuWrONkYvjw4fHne2CV7JqT+0IdETFp0qRk7NixuX8TtCuOPvro+M53vhOnnXZaST9xAepT3q6Z/jKuqQaoO2+99VZyzTXXxOTJk2Pz5s1Zx8nMWWedFffcc080aNCgpNeasijUERF33XVXcsEFF8SOHTuyjlIUOnXqFOPGjYvzzjsvGjVqVNJPYoC6VG5l+kNKNUDteuWVV5Ibb7wxbr/99nj//fezjpOpU089NX76059GVVVVya8xZVOoIyIeeOCB5Oyzz46tW7dmHaVotG3bNsaMGRMXX3xxtG3btuSf0AC1qVzL9IeUaoA9N3/+/OT666+PBx54wOZeRJx44onx0EMPRcOGDXOxtpRVoY6ImDVrVvK3f/u3ZX16xWdp2LBhDBkyJEaOHBn9+vXLxZMbYE+Ue5n+kFINsPt27tyZ/PznP48JEybEk08+mXWconHaaafFjBkzorq6OjdrStkV6oiIX/3qV8mgQYNi48aNWUcpSoccckiMGjUqhg8fbtcaKEvK9Ccp1QC75rXXXkvuuOOOuOOOO2LVqlVZxykqw4YNi7vuuisqKytztZaUZaGOiHjuueeSU089Nd54442soxStvfbaK04//fS48MILY8CAASV/wwCAXaFMfzalGuCzbd++PXn00Udj2rRpMXv2bKd1f4aRI0fGlClTcnlT5LIt1BERr776anLKKafEkiVLso5S9PbZZ58488wz45vf/Gb06dMnly8GAGX6iynVAH+SJEnyv//7vzFz5syYPn16vPnmm1lHKlr/8A//EDfccEMUCoVcrh1lXagjIjZu3JgMHTo0fv7zn2cdpWS0adMmBg8eHOeee24cc8wxuX1xAOWlXD5nek/5nGqgnC1btiy577774p577omXXnop6zhF77vf/W5cc801uV4vyr5QR0Rs27YtGTNmTEybNi3rKCXngAMOiG984xsxcODAGDBgQDRr1izXLxggn+xM7x471UC52LZtWzJv3ryYPXt2PPDAA/G73/0u60gloaKiIq6//vr41re+lft1QqH+mIkTJybjxo2zO5FSgwYN4q//+q/j1FNPjUGDBsXhhx9u9xooenam07FTDeTVmjVrkscffzweffTRmDNnTrz77rtZRyop1dXVceedd8bQoUPLYn1QqD/l3nvvTUaMGBFbtmzJOkrJ22+//eLYY4+No48+Ovr06RNdu3Z1YzOgqNiZ3jN2qoE8WLVqVfKb3/wmnn766XjyySdj2bJlWUcqWe3atYuHHnooevXqVTbrgkL9GRYsWJCceeaZsXr16qyj5Erz5s2jd+/eccwxx8QxxxwTPXr0iBYtWpTNiw0oLsp07VCqgVKyadOmZNmyZfHMM8/EvHnzYt68efHaa69lHSsXDjnkkJg1a1YcdNBBZbUeKNSfY926dcmwYcNi7ty5WUfJtQ4dOkS3bt2iW7du0b179+jevXt06tQpd59PBxQXZbp2KdVAsdmxY0eycuXKWLRoUSxdujSWLFkSixYtipdfftklPnWgX79+8bOf/Sz23nvvslsHFOovsGPHjuTKK6+M6667zpuuelRdXR2dO3eODh06RMeOHT8xHTp0iKZNm5bdCxWoPcp03VCqgfr07rvvJmvXro21a9fGypUr45VXXvnE/65evTq2bduWdcyycM4558Ttt98e1dXVZXn8V6h3wU9/+tNkxIgRsWHDhqyjEBFt27aNffbZJ1q3bh2tW7eOtm3bRps2bT7679atW0d1dXVE/OmmORF/KumNGzfOOjp8QsOGDaNRo0bRqlWrslyAsqBM1y2lun6sWrUqefHFF2P16tXxzjvvZB0HasXmzZs/uofRu+++G0mSxNatW+P999+Pbdu2xdtvv/2J2b59e9aRy15lZWVce+21MW7cuLI+5ivUu+jFF19MBg8eHMuXL886CpAzDRo0iA4dOkSXLl2ib9++cfzxx8fhhx9e1otTXVCm64dSXft27NiRzJkzJ+69996YO3duvP7661lHAspcu3btYsaMGdG/f3/H+iRJzC7Ohg0bkmHDhiURYYwxdTpdunRJJkyYkLz33ntJ1se+PMzkyZOTQqGQ+eNaLtOmTZtk0aJFnrt7OJs3b05uuumm5MADD8z8MTXGmA+nV69eyauvvuoY/+fJPEApzk9+8pOkefPmmT+ZjTH5n7333ju56aabku3bt1u4Uo4ync0o1Xs2s2bNSr761a9m/jgaY8zH56KLLkq2bNni2P6xyTxAqc7vf//7pHfv3pk/qY0x5TE9e/ZMXnrpJQvYbo4yne0o1bs/W7ZsSS655BLPW2NMUU3Dhg2TO+64w/H8MybzAKU827ZtS77//e8nlZWVmT/JjTH5n+bNmyezZs2ymO3iKNPFMUr1rs+GDRuS4447LvPHzBhjPj5du3ZNFi9e7Dj+OZN5gDzM008/nXTs2DHzJ7sxJv9TVVWVTJ8+3aL2JaNMF9co1V8+GzduTHr16pX5Y2WMMR9OoVBILrnkkmTz5s2O318wmQfIy/zxj39Mhg8fnvkT3xiT/6mqqkoee+wxi9vnjDJdnKNUf/7s2LEjOfnkkzN/jIwx5sPZZ599nBW3i5N5gLzNrFmz3I3TGFPn07Rp02TFihUWuk/N1KlTk4qKiswfH/PZ06pVq2TBggWet5+aH/zgB5k/NsYY8+GceOKJyRtvvOFYvYvjc6jrwMaNG5Mrr7wybrnllti5c2fWcYCcOuKII+K3v/1tNGjQwGdAhs+ZLhU+p/qTnn/++aRnz56xY8eOrKMAZa5Ro0Zx3XXXxcUXXxyFQsExehdVZB0gj5o2bVqYOHFiYd68edG1a9es4wA5NX/+/Jg8eXLWMYqCMl061q1bFwMGDIjFixd7sCJi7NixyjSQueOOOy4WL14cY8eOLSjTu8cOdR3bunVrcs0118SPfvSj+OCDD7KOA+RMmzZtYuXKldGkSZOyXfyU6dJkpzpi7ty5yQknnJB1DKCMtWrVKq6//voYMWKEXemU7FDXsb322qtw9dVXF5577rno27dv1nGAnFm3bl1MnTo16xiZUaZLl53qiAkTJmQdAShjQ4YMiRdeeCEuuOACu9J7wA51PXvkkUeSyy67LF555ZWsowA50aVLl3jhhRfKbiGcNm1aUlNT414VJa5Vq1YxZ86c6NGjR1k9h998883kgAMOcLo3UO/at28fN998c5x55pllddytK3ao69mgQYMKy5Yti/Hjx0eTJk2yjgPkwPLly2PRokVl9dfRKVOmJKNHj1amc2D9+vUxcODAstupfvDBB5VpoF5VVVXFpZdeGsuXL1ema5FCnYFGjRoVrrrqqsL//d//xejRo6OiwsMA7Jk5c+ZkHaHeTJs2LRkzZozTvHNk3bp10b9//1i4cGHZPKhPPPFE1hGAMjJgwIBYuHBhTJw4sdCiRQtluhZpchnad999C1OmTCnMmzcvjjrqqKzjACXs17/+ddYR6oWd6fwqt53qBQsWZB0BKAOdOnWKRx55JObOnVvo1q2bIl0HFOoi0KtXr8Jvf/vbuOeee+Lggw/OOg5QgpYvX551hDrnBmT5Vy43KtuyZUuyatWqrGMAOdaiRYv4t3/7t1i6dGmceuqpinQdclOyIrN9+/bkP//zP2P8+PFuXAbsssrKyvjggw+ioqIil4umMl1e8v6RWitXrkw6duyYdQwgh6qqquKCCy6I8ePHR7t27XJ5DC02dqiLTGVlZeH8888vrFixIn7yk5/EQQcdlHUkoARs3749Nm3alHWMOuGa6fKT92uqN27cmHUEIGcqKipiyJAhsWzZspg8eXJBma4/CnWRqqqqKgwfPrzwwgsvxM033xz77rtv1pGAIvf+++9nHaHWuWa6fOX5mmrPZ6C2VFRUxNChQ2PZsmUxc+bMQqdOnRTpeqZQF7nq6urC2LFjC7/73e/ixz/+cXzlK1/JOhJQpBo3bpx1hFrlNG/yek1106ZNs44AlLhCoRBnnHFGPP/88zF9+vRC586dFemMuIa6xGzbti257777YsKECfHss89mHQcoEnm7hlqZ5uPydk31e++9lzRv3jzrGEAJqqioiDPOOCO+973vRY8ePXJxTCx1dqhLTFVVVeHss88uLFy4sPDrX/86Tj311CgUvJag3B100EG5KdOumebT8nZNdbNmzQrt27fPOgZQQqqrq+Pcc8+NZcuWxf33319QpouHQl3C+vTpU3jkkUcKS5cujQsvvDCqq6uzjgRkpHPnzllHqBWumebz5O2a6sMOOyzrCEAJaNeuXfy///f/4rXXXou77rrLqd1FSKHOgUMPPbQwbdq0wsqVK+OHP/xh+CgOKD/9+vXLOsIec5o3XyZP11Qfe+yxWUcAitjBBx8ckydPjlWrVsXVV19daNOmjSJdpFxDnUM7d+5M5s6dG9OmTYuHHnootm7dmnUkoI4tWrSopK8vVabZHXm4pvrFF19MunTpknUMoIhUV1fH6aefHqNGjYrjjjsuCq7rLAkKdc6tXbs2ueuuu2LatGnx4osvZh0HqANf//rXY+nSpSW76CrTpJGHUn3kkUcm8+fPzzoGkLHOnTvHqFGjYvjw4WEnuvQ45Tvn2rZtW/j2t79dWL58eeGpp56K8847L9xZFPJl1KhRWUdITZkmrTyc/n3ZZZdlHQHISKNGjWL48OHx1FNPxfLlywvjxo1zWneJskNdhrZs2ZI8/vjjMXPmzHj44Ydj48aNWUcCUmrbtm2sXLkyGjduXHKLsDJNbSjlnert27cnhx56aLz00ktZRwHqQVVVVRx//PHxzW9+M04//fRo0aJFyR23+EsKdZnbsmVLMmfOnLjvvvviwQcfjPfeey/rSMBumDRpUlx00UUltyBPmzYtqampcTdvakWrVq1izpw5JfmZrL/4xS+Sk046KesYQB2pqKiI3r17x5AhQ2LYsGHRrl27kjtO8SWSJDEmkiSJ999/P5kxY0YyZMiQpGXLlklEGGOKeHr16pXs2LEjyfrYsbszefLkpFAoZP77q4upqanJPMMXzejRo3P7u2/Tpk2yaNGikns9JEkS5513Xua/P2NM7U1lZWXSv3//5NZbb03WrFlTkscls+tjh5rPtH379uSZZ56J2bNnx+zZs+PZZ58NzxUoHi1btoxnn302OnbsWFJ/6c7zad41NTUxadKkqKgo3tuTLFiwIObPnx9jxozJ5WNQqqd/v//++8lRRx0Vy5YtyzoKkNK+++4bAwcOjJNPPjmOP/74aNmyZUkdh9gDWTd6Uxqzdu3aZObMmcno0aOT9u3bZ/6XP2PKeaqqqpLZs2cnWR8XdnemTp2aVFRUZP77q4sZOXLkR2cLZJ3li2bBggVJ3h+LVq1affRzltK89tpryYEHHpj5788Ys2vToEGDpEePHsn3v//9ZMGCBcnOnTtL7rhjamfsULPbdu7cmSxcuDDmzZv30bz55ptZx4KysNdee8Xdd98dZ511Vkn95bscdqY//LzQP59SXZQWLFjw0XXGkydPTuxUF5eXX345Oemkk+Lll1/OOgrwKQ0bNoyePXtGnz594phjjom+ffu6qRgR4aZk1JJXXnkl+XjBXrZsmZsNQS1r2bJlzJw5M0444YSSWsDLqUxHlE6hjlCqi9GaNWuSYcOGxRNPPJF1FChrrVu3jmOOOeaj6dmzZ1RXV5fU8YT6oVBTJ/74xz8mzzzzTCxatCiWLFkSS5YsieXLl8fWrVuzjgYlqVevXnHPPfe4ZrqIfFaZjiitQh2hVBejHTt2JNdff32MHz8+Nm3alHUcyLVCoRAdOnSI7t27R7du3aJ79+7RvXv3OPjgg//i+A6fRaGm3mzbti1ZsWJFLF26NBYvXhxLliyJpUuXxsqVK7OOBkWrbdu2MX78+Bg9enRUVFSU1MJejmU6ovQKdYRSXaxWr16djB8/Pu6++25/kIY9VFVVFfvvv3907NgxDjnkkI+Kc9euXaN58+Yld3ygeCjUZG7Lli3JqlWrYuXKlZ85f/jDH7KOCPXu61//eowaNSpGjRoVjRs3LrmFvlzLdERpFuoIpbqYvf7668ndd98dM2bMiEWLFuXyMYI91bp162jdunW0bds2DjrooOjQoUN07NgxOnbsGB06dIj9998/KisrS/IYQHFTqCl6mzdvTlavXh3r1q2Ld955J95+++2PZt26dZ/4702bNsWmTZvigw8+iIiIDRs2xI4dO7L+EeALVVZWRseOHaNLly7Rr1+/OOGEE0r2jX9EeZfpiNIt1BFKdSlYu3ZtMm/evHjxxRdj9erV8fbbb+fy8aK8tWzZMgqFQuy1117RpEmTiIho1qxZVFVVRZs2bT4qzx+fBg0alPRrm9KlUFMWkiRJ3n333YiI2LZtW2zcuDHrSBANGzaMJk2a5OouoeVepiNKu1BHKNUAsDsUagBqxbRp05Kamppc3uF/5MiRMWXKlF26jr3UC3VEvh/LVq1axZw5c3bp9wAAX6Yi6wAAlL48F7DdKdN5MXLkyMKff+aso9S69evXxwknnBALFy4s2j98AFA68rdSAlCvlOl8UqoB4Mvlb5UEoN4o0/mmVAPAF8vfCglAvVCmy4NSDQCfL3+rIwB1TpkuL0o1AHy2/K2MANQpZbo8KdUA8JfytyoCUGeU6fKmVAPAJ+VvRQSgTijTRCjVAPBx+VsNAah1yjQfp1QDwJ/kbyUEoFYp03wWpRoAFGoAvoAyzRdRqgEod/lbAQGoFco0u0KpBqCc5W/1A2CPKdPsDqUagHKVv5UPgD2iTJOGUg1AOcrfqgdAaso0e0KpBqDc5G/FAyAVZZraoFQDUE7yt9oBsNuUaWqTUg1AucjfSgfAblGmqQtKNQDlIH+rHAC7TJmmLinVAORd/lY4AHaJMk19UKoByLP8rW4AfCllmvqkVAOQV/lb2QD4Qso0WVCqAcij/K1qAHwuZZosjRw5snDbbbcp1QDkRv5WNAA+kzJNMbjwwguVagByI3+rGQB/QZmmmCjVAORF/lYyAD5h8uTJyejRo3NZpmtqauLPxUyZLjEXXnhh4dZbb41CIX8P3fr162PgwIGxePFipRog5xRqgBy7/fbbk4svvjiSJH/v60eOHBl/LmT5a2RloqampjB16tRc7lSvW7cujj/++Fi+fHn+XnwAfCR/KxgAERExffr0ZNSoUXamKWp53qleu3ZtDBw4MNauXatUA+SUQg2QQ88//3wycuTIXO5M19TUxKRJk+xM50hNTU3hz49p1lFq3erVq+Pcc8+NJI8vRgAUaoC82b59ezJixIjYtGlT1lFqndO88yvPp38//vjjcccdd2QdA4A6kL9VC6DMTZgwIZ5//vmsY9Q6p3nnX55P/7788stjw4YNdqkBckahBsiRjRs3JhMmTMg6Rq2zM10+8rpTvW7dupg0aVLWMQCoZflarQDK3B133BFr167NOkatsjNdfvK6U33zzTfHzp077VID5IhCDZAjd955Z9YRapUbkJWvPN6o7PXXX49f/epXWccAoBYp1AA58eqrrybPPfdc1jFqjdO8yePp34899ljWEQCoRflZoQDK3H//939nHaHWOM2bD+Xt9G871AD5olAD5MTixYuzjlAr7EzzaXnaqV62bJnrqAFypPRXJgAiIuLll1/OOsIeszPN58nLTvXmzZvjzTffzDoGALVEoQbIiXfeeSfrCHvEzjRfJi871evXr886AgC1pLRXJAA+8sEHH2QdIbWLLrrIzjS7JA871Zs2bco6AgC1RKEGyInGjRtnHSGVkSNHxr//+7/bmWaXlfpOdZMmTbKOAEAtKc2VCIC/0LZt26wj7DY706RVyjvVe++9d9YRAKglCjVAThx88MFZR9gtdqbZU6W4U92oUaP4q7/6q6xjAFBLSmcFAuALHXbYYVlH2GV2pqktpbZT3bVrV39EAsgRhRogJ/r3718SO3UXXXSRu3lTq2pqagqTJk0qiVLdp0+frCMAUIuK/50XALukdevWhWJ/s+40b+pKqZz+/Y1vfCPrCADUouJedQDYLcOHD886wudymjd1rdhP/27btm30798/6xgA1CKFGiBHzjnnnGjfvn3WMf6CnWnqSzHvVI8ePToqKyu9BgBypPhWGwBSa9iwYeE73/lO1jE+wc409a0Yd6obNWoUF198cdYxAKhlCjVAzlx66aXRrVu3rGNEhJ1pslNsO9Xjxo2L9u3bex0A5ExxrDIA1JrKysrC5MmTo7KyMtMcdqbJWrHsVHfs2DG++93vZv3rAKAOKNQAOXT00UcX/uVf/iWz7++jsSgWWX+kVoMGDeLOO++MZs2aeS0A5JBCDZBT//iP/xgjR46s9+/rNG+KTZanf1933XXRr18/rwWAnFKoAXKqUCgUJk2aFGeeeWa9fc9LLrnEad4UpQsvvLBw++23R3V1db19z8suuyzGjRvntQCQYwo1QI5VVlYWpk+fHkOGDKnT71MoFOKHP/xh3HTTTQU70xSr888/v/Dkk0/GV77ylTr9Pg0aNIh//dd/jRtvvNFrASDnFGqAnKuqqirce++9cdVVV9XJdaRt2rSJRx55JP7pn/5JeaDoHXXUUYUlS5bE6NGj6+QU8AMOOCDmzp0bl19+udcDQBlQqAHKQEVFRWH8+PGFX/7yl/G1r32tVr5moVCIc889N5YsWRKnnHKK8kDJaN68eWHKlCmFBQsWxEknnVQrX7NZs2Zx1VVXxfLly6N///5eDwBlopAkSdYZAKhHW7ZsSaZOnRrXXnttvP7667v97ysqKuK0006LK664Inr27Kk4fEqhUCjahXXBggXRo0cPj9mnLFmyJJk0aVI88MAD8dZbb+3Wvz388MPj7LPPjpEjR0aLFi38bgHKjEINUKa2b9+ePP744zFz5syYO3duvPHGG5/7/23YsGH07t07Tj755Dj77LNjv/32Uxw+h0Jdunbs2JHMnz8/fvOb38TixYvj97//faxbty62bdsWEREtW7aM/fbbL7761a9Gz549o2/fvvGVr3zF7xOgjCnUAERExBtvvJGsWLEi1q1bF++++240adIkmjZtGgcffHAcdNBBsddeeykOu0ChBoDyUZl1AACKw7777lvYd999s44BAFAy3JQMAAAAUlCoAQAAIAWFGgAAAFJQqAEAACAFhRoAAABSUKgBAAAgBYUaAAAAUlCoAQAAIAWFGgAAAFJQqAEAACAFhRoAAABSUKgBAAAgBYUaAAAAUlCoAQAAIAWFGgAAAFJQqAEAACAFhRoAAABSUKgBAAAgBYUaAAAAUlCoAQAAIAWFGgAAAFJQqAEAACAFhRoAAABSUKgBAAAgBYUaAAAAUlCoAQAAIAWFGgAAAFJQqAEAACAFhRoAAABSUKgBAAAgBYUaAAAAUlCoAQAAIAWFGgAAAFJQqAEAACAFhRoAAABSUKgBAAAgBYUaAAAAUlCoAQAAIAWFGgAAAFJQqAEAACAFhRoAAABSUKgBAAAgBYUaAAAAUlCoAQAAIAWFGgAAAFJQqAEAACAFhRoAAABSUKgBAAAgBYUaAAAAUlCoAQAAIAWFGgAAAFJQqAEAACAFhRoAAABSUKgBAAAgBYUaAAAAUlCoAQAAIAWFGgAAAFJQqAEAACAFhRoAAABSUKgBAAAgBYUaAAAAUlCoAQAAIAWFGgAAAFJQqAEAACAFhRoAAABSUKgBAAAgBYUaAAAAUlCoAQAAIAWFGgAAAFJQqAEAACAFhRoAAABSUKgBAAAgBYUaAAAAUlCoAQAAIAWFGgAAAFJQqAEAACAFhRoAAABSUKgBAAAgBYUaAAAAUlCoAQAAIAWFGgAAAFJQqAEAACAFhRoAAABSUKgBAAAgBYUaAAAAUlCoAQAAIAWFGgAAAFJQqAEAACAFhRoAAABSUKgBAAAgBYUaAAAAUlCoAQAAIAWFGgAAAFJQqAEAACAFhRoAAABSUKgBAAAgBYUaAAAAUlCoAQAAIAWFGgAAAFJQqAEAACAFhRoAAABSUKgBAAAgBYUaAAAAUlCoAQAAIAWFGgAAAFJQqAEAACAFhRoAAABSUKgBAAAgBYUaAAAAUlCoAQAAIAWFGgAAAFJQqAEAACAFhRoAAABSUKgBAAAgBYUaAAAAUlCoAQAAIAWFGgAAAFJQqAEAACAFhRoAAABSUKgBAAAgBYUaAAAAUlCoAQAAIAWFGgAAAFJQqAEAACAFhRoAAABSUKgBAAAgBYUaAAAAUlCoAQAAIAWFGgAAAFJQqAEAACAFhRoAAABSUKgBAAAgBYUaAAAAUlCoAQAAIAWFGgAAAFJQqAEAACAFhRoAAABSUKgBAAAgBYUaAAAAUlCoAaAWNWjQIOsIJZkNAEqRQg0AtahJkyZZR/hczZo1yzoCAOSKQg0AtWjvvffOOsLnatmyZdYRACBXFGoAqEVf+9rXso7wmZo3bx6tW7cuZJ0DAPJEoQaAWnTooYdmHeEzHXLIIVlHAIDcUagBoBb17t076wgllQsASplCDQC16Nhjj41CofjOrD766KOzjgAAuaNQA0Atat++feGoo47KOsYnVFVVxYknnph1DADIHYUaAGrZkCFDso7wCf369YtWrVoV37Y5AJQ4hRoAatnw4cOjYcOGWcf4yIgRI7KOAAC5pFADQC1r06ZNYejQoVnHiIiI1q1bx5lnnpl1DADIJYUaAOrAFVdcEZWVlVnHiEsvvTQaNmzodG8AqAMKNQDUgU6dOhXOP//8TDO0aNEiLrnkkqx/FQCQWwo1ANSRa665Jtq0aZPZ97/66qvdjAwA6pBCDQB1pHXr1oXrrrsuk+/dpUuXGDt2bNa/AgDINYUaAOrQiBEjCsOGDavX71lZWRl33nln7LXXXnanAaAOKdQAUMduvfXW6Ny5c719vx/84Adx5JFHKtMAUMcKSZJknQEAcu+VV15JevfuHWvWrKnT7zN48OC4//77o1AoKNQAUMcUagCoJy+88EJy/PHHx5tvvlknX79Pnz4xe/bsaNKkiTINAPXAKd8AUE8OPfTQwi9/+cs48MADa/1rDxgwQJkGgHqmUANAPerSpUthwYIFcdxxx9Xa1xw5cmQ89thjyjQA1DOFGgDqWZs2bQpz586NKVOmRLNmzVJ/nRYtWsSUKVNi6tSphaqqKmUaAOqZa6gBIEN/+MMfkmuvvTZuu+222LRp0y79m+rq6rjoooviyiuvjLZt2yrSAJARhRoAisCGDRuSBx54IB588MH4n//5n7+4G3jTpk2jV69eMWjQoDjnnHOidevWijQAZEyhBoAi9Pbbbydvv/12fPDBB9GmTZto165dNGjQQIkGgCLy/wHGPeMsQPsfYwAAACV0RVh0ZGF0ZTpjcmVhdGUAMjAxNy0wNi0xMlQwMzozNDozNSswODowMLa6LqIAAAAldEVYdGRhdGU6bW9kaWZ5ADIwMTYtMDQtMTZUMTU6Mzg6NDQrMDg6MDD7LmQgAAAAVHRFWHRzdmc6YmFzZS11cmkAZmlsZTovLy9ob21lL2RiL3N2Z19pbmZvL3N2Zy80Zi81Ny80ZjU3M2Y2MmE0YjEyZjQzMTQ3NTc0ZTFiODMxZDRjMS5zdmcrT/rnAAAAAElFTkSuQmCC;" vertex="1" parent="1">
          <mxGeometry x="60" y="40" width="127.73" height="110" as="geometry" />
        </mxCell>
        <mxCell id="ztNJ0AJeoRaNc8H2oBHc-2" value="&lt;p&gt;&lt;font style=&quot;font-size: 11px;&quot; face=&quot;Helvetica&quot;&gt;&lt;b&gt;API&amp;nbsp;&lt;/b&gt;&lt;/font&gt;&lt;b style=&quot;background-color: initial; color: rgb(33, 33, 33); font-family: UcgBsYb7lMRqZAamxWPc;&quot;&gt;Random User&lt;/b&gt;&lt;/p&gt;&lt;p&gt;&lt;/p&gt;" style="text;html=1;align=center;verticalAlign=middle;whiteSpace=wrap;rounded=0;" vertex="1" parent="1">
          <mxGeometry x="68.87" y="150" width="110" height="20" as="geometry" />
        </mxCell>
        <mxCell id="ztNJ0AJeoRaNc8H2oBHc-3" value="" style="shape=flexArrow;endArrow=classic;startArrow=classic;html=1;rounded=0;" edge="1" parent="1">
          <mxGeometry width="100" height="100" relative="1" as="geometry">
            <mxPoint x="220" y="90" as="sourcePoint" />
            <mxPoint x="330" y="90" as="targetPoint" />
            <Array as="points">
              <mxPoint x="280" y="90" />
            </Array>
          </mxGeometry>
        </mxCell>
        <mxCell id="ztNJ0AJeoRaNc8H2oBHc-4" value="" style="shape=image;verticalLabelPosition=bottom;labelBackgroundColor=default;verticalAlign=top;aspect=fixed;imageAspect=0;image=data:image/png,iVBORw0KGgoAAAANSUhEUgAAAtEAAAEKCAYAAADU2Al2AABYXklEQVR42u2de4xl1XXmb4MdjQzGjcxjAEHKeEDAhHGPuqMkTsYm/GEeQSZ0zMOWaOFucAjELtSykwYaAwZ7qgjdJjbVpscmJHJXgDhDYys93Y3jsWeicv6woom6NJpxYv6IrSixSohBVgshq1VT69TZt/fddz/W2o/zuPf7pM25XVTVPffcR/3Od7611mAAQRAEQRAEQRAEQdOoMzdfcdHg8T2HcSQgCIIgCIIgiKHTrtq0afDgk68Pnnr2VRwNCIIgCIIgCArovJvu2VoB9EOfPzH47LOv4YhAEARBEARBkA+gb79/VwXPaj39zE9xVCAIgiAIgiCIC9C0EOeAIAiCIAiCIAFAw4mGIAiCIAiCIIdue+C5MXh++I9W4URDEARBEARBkEVDB1pBM231BYiGIAiCIAiCIAFAA6IhCIIgCIIgyAHQvgWIhiAIgiAIgqA1ze68gQXQgGgIgiAIgiAIEgD04398olqAaAiCIAiCIGiaNZxEGAJnfQGiIQiCIAiCoGnVudfdfPWGh7/8BgucAdEQBEEQBEHQtOu0qzZtqmBYAs+AaAiCIAiCIGhatXFmZuMIQPuAeW5hdWwBoiEIgiAIgqBp0iOP7H/HYO/CD7zwbANnQDQEQRAEQRA0tXp8z2ErQIfAGRANQRAEQRAETaVue+C5JHgGREMQBEFQ87r3XYM7Z88cPMBd9P2xa/s7Bx+epHXTOwe7aLv1jMGv0qJMa3VZHoIEAH3qE3tWo+B5z38ZXYBoCIIgCGpOBMb3nX3K6qfPGljXQ2f712PnDN6i7fy56/+mLWd9+ZzxrXm7zeXaR/0xfPRdG1Y+esbaVlt3n/W2n1Vfr9fNpw+O0vrdMwcLBN20KuC+bGYGr77pVjXOe89Xj7MA2gRm2wJEQxAEQVCzIsDzgTQHplNBuksAzYVqF0i71o3vrLen11/TQFtBtnK08aqc9LPXnTdkg2e1/uS//i0OLARBEAQ1rD84a3DYB9A+kFbw3AZA7z8/bpsK0/ptCUiPwPQ7R9eHTz/5/3S4pigMnOvJ0dnX3HHt0IFOBWdANARBEAS1K3I/Hzt78BOXI53biXbFOXKDs1olwFrffylIm1BtwnQF1KefvE1LgTU51nCr+6mRYSq54BkQDUEQBEHdAOnSEB3rPLsg2QRm19fp33/+b/2/IxaqdZC+a2McTI8B9ekn14cti+6PnGqKgODV232ds2XLxRVAmw60EJZP+dLXhgsQDUEQBEFdAenLZmZsIB2KdKQ40SkA7QJkWurftLVBthSuOSvVkbY50zpMh4AasY/unqBWw1SEAK0Dc2gBoiEIgiCoZZGz6QJpjhvdBED7QNoEaBtIcwA7xqlWjrRyo1NcaZ8z7YJpWhT5oNZ7eCV3SCZAc53mha+P3XZ9DRANQRAEQR2QzZHmuNDSOEcIpl3grDvHIXDm/Nv3dRdcu4DaBdJSoOY40x8OwDSiHh0QTSNUAM2AZxOSR0DZWMOvI84BQRAEQf0FaWkuOsaJ1m/73GYbIJvb0PdwXGsXUIdAOtahjoVpvJq7C9Aup9kGzd4FiIYgCIKgDoG0UWyYI9LBjXNw4FkCzT545nzNvC8fUNOiY1ENX6mhOQdA+5xpH0gT0CMv3bBonDeBsgOgrZGMlAWIhiAIgqDugbTqI83tGc11oSVxDrMI0BfLsAGxb9m+zwXVkkz1Z84arCiAti0pVA/7SEe40gTS//7ywW14RZfX+jRCP0Bng2dANARBEAT1B6RTIx2xeeic4CxdoRiImdVW+01udAigpUCdkpemPtN4RTcA0E3BMyAagiAIgrqtRx7Z/w4OSCtQ9oG0JA9tc6BN17ckPHPA2gf4PpD2AXXKwBZOBw+8oksB9FePhzpuFFmAaAiCIAjqtrggnepGh4aqNOE+p0C1CdKq0LAxmA640gTSmHyYUbM7b3ABdLT7/NxB/78B0RAEQRDUL9Fgj5QCw9jiQhek+rLNbcO0FKRTIx4SmKaiURQcpuu8m+7ZagJ0tPusQNm1dcE0IBqCIAiC+qHZMwcPhIoMOQWGLpjmDlXpEjyHctSPnTN4KxTtyAXT3IgHFT9iOEu8zr3u5qsHTz/zU72IUAzPIXDmgDQgGoIgCIL6o3vfNbiTIKyUG20WF+YuJPyr88O3bf9OgWkJROeIefimHtKi76GTIbq6gFe0TKddtWnT4KlnXzUBOhmcfbddkQ5ANARBEAT1S+RipoA0F6J9re1KwLO6bW5zQHUMSKe0xPN18aB/33f2KdWivDty0jyds2XLxRVAS7PPLmjmLBtYA6IhCIIgqL+i8dKUr3UVF7pgmhvp8LW4ywHQ+tZc+tdDcC1xphVIE7zGAHXOLh70/xRI0/OIceF+VScaBkAXhWcfUKstIBqCIAiCegoW9Zjw2Gy0NNIRE+fgOM0uoDa/lupW663vFEhLgNqchJgU8XjnYHj/tOjKAkV18Kp2APTehR9EA3TuBScagiAIgiYDMCgSIGl5x4Vo36CVEg60b3Fd6xBQE6yaAC11pqV5aVcXD5WNpkX7gJy0Q4/vOczOP5eEZ9ONBkRDEARB0OSCdEyRoatLR2xhYSpASyE75EqTG60c4BSgTs1Lq583QRo5aTtAB/PPpQHahGlANARBEARNhvRe0qkTDE2QNiMdKU50SZj2RT98IB3rSqd28NDdaB2mkZM+CdDB+EaT8KwvQDQEQRAETRZIU29kLkhz3OgckY6SwCwBarVU/2jdAdYzyk3lpQmkTYhW+zTV/aRve+A51vCUNgAahYUQBEEQNJmioSwKpGMh2paNlkY6uAWEbUG1ykcraM3hTMeOD6fnyQbStKXnEwCdCaBffMW/hRMNQRAEQdMt6vRAIK270tJYh63dXWykIwf8fu+ivCCtYh0mtKqccmxeOmZQi55ltznTlJOehtftebffv+vUrzz7pspAO+FZAtAhcI4FaUA0BEEQBE2m1FCWXLGO1DZ3KeCsA7Tva9Kl2t7ZXOAmnWn6Hh2ibTBdFRxeNjMz9QAdA8/mbXNJYRqFhRAEQRA02dKHsqQUGeoAzR2+4isslLjOJjS7trEwTScaNvfXBtOpznTIjZ7/xXd4YXpiCw5nd94w2PPV41niGzZo9gF0LEwDoiEIgiAIIM3NR5tONBekc7vP+lZfIch2RTtCIO2LeeSKeNhGuJsgPZGDWTSAdkK0BKC5wByCacQ5IAiCIAhS0w0pI52Sj46JdcQUFpqQbAPm0JIAtSvW4XOmU1riuSIduhPtg+lJGcxy7nU3Xz14+pmfOiMckoLBXIvrRgOiIQiCIGhKQHpmZmMsSNsGr5TKRbsc6JTFAWqfG21CdApQu1xplYvWQToU7+jzYJbTrtq0afDUs696AToE0jnh2QfTgGgIgiAIAkgTeLmKDblFhjHZ6JgoRyo8c6BaCtK5Cw/1VT0PNTj7XOm+56TP2bLlYgLopPhGruhGbKwDEA1BEARB0wnSLkeaG+somY0uDdE2qKalWgK6OmRIiw+lRYf0cwTPw5Mchytt7lufBrNUznkKQJeEZjjREARBEASFFAJpbts7Scu70Njvppxonzut3GguTKfGO0ygVm70cCvISXd9MEsF0HsXfpAE0FKQ/tbfjG5zgTQgGoIgCIKmV1ScFpuP1qcZhkDabHdXsqjwWCJMq24dob7NJVxpKm4cPgcGSHNhuquDWR55ZP87CKCjM9Ap0Oy6nRLpAERDEARBEEBaGu0wQTp3rEMKz8cyw7QO0bGOtGqLJ4Fp1eruqfMtJzaerLS5f5ST7txglsf3HI4C6Fh4pq1tSUAaTjQEQRAEQT5RDMAG0rljHSlt7rggfczztWNMyFZFhpwIhWvpfaUlIE3fQxA9AtKaKy0B6c4UHKYAdAikTWh2AbTte+BEQxAEQRCUKhrg4QJpbv/oXCAtyUYfC9yOBWk6FqrQkNMlI1dvaYp0KIgec6SZMD0E6bX9b30wy20PPOccpJIC0CHHmbNCMA0nGoIgCIIgjqjDQxOOtASmYyIdxyJB+lgg1hED09J2eCZED2FaAbRRcOjLSqtYSWuDWVIAWuI+p4I0nGgIGurJ/fvPev4vX9miVlXPAEEQBDFB+uzBT7ggHTOIJacbzYVn8/YxBlTTPvrcaEnEQ5KVJmh++gIPSAvjHbRtejDLebffvys7QIciG3CiIShZL7505O4XDh5ZHa6XDl2KowJBEMQUZWldIM2ZapjLjZbkol3gfMwDzq7b+paOQ8iNjoFpH0TT7yGIVis13qG2TeWkCaBP/cqzb2YH6FzwLAVpQHRXwG5lZL10eCuODCAagiCoVyDti3ZwYVoH6FSQPhYJ08cCAG260WoISg6Q9hUd0m0doq2udCRIFx/MMrvzhsGerx7P2oUjNzhzIx1wojujNZhbHgG7tfXiwcPfwZEBREMQBHVS1CZN4kib+WiuG52rU0csQIfgWh0DjiMtaYnncqUpF21CdE6QppOCIoNZaoDO5kDHAPFf/6+8bjSc6NZFuVwToNX6s7/41kU4QoBoCIKgboL0zMxGE6Q5hYbcQSwcmI5xo49lgGn1s2ok+HAc97n5QNrmSH/0XRtW1ElICKZt8Y5QwWGJwSznXnfz1YOnn/mptZVdLEBzQVqBs2ub24mmxwKIbkwvHDy64ILoF146ugtHCBANQRDUaZAm4CrVsUNaaNi0G31My0ZLQDrWlSYnWnfzOSA9BOpA5w7bhMPUgsPTrtq0afDUs696e0GXcKAJkkMAnQOk4US3JuoMUWega6g7esiIdqzgKAGiIQiCegnS0qmGJR1plxudY+lutAnSObLSeucOE6I5IB0T78gxmOWcLVsuJoC2RjhKALQOx+ZtfUlAGk50Z/XCy0e2jQAd/fulo7v0rz1/8PBVOFKAaAiCoM5L6khL2t/lcqRLutFmPjxnvEMHavqd6nj9xcUyV1raT1oVHEoHs5y5+YqLGnOgbcDsAmgXTOfKRAOimwO6g4e/owH0m+RMUw6abmugt5j7ftX9EKATRObqlVw562u/r+rBXP9u6stcbP/r+5H0e+ZANO1z9Tjqx1Bs39cW3UavagiCJkY0vCNmqmHTre9yu9FqkmEsSHNgWkU6CGp1eJbGO0xH2peV1u+fW3BYRUD2LvygOEBzYTkHSHOjHIDoRlTB8kgG+uhwaFAd6xjCtRRECbwJ0GtIn1dfr6Bw7f8ZkK5FSV75kBiaKze9ynUvO7Pd9P9eOrorBajpvtYBeG0/rfu/Hn9Z3xf34/BBdP3/lu2/98hiSqFnfZxc+077fQhXHSAImhiQ1oGSm5FuAqRdLe9KudEl4h0E0boLHXKjx0Ban3Ao6NzBKTisXKEaoJ2dOPoO0K44h3p8gOji8sU2zJgHwZ0Qopd1OK6/Nu+BXH0tcpzRCsjdMGtf9P0R/a/pZ0az44zlKMq0QXR9QrPE2n/hiUZ94rIs2PdFONMQBPVe5FrGgHSOYsO2Yh0uN9oE6lRHWneibSAtKjisYx0+mDb3h04WqMWh9Yl/fM9hL0DbQLoNgObCtCvOASe6XYgehcKVMYd39P8vxf/uo4dMYKf/X7vUyy5XOnwfr3zIDpkVMKq14oDRbbEnG877Mh8HE6LrFoPLFufZfmyqEwFexKM6GXI6z95jtASQhiCo96IcbVdA+qO//hsnPrbtMz+nLf1c02601JX2gbSCaH3FgLQ0Jx0sOCwN0LnhmQvRkqJCQHRx1e6kF/jGWt8Jsrlmhw8dzggaTWCvwJIJoSZEV7ER+nnH/tWQumiCKCcaMVZ4Wd+fLfZAj6M+rvPrEx+ZTvTJY1X9jLlf9eNclp5k2J36owvm8ffcxwLeKRAETRxISwaycOIdHJj+3fddvPpb931p9abfe3S4JaCmr9P35ARp1alDnTCEQDrGlTYh2nSkCZZLde4YcaTXHuew4LAGaFEOuusALW1vB4huyoVeDAHyGGhr2Wahyz2ET5+7OQZ9AdBVBYTsfRoHYu/jsRRYsvtmqwJHJkTXAO0+SakKDY1j6js2Y1cSGDGQ6mRGLzRFZxYIgiZFNEqaO5QlN0ibAG0u+jq50/szwjQ9Vh9Ep+akqc2d6UTb3GhR5w6j0JDrSNOi49c5gP7+D+UwnVJUqD9eQHQxVUA2CodLXEc50olmFydaohPzOR+7cfKw4v9ecwhNHmfWBtEcWLW1I+TeBzfTboH1RbxjIAiaCNGlfxtIl3SkCQB9AG0ucqfpZ1Jh+q9qMA2BdGxO2hbn8MU6Yjp3KLh3udEmTFcgPbfQHkAraKatflsC0DaYlkA0MtHFJQGssWJAZlGexYlmwbAli5112MtYjtrh/tZdP/QTjZVcGeGx43/w8HcEgMuCeuMYLkv2feQ5r9se4l0DQdBEg3TIkdYh2gXTJkQT/P3OPf/55xx41tdHPntgBKZLutEpjrQLon0Fh6zOHbYWeExXmlz/sx/43ImsAJ0Cz1yYjslEw4luRSNdIAIOsaUN3iHmfSzH56njs9hhp/vQpZyTgvEoS758cKxLPA7H9udi7DEK3XzzREMSmYEgCOq8qKuD1JE2XemQI03fpwCa60ITPJvbFJimfXlK23+JIx0qOAxBdI7OHbYWeMP90/5tRk0IpM+YfeCECKJjHGgXPOsrxo2OKSrUXWhAdDmAHges4OV6E7pZBXlGHjcFMrmdNAj26j7OC+uxjaOHVK9qrWf1Eud3j8VKItricR+fJHesn5y4HOyx2Idw38dOnASdTCAIgvoB0jMzG7kg7Zpu6ANpgl+J86zfti36faoAMdaN5makufEOAt8QSLsiHlxH2paV5mS2aSDM5o/tTANoifscWiGYzhHlgBPdhAtt9GoO9xweh7JwcZ3hRC9L9pHTOcQCpbIezoHfXdINTxn7bRzXJd5zPGxlt8TcLscUU0IQBPUOpCVjwk2YdkU7KJsbE+FQywXT9HX63TEQzQVpSbyDA9EKnqMdactQFm4v6WFOOqcD7XOdOQDtAmlAdOdlyxtz8q6WQsQgFOv3w8386o4yJ45QP56lKHgOQ/Qh/ftyjg4vD9FmQWTiAkRDEASQ5hUcqk4csfENzqKYiCTiobe7k0K0bz1VQ/FfnS8DabMNHrsFHmNMuM2RrkCawDLVgZbCsw2mUztzcKIcgOgyLvT61L2xgSecZTq9oZwsJ3bg3k9eptcE3eHI7ZePbCM3m/aRogkEwGqNZ6IB0YBoCIKmXgTSkl7SNkdadeKIgeiYxXWlTTeam40OATUdL+ogEhvpiJpuGDEmXOWkT31iT7oDnQLQoThHbFGh6UI/9PkTg9vuX8a7OjNEj0NnwvIX2qVMOxxzoi0QZ+lhvcRroceG6AVuT+buQbTZUSVfFAWCIGhi9btnDhZMmAy50sqZfkorJIyBZy5M3/7kfxvZUlaawFQyfCUWpl1OtALpkCNtA2rJUJaRaIdwTLhypc9/8GE7RPvc55xLkomOiXKsAfSZW3e9CYjOq/H2aMnLGwWJ7S9tdcwthW0jkMssdrTCtxOi5dnxzkD0WK/tfPsOQRA08SDNdaT1eEcKQEvg2QbS2x5+7i1yWjmjwCUALXGiuY50SseOMUc6EqSrgkOOA50a3+C60Sl5aD3KMQToXauA6Mwu9BhYVa70vGSZ0+x8XRsk0/VCAGsfUz2ShV6KPg4uiDZBPmOkoTREp0yahCAImnrNnjl4wARpH0yTG8yB6BIATVvdlfbloq2t4xJiHU+dPwrPsdEOsSOdGO0Y5qSbBGiOE83JQ7tc6If/aPUkQNN64Dm8kzNCtNFxISaeYEYhfFln8/6EvZCXQ8M+Rn8/r3e1Bb6dcGxx7rOd1JWGaNugGLwDIAiCBLr3XYM7XSCtAzW3E0dMEaEJzyY4277ma4VHUwalEO1zo5UTbcIzN9ahA7S4/Z2la4cO0r4+0gqkyb2vQDQGoI/9yP/vVICWQHSVgVbwDIjOLVt+uDSMW1rOsSDUUvy4yNiP5cjj4HWYxzLkmfoll4boet8XUBwIQRCUoO3vHHzY50hzOnHEduCwOc0ucDYXueL7z3dHOmIA2gbTuhMtcaGzFxtG9pEeKTiMBWgOPMfEObhRjgeffH0coAHReV3oUaCSuMLjkGvGQlydM4xewwyQq93fZc4gkvVhKvxuIfUAkRXJPo1B98tH3pRM73NlxhuBaLpqoLvR1W1ZNpr2XzIIBoIgaDJB2gKfBGElunDY4hohJ9q2KCet2uB9zygwzBXpMCE6FqhNkFa3XS3wcvWRViBN24s+92gcPEuAOnOU49S7P/uGHaAB0bk0dmk/MOY7pApGGT2jzYmFQehej4osc6cpjg2AoftzwGgNw8uWfQmC/ViBIf188GdobPbRQ67vawKirfdTH//Q8193R5mvn8NFvIsgCJpqbT1j8Ks6SBOIhTLQMflnFzjHLhtI53Cj1b8VRNvgORWkowayBAoNfdGOYcGhD571rVoSNzplyIoLoHfMWSH6vNvvx+XnHC70GGzy88NOODMKDG1upZlZNqIR6/2c113teUfrveUQ7FndblUwWf3uyoFfNiMZEoheH+hi2b8Kxs3izOrfK6Hf3RRE265CaCcSS/X/U/u+YOsHDoiGIAgyQJoz0lvSvs5VOJgDpk2QlkK0L85BMGuD6JwdOyQjwsfa3zEHsuggTc8tG6DN5QNqX5RDOGAlBNCA6IwQPVZId3hrfjAfB61RGDt6qI5qcKcLLnPAsnav+eO+1/a7jnWIs8JRA0w6ANHD+zMdeP4CREMQBCmQDgF0SgY6lwPtAmkFvCrSoQMyB55NkN6vOdEucI7pHW3CNAeizW4dKY501bnDB87/8P/8IJ0a5/C40ByAHtz4+6vn3XTPVrxj0zQGjI5OF1KNjQG3RERs3TPqMd3zTvBdd3cXJPtYw/liYDDMIZVljoVo0nrM4eghBpDS45t3FV02DdHacZpnnnRUMY4cJ1wQBEEToytuvn9XqfxzKYDWQVo5x+RGu8CYm4em23oW2gTp1I4d0X2kzYEsApDWiw298Kxv6fvUVgrRkgmFC18fB2gPSJ921aZNeMf22gFfcUVI1mH6lQ/VMLkevVgDthTAr8F+m4qIVL977XfmHNc9sv9rv3v9PupISv0Y+jAdsC463Da67/3ZfwiCoMZ1wQ2f/EgugM6dfZaANI0otznRIag2v0a/wwfRMbGOUD469zAWF0hXkQ4TnnVYVhBtArQPolNc6D1fPV4BNEGzWs6CwvW1cWZmI961vYbo5Zw5bAiCIAhqReTqEYDmLCRsGqDNPtKqZ7TNaQ5tzR7RpQDa1rEj1K1DOh7cBGmC6FO+9DW78+z7mqtjR6ioMATRDz75+ghAM6Ic1fdDfYfoFUA0BEEQ1GuRo3fdH/7J33GLCNvMPktAWkU6zMUBaLpNEG5CdK5OHTGxDk6hoQuidZCuohyu6IYv0uFzorlFhQZAj7nPHIjGyO9JgWg40RAEQVC/9cFPfWmpSxGOu575vvW2dFHxnA0mQ0vBqA2ifQ60/u9QPjrUrUMS7eC60QqkqzZ3LljmgHSOPLQqIDQBOgTPN/7++gJETwJEw4mGIAiCegzQn/jCYm6AjoVmFzzHQjXFU377kl9cjQFpG0T7ohw5phmq8eASiLb2kPbANEU5Kpg1wdkEaIkLzY1yKIC25Z8lLnQF0Ri0MgEQDScagiAI6qdCnThKO9A2OA5tpSBNA2NUjCEVonNno02QJkjmgLRzNLgBzzpAq9tVazsbPLtgmtuZg+lCO+GZA9HKhQZETwpEw4mGIAiC+ifqsdsWQIfgmQPS0nx0CkTbRn7n6BnNGQseC9KmI61WVVAYAmgfSMe60L74htSFXlsX3rLrbryLew/RcKIhCIKgfumcLVsu9nXiKBnhCEFzTpjW95GK6VKcaDP3HPparr7R0f2jLUWGbBfaBdK+okIPRG94+MtvDAH6vv1+iHaBtO5Cr63Tr37/B/BO7rdoFDgt6getBp1AEARBUGcV6sRRCqBd8BwD01JXmvaT3GhprIO6e/ic59TuHJJsNKftnavQUK3zH3xYDs+hSYW2rhwaQFfwrMA5BNDsosK12xAEQRAEQU2KOnFQTjgFomOiGyF45q4YJ1rd1rt1cIBaj3OEXOiUSIfNiea2vOO2vava2sU40ByItrjQp37l2TfZAC3JQqMzBwRBEARBjQO0pxOHxIHO4T5LoTlHpEMVGeqDR3xArU8sNMHX1s4uNg8dmmIY7UZrTvRFn3tUDtF6lENSUPjgk69X0JwDoK1FhYBoCIIgCIIaUo5OHLkc6JwwzQVptciN9oG0vlXdMiTdOErFOtRtjhttgrTYhTZBmjmh8JQ/+dZJ9zkXRJsuNDpzQBAEQRDUlM697uarc0Q4OBCdG55TIh227iG6G20uBc9q2SIaLkjO5UK7OnXoTjRrLPi5J4sNxS50TEGh7j6XdKHX1nm3378L72oIgiAIgoqKOnHc9Lm//GEbDnRJeObCtL7/atEAFhdIK5imPHQIjlPBOSYbLe3UUXXkSHGhQwCtBqeYAF3KhUZnDgiCIAiCSuuRR/a/I7UTBxegS8JzrBttA2i9U4dvKYguDc7SdncuJ9oF0oPFA2VcaL3zRgmAdoD0mVt3vYl3NgRBEARBRZVaSNhFgI7JQ5sgTY/7ro1xEF0ankODV7jDV2jRyUKyC22D6M8++1q1XAAtgWgmPKOoEPLphYNHF/jryDyOWEeet5cOXUp9wl94+ci2F146uouem/UleT4LrbX9wTMEQQBoJ0SXAGgpTP/+nx1r3IlWBYb3nX1KBcxq2yZE++Ices9obqSjKiaUDlYxW9sZ8EyFg0N43v2N1aZdaBQVQk4Ye/nImyenHwbXCo5Y86IroxUwr5/ILAmer7YWTtghaBr1nls/c2dKJ46SDrSCZh2eJSCdw4lWBYYEzyZAq3+3AdG+OIdtAItrRRcTqmWO+aa2dRx45kJ0CKBdLjSKCiFAdE/d5gqcV3oAzoBoCJpmnXbVpk2lHegc8Exb29ekbnSMC61HOhRIm0CtekS36UD7ANrnRifFOEwXWkU3CJ4VQKe60LFRjrVFhbJ4l0OA6O7rz/7iWxetHevFnoEzIBqCplVNjfSWQLQLll0AzQFpaXcO16JIh8pGmzCtekR3wYV2DV+xregYh+5Cx8Bzzo4czigH8tCmnty//6yTOVLhmqDMJyC6W3rxpSN3C58TQDQEQe2KRnqXLCRMgWdzmV/PHeuw9Yi2delQbrQO03ef9bafmcV+TTvQZiZah2pfjCOqG4deTPi5b/xsBJ4lEJ1aTOhxod9+48eRh7bB43oxVjwovHToUkA0lPW5WI9urE7AAkRD0NQAdAOFhFyI9sGzb8U40bGRDjomlIvWIVptP/quDSsu0C3ZiUPS4s4G0zf9XnwOelg0aMJzTojmZKEdIE0QfeEtu+7GO90EliPLaRA9GW40IBoADYiGIChKqSO9cznQIfe5KZAO5aFHQPrd/+aECdIE0VyXmAPZtu/hfM0W49DHf+sgHTtUJQjPOV3oBICmLcWV8G4/qef/8pUtGUBhIoASEN2B5yD1qgggGoKgpnX2NXdc24QDHQLpVHiOgWiOE+0DaDW9kOBZB2mKc9jgNQdYS37WvO0a/R2Tgx7C8+cPr1aLIFltS8U4IgsK16McyEOXc/1e+RAgGko+oet/BhoQDUHTJOpUsO3h595qwoEOAXSOxSkwTO0PbUK0Ki7UF4399hX1hWA5FbpdXTlshYUVQFMLulh49gF07ihHRDcO5UKjtd2o1nvuZmsZtgiIhtJO6HrR9xkQDUHQyT+iOUZ6c3pBcyIcrvXJA//bulLd6BwuNG1VcaFa5EI/Zckfc1cueLbdv+lASwoJK3imokEdnkMA3QEXWo36RpRjDBq3ZYOFNQClLh+AaCgOoGmASlqkqGqF99LRXXVXj20vvHR4a+5V/W5ANARBpJRCwhwRjlh45oB0CKK5eehQn2i9uFAtykPbOl/oIGsDXluGOTW+YRv3rbasgSrUqu6pZ1+1wrMO0Sl56Bwt7TwuNLpy2PXiwcPfyem6EWAAoqFmX4tHFygG0thrpBr6AoiGIAA0A6BTQDol/8yB5xBIl45z6MeI1kfPCEO0Wcznc6pDPZ6ly4T4EEBv+Oa3X6/g2QXOXXKhAzEOWpT7x7v+pOohFrkvXS8BoqGGXosrbeTwAdEQBA0uuOGTHyH3NCUHXQKgTTie/fP/a12pEJ2jM4d5zFSHDj3O4QNpG1C7oNfXZcPVecNXSOgEaCosXPzmP3ld5y4CtKcjBwoKHTCwPiwlewa0SVcQED0hr8WIjhzPHzx8VTv7CoiGoKkWZ6R3SiFhKAPNAWgXPEtAOsWJDvWGtkE0deggN5oWdeggiFaLA9MuqPZlql15Z1d8g7ZWgKaiwlBko0SMI7UvNKOlHVxoJ0QvFyqkmgdEQ7LX4tFD0ghHe8APiIagqVVopDe3nV1sL+hQdGMElJ//B/eygLQUonNGOao4x6//xgkCaHKh588djEC0AmkpULuiHy7I9n2/cqBP+dLX1h3n7//Q3mVDAtAdLiaEC+2DluQiLi9cUsFybx1R5up7/rvHJy+tXu0AREPQFEuN9KapdKXa2SUDtA+ehRCd24X2OdEKoikPbYPoHEDtg2zztrmqNnYvvnISnKWuM9eB5gB0A8WEqiPHmZuvuAjv/DEXerFoW6+XDm/FUYYmEUoB0RA0rQBdFxKWBOhQFw66rYA3Cp49IJ07zsGFaDqemz+2c/W9F1+yqkO0vpoCai9AP/jk69Gus6QfdBPdOJgQjRHf46I2dBEDLYTRj6OHcKQhHpQe3tqnfuSAaAiaQtFIb18hYWo7u1gH2gvPL756YmQrgOhYgOa60Aqa1w7t2Nr49lOP3/jOUYjWYdoH1bmBmuIb1ShvHXB1EM4N0B0pJlz//2hpZ1NEn9sVKuKSutHUcQFHGwpDqbCocO37AdEQBDUmzkjvkg60L4f8sT/+76+5fg/9rBeia5BuMs5Bx8kFzzaYpgLDCqDXYFbf+pzpXGBN9/Xe2+e6BdA6SPtgOrWYEDloNwRIXeUaWsSTDVuGHag3r8f5PkWFANEQNEWikd4cBzp2KiH9v1/ZvvctWld8YuGfr/ztP31NrffdcvBnv7z9e69t/th3V2n92p3L4kU/71p0f7TovtU+clvbxQL0We8+iwXQ+qKWd0OIVsv4dypUP3W+xX1WUJsDojkRDm6MI6UbByfGsQbQmEyYDQBW6WeiYAfwAPEgWpjPb743NCAagqZQoZHekhiHDss6JL/vd15aVZBsLoJgKTz/p3v/aey2/jXfovsiuKb9UvtoQnZslEPiQNvW0JH2gHQMUJtgTdlnKqZzQm4MRHMz0E3loAMuNLVwxLvfBSxHF2KHp8QAeFu9fKFevSYP9ek1BYiGoClRaCKhz4XefNcXVhUwX/Fbz64SLJvLBc8mQHNAOgWeTZBWW3NV0F8DtoJreuycgkLKQMcC9KCOdjx09kl41m/bQFoK1ATP1T7a3OcmAFoa4yjRE3rt/5173c1X453vPqmWRjLMNm4E1X3p5wv1Q9Jx320P8wFEQ9AUiAoJfZ04THBW0PzvrnnsTYJmFzgreJZANBegQ9tYeB4BacvjUa41PXYF1jliHOaizh0VPCuIdkU8PA61DtZ0mwXPMSBtfi8HoEvHODxRjjNmHzgxmN15A975vj/+wi4ILx95kzp5jACPtChx7Xf0tWc0BIgGREPQFIpGeocAmhbBF4HjJb85v6rAWcFzCKJzRTjGgfnHVniWRDpcQG2eAJiPSz8GCqpppbrQan349HWI1kF6BKpNgLbA9FP1xEGajjiEZz1KIQFoG0zb/n8OgC7Uzq5yoB/6/InB43sO450f+OMvngo33kosqj3ey0e24ehDgGgIgjovyoP6CgkVOOvAaK4UBzomwmEH6B9HO9E+R9oF0PqJg3k8UrLQA0ukQ1+6K+0Davoauc7VvigoNXPI+lbiRLtc56bGesdC9Bo8n/rEntXB3oUf4J3vF7WbyzUwRVoIRpCEZwByn9zJIkKAaAiCisg30pvgWTnOpvMsdaFdIB0Dz5wlAelYeL7wtx56S42Jfvsf/ObIygXRtEyIti0F0lSMOHScTXA2lzTK4XKkm4ZnaTHh2paiGxu++EerFUA//cxPqQMN3v2hP/zCXrwHj6y4f5d4OMawwwfUT9EVCDoRUwtO9HRCtP46oONA/zYjXxDUW9FIbz3CoSbpETSrFXKgfUWEOTpxmE5zLnjmutB0DHRQPvX+LScGD1++6l3XD7JB9KfPGodmgmVymWlRa7oK2gkadRD1wTPXhXaBNDf/HFtImNrOrr6twzMtuo0cNNvtE04cPDIf+H0rOX8f1L7WC09f+VB9wrVYv2Z8z/NK/T2LKZEdONHdA+XqdbDe0pLzOhi+HuoTokV6DdHzhHoIqD8A/YkvLFbQfNcXKnC2wTMHolNz0D6QljrQOkzHFhbS41LQXAHzk7+0OrIIks3bBSFaQTIteo6qTK8NLjkAbQPpWEea+7NcgM7kQlcFgw99voLnwd69Q4Cmdd7t92OYB0Mx0wZDoBLRKm+lD8eKCie5q4msN8GMZJ+kLjEBU/WzBD/yUfDW/DyBk+g4RpzgSX6/974jBrdMIkTXj2k+4rkIFhbTa4uOdRcca/Frs6XBPvSZHfN6busEkz4Lu/S5KRYVElIOWgG0Ds8cB9rnQufqxBEL0BxH2gRo2l+CLwLnMWh2LR2gTZD+2Blv5gDoqsOHgkYdIGMhWgrPtqxzCkAXLCak528977x3ZCmARiGhyOlbzP1Hnz6s5X9U2x2Swfxj8GaXTgxK9VBeh6a1E6E0cLZCdFT+vr21NK0QrYAyOzj7W14ear3Pt+QqWkvdhRKek8Wm9zXi/b7UqTfCmZuvuKgCaAc8dyEH7Y9w/FhbaZEOGnE9As7P/Ec+RIeAOgNEk+tcDULxwbMJ0LnjHDHw3IQDvXZ7CM7PPHNy2QAahYTCS/RlxnVHfNAvdv14TTpEr1+qF19FAERPEERXnwnrkZ2VNo97WyfVUlOhaehff49GH9fGr/iJ254y/740F+P41JeWVJu6GIBO6caRBtA/dixZnGMEngma9aWDdCpQX5/BhSYoXDywvqXOEnd/9g21GnWipYvbyk7oQlePm9rTESSr4xIC6Kef+SmdOAKP+ZfZpB/E3Muu4mJFS99pQHRzEF2/FkqBU18hWgy4fYboOtq13J3jf/RQ7kLVvkNfzGd2mzUDXT8p8eryu/Z+1wXPOVxorgMdykH73Wc/RPucaCc8h1aMU70G0ykDV05/4FProEjr5ZdPbtWif+/56vHBg0++PgLXufPQKQCdAM/Dx6NDs748AK0gmgAaEwnFH3DSCYOHSjom5gREQHQzEF3IfYYT3ROIrq9ILXbyOaD3XIM52a7HD5Kfp6ahXxiP6cyH/aVXP/H1tgA6Fzx/4FP/OrL1gbS+aL+i4NnnVDNWVZgYGeMYAUYdnmkdOnKiWt/+9urI+tu/HYFrtSoY/eyzrxWH6AgHeuQEgPZXAbN+suCDZ58LjU4cpf/Yr0oLaSIGuHS6yGrSIHodnsTPESB6giC6fj6Wuv9cHF1oKn8sdeObzEWnXi1qsi+/vDaGb9IUFY30DgE0t5iwdDs7G0ATNJvLBtE2F7rq1pAKzylALXSkq/01wdGEaFomQCuINtffHzu5asg+9SvPvkkubQXWTz37arW1rRR4rqF9BJDrteHhL79Rga86EVBb8zGax8EF0SgkzPVhPF96RHdMz+i2W5RNC0RXhWPCHswpl+UR5+geRNfxjZU+ndQ0EfmSX5lpJr8dZXy0WAwpjvR1IQ9NnTi4AF06xsF3of0APQrRdhea7nPEfT6wZRSCzX/ngGrPCoE0uc9VWzYbQJsgrYOnDtA2kNYhmtaxH60O/vFH67f/8UfOteHVfzn5fSasr933hm9++/WhI64vfR8UuOtL31ft91kB2gRpPSPuA+gvPo2Jd404GkcXIi8TF78fQLQcohu+fA8numMQXbmE+bqvNHpiUxqk5bnjZj6zxHntlnPH4s+ntg0UmszmKyLkOtGlYxyjhYR+ePZBtPp9VfZ54YMnQZm7zQXYNpC+YfDG4NZB1f5uOOlwbVXZZwWEOij6XGhXlCME0Gp54Fm81O8z78O2P1yAdsU4GMWE5KzTJE4gsfTDrRqW0MgHb0zP6K4OYZgUiBZfhZheJ3oiIbq+zF7SgV4pDOhLJT8jIuo5lpv53M524js/jZ+XQcfnyt/+09dyudDN5KB5AG2DaPp9v7z9e68N3WcbKNtWCKpjgVqPe1DHDgLotbVh9srjFfSZMGgDaGke2gbRNphmONHR8CwFaJcLHRHjoIjKaVdt2gQkLg9fKR9wMcNc2hpiMA0QHdfD+yQsrN/n2okRXapVax3K5+v9WWFA9FKdOw1v5TC2zP7d4a247WLXIbo+/ivZYLmeSOmaQEhAqoaDVK+PbHBdNj8rzUU3EzPJ9rwVL4aM+Nxvt8Upp5CwzRjH+DAVPkAPCwxn//UtAmdamx//H+uurgnHvuX6Ho5bLYFpGr7CgWhOFtoF0Fw3ug2ANuFZLY4DzYxxYKR3ossi/UOWmFWTt83qSIHJhEF0fQViWZKfXAfmw1slkFC/xradhKb451Oa28bY7+B7cSkHwMbmgLMOcSmYoRVfQSvcQSTx5LfxYkhpHrrVzkzU1osT42izG8d4L2g+QCt4JnD+4NdfX/2VPX9/4u1//CEZQHOX/rvM29ylohw1RJ/ypa/lh2hpnCMGpH3wLAVomwsdAdBqYaR3vKJydWtg0OQHKq2m+8NOB0SzAWqFXic5/tBWUJkAGFLoA0RnBEPLvubK0w6HuiQ702WK+uRF0WVz0TGfoW1e7ROfrCX+jUkSpx90Sowjdax3bIxDuc6/9uX/U8EzLQLpYf65iWWDagFEV640J8phKyj0RTk4RYUpIJ0boDmFhNwYBzpxNHqZMselv6gcbNcmV00GRHeqlRic6OYgOoOTuVjidVEfrxRXukgNRQX5HXq/53+vl4P+rh07r86+5o5rcwB0qbHe4hhH7Tq/7+EjJxQ4twbQHLi2xTkUQPsgmuNE2wC6tBNtwjO3iFAC0Ck5aIz0bv4PaabLlBHt1DrXM3rCIXqlrVHLcKI7efLc2KX2DP3K57vw2ivlpoqglP8ZtVzutSYtXG+xI1OOLHRzQ1U8AF3DswnOalURjq4BtAWmqwz0dg9EcwsKc+ShfTCtQ7Xr/5VwoCMBuloY6d385dyMo7hjxtV2agTsZEP0SquXU+FElz2GKa3RGpoWmATS9L4s8PqVdrEpdbIhLNKbbzsyFzGDYFsrb9Z3b958WRMudM52drbIhs11HgNoPQMdu775q/bbOdfHT1mp4Hm7tvTCQpcDzY1ySDtz+ACaA806PPs6cXAy0JIctOlC08AYFBJm+CMlru5ezHr/4vxjt3pGTyhEr3R6wA2c6Dbe9422QjP2NdYxz97doSsdJthQWpsebcOr9Dlsrf5F4kK3143D0g+6dp0Jjn3wTIvy0NEArUDZBc++/x8L2TpE19ux3tDcKIekqJAD0i6g5iyJA+3rxMEZqGIANDpxZAPAbW0X7Yj7nDY4XWtqIbqj7QThRLf5vm+vQ05SC77MbnRXsr38E8n154wPsflNiq722LYqR1/o2J7QIZC2xjgE8KxWMkDbwDh2y4Xo7aNO9Hov6wxdOUJFhRyAli4ftLsAOmM/6GqhkLAVGCnxByFmyEtrl/qmA6Lnu/66hRPdrCuoXrttdsdJAP+Ftj83c7/+JCCv4iSCOEX+z/iOdTVxilNQyI1x+JzoHC50DDzTEveBlsCzeTsHWNM+GgBNq8pJS7pyxBQV5gZpX3wjBNAceOYCNEZ653R3ulKss9J0dxBAdL8mQ8KJzqOoQUcdOXGNOOkvcuVK3Fouc1chkfFQO/ExP5PxM2mhF1fCOFGOtosJY+GZ1kWfe5Q3gdAX3/BBswnQocUBappUuGMcoqviQldBoSTKwS0sTAXpnACdkIPGSO8W/xAUhJGokdMdKXqbKIjukMMPJ7rYsYsZE92JrjjRLfkyv67l+5E3BhPjKse4121d+Whi0qNVoShH2y3tYuFZtbITAzQXpHMt2308eslrFTTvGF9Vrpcb5aCloJQL0NwOHSnwHAvQETlojPRu/ZLucocgozOxgwmC6JW+vHbhRMcprpC3Wxn5mJMAer20evUssxsu+OxejHzfZCuGjLji2c5VRmrzFZpQGDtYJdWF5nTbYOWgVd/l1Ax0E0vdF+Whd9ghuoqmSPLQqXEOCVBz4DmXA82IcaCQMPcfAHkOuXRf2IjRw52AvkmB6FZH7MKJbgSi5dnU7p1cxcZRcrub0vdZrtacKZ02BFcfVzJ+Pm7rhTlyxc3372pjvLcPoHPA8zAHrQN0DEjbALeJ5YHokVx0Sh5amot2wbQNujsA0Bjp3Q03p3RRUVzf2vYHgUwKRHdxpDqc6OyvDfmI7y5OCY0pjMzspkd8Xs3neS3xT4TM97QkhpLrPSP9W9PaHIBQHrrJlnYEz1fu/MZxNZpbH9EdnYPWF6ewsKkIBxeiZy0gPXuKHaIlLjQHpF2A7IJrDjzHDFOJGOmNThz5VTkZ8t7Mh7q5X2V6sE4bRJe43A0nuosQLYfPLp5cxdRz5O74EPGcLmV6fy/EvoZE/cEznTy1GXsRyZeHjo1xhNrZmSCtw7NaKQ501Q+aJhKaAJ3qRMesV37dv3UtAuUhNBtbW6TDlYdOcaK5IB36HbEAnVJIiJHe3XB8G8pEigEw4/TEqXaiO+g2wonOq8huPMtdfP4jayiW87/XZF2FcgBiar9n7udDjhNr6fPU2sn8xstmZkq0tOO60ATPqmjQBOgUkB6JcdjcaI4TnQLSIXAObZ/8pZPQPGsH6SrSkcOJliwpOEsA2gRpSYTDUkh4zpYtFwN723Xxmmx7FpPZbDvLOwkQ3bVR6nCiSwBfRD/2DvcMj3HVs7e6E8fi0uJnohMhh/HBNlEyuMJiw6atk/kLbvjkR3JnobmDVcgBp9xzTnimRb8zGqBLwLNkqZ+hzhwmQNuAWjmyvjx0Spwjdfng2QfQGOk9IQ5Os43vI3pGt+qW9R6iOzYBEk50IYiOikC0X3OQD2Dzvw7kRXNpn6WS+3NdoZO8FlNPrsXFl229T1156JRiwlA3DhXdMN3nXCBddeMgJzcnSHOAOhWg9aVDtA2g69vV9MKUzhxdBGifA42R3m3+4ZnvuksZU/zUJiRNgBO93MPXMZzoBqCz7ahUXoDN3y86IiKz3NBzuJTJqJhP3N+VLl7xzArRMS3tyH2mvs02gM7hQlfFhD6Aji0wlDjROda9v/ATK0Qbaxjp6JITHYLnGAcahYRdgI/Ou7xxAxVaGhM7GRC92LfXMZzoqPf+cp9b2+X5nMgfT2lykEgu+M0F43mfn/LF607ZigpLjPd+3y0Hf+Zzn3OAdFVMqLvQud1oLkD7YPqvf4O3mBBNq8p/+4oKfRCdG6QlAM2FZ24OGiO9C/4hj+gR21JGLeYPflsuxgRA9HzvXstwohs4gW4RahiqO02stn3CKL5yFumGy15D/hhOjlhIeH9l8aHWaltoBLJtyEruLLTuPqsVAugYkK5gksBZLa4bnSPOwYlwcAFaCNEjbnSqEx0D0+bviQHo1EJCjPTuGly1Nlo7Kr/Z0lS13kN0zzpzwImOhujeXN0peGVtKf9zKzUn4o5rzoLAHAWKud+jbf2tGZx9zR3XlsxCEzwr9zkE0Klt7ehnRwA65EbrTnSOSEcqPP/PD4xuqb0dQfJOY7lAmrLALoAOOdEuNzoE1FJ4lvaBFnTiwEjvchJNuepA7+CY/W3LOZuAwsJtfXs9w4mWKaq9XQ9OriI6DS134LNqpeT7mvu5ndoqL3iVoGOfi07ZJhXmyELTVrnPHAc6R5RjzIXmgDS3Z3RMYSEHogmYbYt+hiB6pwWiHUBdudEpTnQo1mED5hwAzXGgTZhGJ47uO7stw1WMc97GYIj+O9HtOPhwopuDvaj8cA9OrmI60RSC+eXSriv7c4Z58pMytCX4epOPZm+vLsMsKszhQiv32QbQIYiOBenKhX74cjtEp8Y6pJEOrhPtAmhadD8hgLYA9Vg2OtaJdm2l8FzagcZI76Ycm2XpH5vWh5j0JMPd/0x0d9uYwYnOBNFyqOnF6yKmk0+h1+N8yfxviXHdKePDcx+PVk/YpBAdGu+t+j67ANoH0Sku9PkPPuwH6NQCw5RMNBeg/0ZbtD9SiN5ZjwI3s9FciJbANPd3FXSg0YmjGUVWsbfesUE0olaDj6YLDAHRcKK7DtExg1b6MIAnBqJLfD5EHN9F2euHfSWR/fkiiqEIIVd6ktvqaHm9M0eSC02dN7T4hgJoSZQjxYU+9f4tJ7xOdA6Yjs1GcyBaA+gN3//A+n7+weDnI4sJ0lXf6FQ3OnXFwjN7nDc6cXT5D01XwCqqZ3TTfa17DtF9m1YIJ7qZqzr9gGh53/sSV9hKZ4D5J42yuhDBFUo29EdkxNvtU2+2t5M60Mp9vvLTL7ylO9BSFzqlM0flQiuADkU6ONnoFJDmRDkCAF1BNA1a2V2DsQJo9W9za3GjR4oMJRAdykrnAOiYLhzoxNEnN7cz/WHjLkM366IDouFETyREt3zM+gTRJU/sJIAujYkIjt9Kuddai11gNl42M6O7zzF9oQmg/8MfvrSqw3OTUY6qLzQ5rwTPOUE6NdbhA2kHRCuAHoPo3QyQ1oGavteMdegQLYVpKTzndqAtnThOv/r9HwDiNgJ42yIgdKVuxl+vCspa+vfabRmkNj7GGhANJxoQDYgWF2+zCwAFURFhwWKJ3y2+ethmYbPZ3s4H0mMAfcvBn13xiYV/Vu6zzYVOiXKEgFr9f7rfIUDnAulc+WiOG20B6CFEm5CsYFrf2kCa/h/1mKbHQVCqw20JgObAc+w4b3Ti6JVjNzGrwUIVQDSc6M5D9MRmouUQXeoEW37VjBe9KOEWl3S5m5zgmKwLb9l1d0wWmtznS7d/sQJYE55TXegQROtfp9tVNwoTonWAdsF0CKBTs9GpEP3pwb8MwVmHZhtIm7cVSO8brD/WUm60CeeuEd65HGh04mhUUb1hJ2ctNfaHHBANJxoQ3dLroBvdOaI+C5hXzASv9cXC76Xg7+9dHlrvzOGLcegATdMNVf7ZBdE2FzomD20DavNrw4JCH0jHONI5stEmTEshWhUU2kDZtszvpd9xYLA+Bt2WjY4FaRs8h9xnXxs7JkCjE0f3XZqJWg1NwAJEw4nuOkRH1Rb0oH94HfvqDkRnfu+V7KBx8rXJjKEwemxHxAfnW4foUCZad6EJoCn/7APomIJCCUjrW9oXJ0BLoh2xhYbSIkNXLtoG0RTH4MKza9HvWIPoIUjbYh1ckNa/n+M8h+BZCtB7F34ArG38D8zKVEN0Qx/QgGg40Z13ouX3Ly5Sa8mJPtSloumIoVbz/t9XrpdzzAlW6H0kP6lpuQuUcqKDcY5bDv6MAJqguSREhyId5tedUQ6JI52j0DA21uGDaOVEx8CzDt9z6xDtBGkTpm1b2woBdMYIBxUSohNH039c5JdvJ3A10mUEEA0nuusQHXGZvS9jv5e7FB+I6Mm/FHgvLzTxuHJNQ5QaN0339B/T5Xft/W4oC0355/fePlfBswnQuaIcEvdZv033741zcGE61zCWBIge686Rw4mmVUc6giDNWRxwDsGzpIjwiT3ro8y3D14E1nb/MudkrvJOByAaTnTXITriddpu67FCV9vo5Ktr++QDSf5JQtpzxf3M8B2/iNf4UusvIAJknwtN7jMVECqA5rrQMRAtBWm16L4USAfz0aVa30kLDRlu9FhhYSaIjgJpLjxzIxzMcd4VQM+ujzMfbB0sDKBGVLlO4j+YE7uK94wGRMOJ7gVEy+NdS53/nOvi50GmSIOoMDwxvy7JRbugn+I/vcpD6xDtAugr7n3WCdCl8tCuf/uWDtLJ+egShYa+IkNHNrqC350ZnGhac6MQPVJsqAOya5sDnn2jvC0AXfX+nlXDY+otHOlmAEP+YTbRq3QLJUA0nOg+QHREu8uVLr8G4ooly0dU5J+/dhdZUqSX+hkneX26Pi+kJw+d+NxR0wptAE0dOHSALhnlCIE0B6jpfgi8gjCdWmgYAmkXTAuz0cM4RypA6270QQOmzT7SUnCOAWiGA11l3WfNKYz1WgPp1nNQE66InOBEr9IFUoBoONH9cKLl7eBii9WaOabiIr5GOo7keq4FULqU6e/GSoqDLLrS0fBALKuoUMvlQBNAmy40J8qRWlQoBWcdoNViFRuWdqQzxDoqiI4F6Dljq0c6TJCuHs8zq2JwlsCzD6LNIsKHPn+imraoJjTutMD01sESCg078wE+DatoMREgGk50L5zomCtUDQ4tKv06b7TtpTA6Y3OSU6E2Yp+joV1eUMkbNFMWouuR3zEALYlycPtDpyzz/s5/8OFmWt/FRjt8IF0XGQ4h2uwVzQVo82sE0t/UIPrgydsbXjjr5xu++Ed54TnCgaZCwgqgdxujzm3rvsGrAOkif1gW5JB5dIE+BPuypABVGqIA0XCi+wDREZ0jOl1cKM54M/oct/Y5bJys5IhXRHyORcdHSo08L6rTrtq0iQvQKVEOqRMtBWzzvtQ+0OPIEu1IKTaUOtJ6tw6CaGkmei7gRh/U4PnguDM9kpNOBWhf/tkB0FUhoe1xuRxpAum1k0Ggbx5VI1wjekO3DRglP+ybgAFANJzoPkC0ZMRz13PRMXnoJjpzxH9GjX4+sa8aZIxFpBQyij9zuvA35+xr7rjWV0RoArQO0r4oR0omOsV91iFaLdrXqkCtLUc6pvWdAmkF0THFhXOO7T4Dom1QrXLSrrZ1qS3sHABdPU++x+QBaTohBALn+EPNb8zfmbGrDcJAqQweIBpOdB8gOua4dfUkO+qKW4PuZ0TnkJWY93DuE4OYlnoRn8fdODG74IZPfkQH6BBEx7a2KwHRLng2ITorSMdkpCUdO8xYh+5Em9sYiJ5bB85hpMPjSlO8o8qWm85zav6ZA9BzgeExNpj+9OBfTr/6/R8ABjcLT30ZqOD4sF/sSlERIBpOdF8gOqoYr4ORjj5ccRMXeGt5bfbjy/z5HTPcJeKqwGInXkRX3Hz/LhOgY6Mcvjx0bojmONAmRNM2WHBYypGOzUfrTvROzYmWOtI6SNPPEih/U1seoH77wgdPgnGq++wA6Op5Mfd1txCkZ9dB+tTrB7cAhRu4FNeT6vvcrnupy7mAaDjRfYHouFx0uas4ke+3bTGPoetuueoiJHmOcr+uY8aMU2FjL8fJV040E6BDUQ6fC50ToiUOtAJofVHBYbGBLKl9pE2QtkF0bKRDX5SNPrRhFKQ9ML3hwDt+XmWlCwB01YnD3MfdTJi2xjtOOQ6QbtJh6vYwBZ9i898lThoA0XCi+wLRUQ5pl8BnENvCs3k3PeJEf1H4WZ79s0QUQ6mLIcWF3g11SBFDdEqUozRI+1xunwOtL/V4ggWHpbt2cAsNTYjeqbmwMcWGJkTbQNrnTK/tf+Uau+CZWUCoALqCaDrOcwP3CgG1A6TfduOglxGDvv1h6dIfxiacnlLxFUA0nOheQXTcCXcn3OjIuo9Wnv+IybErstd2mTZxgr8li73NQ+sQ7XOhc+ShFUDHgrQPnmMgWj1eb066pCPNjXbYIDpXNpqWAmkbUHPy0twCQgOkFUBXJzI+gOa60gDp9Eu0MZO7Gpjk19HHnf1DHBANJ7pfEB3ZS77l+on66tNyn4qnY16n3M+TUiaIIJ6xQiPLe5mHtjnRKXnoUCY6BqBD7jMXoPVIirmSQTpmsqEv1qHDNEH0rAMSY2B6zuFGc2HaHNSy9vgqmI4A6Oq479P2Z18BkN5ZDWVZGECcD73FiMubhybkscsLjDJDIyAaTnSfIDrmNdKFS/FxPfDbveImzQuLnpdCz4UMjIWvoy4N79Gd6NJRDokbHYLxFAfadKNpm1RwWDIjrSA6BNKhWMecA6b3DVbFIM2FaQ5A7wvAsxSkXZ07ANJhd0be7q3Tk8jK/pHK74YAouFE9w2iIwsMq/1qI9YR4Xh2IoYSe5Wwzc+R6L8pfStk58Q5TCCNjXNwQDr0szkdaP1x0zpj9oETwZx00yPCdYi2wbQ0H20bvuKCaClI1zEPOoZV1tmRga5gWwfofQwnOgdIbx+8CFx2Aty2CIB+s0vV9o3DQObHD4iGE903iI45hm1dxaqP3UpvIyhFgLRsoWTMVNjezSQIOdFmV45UJzplheA5BaCH6xML/zx4+IofBl3ppjLSNoieTXCkbfEOnxsdAdKqmwcdiwqYQwAtBepEkJ4U8OvAh93ihB2D5TadeEA0nOg+QnSCG91Yt4skgO5IMWT8yUp7VxIjr/D1q984QXSOokITokvAtA+ebRGOGICmYR0bZ2Y2Dh67/O+iMtKxOWlXrOPRS14b7LBAtMuR5rbB02GU3GgFyRlBerjW7oPc6bEIRwikczjSNpjeOliqnmMo9g9zvV750GQdh3bb+wGi4UT3EaLr18pCAhgtloTUGvJXop3cQsOVGvp8ajUWUSSG0pHnQ+REcwC6FDzb4DwlA22F57V15c5vHKcR6CMHZ/a9n48uOPTBtKQFHt3H7MC9bG6rtJc0fe8Bo8WdD6JjQPpADccHmC50rpy0y5G+b/AqQDrJLViZtOMQO2gmV2EOIBpOdF8huu4LvJJyib5EgRsVA6bFILpTOJ3m+Ld4gpU5htK5blAhJ5qbh24KpHMUEdoAmo6D9QCtgfSGx9/3RmudO+j3ECzviABpSdcOcqMPDuw9o0V9pDOAtASmU4ayEEhfNjMDiI7543d0YUKPRUysZR4QDSd6miF6fd/iei/rNQb0XsoBSTVwpuZxV7oGbIknKu1EaWI7uPRlsJeCaG4euok4hwnNUoD2xThs6z23fuZO3zGiiEcVq2jDkaatAmgfSM8G2t+FnGmC6AMaEMeA9AEmTEtBeo4J0y6gVo/dAdKnXbVp09QCdI+GDjQCVeRcteTKA6LhRPcZohOuallg+uiC9PVUFd+tf55lKWbr4us5K5A2FIvIHEOZ79yHSM44hw2gJTBt+7kcGWifC33hLbtYvR/P3HzFRc6ctA+mfcWGHJgmkP74KStjIL1D4EpLQNoE4xg3OidIc/tIzzFdd9uxWXvc1YnSVLrQUR/Ky5N6PCKmg2X7gwSIhhPdd4iOOabhQRzV63C+6iBUQTK1qVtba7fXT3qrPHbWLhBdncIaeZLfamelvDGUDtbhNOVE+2DahOcYgI7pxDFz+yOPSo5VlaGlNmkxLfBS4h0KomMdaS5Iq2z0AQcgH/TAsxSipSCds5f02GTDdZA+9frBLdME0NHA2EU3oP0Ti+ROJYBoONGTANH1RMASrc2aWp39fIsvAm83FpElhtLVlqohiJY60VyY9m1zdeHwAvRt8/ujD5qv4DAFpl1utA7RXJh2ZaRV0aELppUbfSAAy02CtDTWESo09IwJnyaQjr7M1uK0sWaOS1zEJTU/CYiGEz0JEN1zkO68QZApFz3f8D4vJl8dWHuvdvIJ8UF0amGhD6il0Y2cDvQF2x97PvW4EWxZCw5LtMCzQXSKK+2DaPr6PgOEYwFa0q2jK9GONZB+242DXYMpUFRf5C4WdpQAgKhIR9pABkA0nOhJgejhla68RWVlV8sDVZoE0qbfq1liKF19fko40ZyMtPT3uNxnKUBfcs8T2VrWVAVpvsEssd07TJCm37HdAtGpIG0DarqtigwPOKA4B0CX7NghgekpBenonFpP/tC09IcqCVgA0XCiJwmik694NbWq911/et5HTZdtORaRI4bS2WJ2F0T78tCSAkPXbQlI5wLoy+/a+93cx89bcMiBaE68g37HjgEPpHckuNL6dp8Fdg8ytjaILlFouC/TMJbdngz51sFEtnGrASlqOELp5vzdOT5UvNTsBz0gGk70JEK09n5a6R5EHz3Ut8+06H72Lfe+Tnr+1z4bO/uE5CwslMB0KYB2QTQBdNHhGqGCw9R+0hTp2O4B6dSiQ7PwkMaNu4A3JzyXbn3HzUnbhrLQ1+h5nTDVecWVicmkdepDP773KiAaTvSkQrT2uTPfEYBeKT3yuvBn03LfYhFpUy27M/Qm2YmOiXTErlwATeO8G5lOlzKYJeRIf+yMN4cQvX2QFu/gFh7OMeE3JcoRm40u0bHDBtKz1bGeKJCOvhzY4z86DX7or8ReKgVEw4meZIgedVLX3luZJ9mx4XkNIjs39a5BIG3rNZwSQ+lqy0GWEx0b52gann0AXUUuGlLV3SFmMEso2mGD6BLxDh2kfW50qVUqH50BpCdlTHid912Rrk62FyqoOjcuO04EBpE9o4c/z1mNQLTsddJPiK5OFPiPsRsQzd7fLl89qmB6PS+9XBqeqysOaxA3KZ9hdQehlZjV1j5ro+EjPlM73BGqa0607f5Cbeyc0wjXAPrdmzdf1vQxTS44tME0ff+tFoguGfFQMN0kOLcZ6wiB9NbB0qSANARBUKdOWNeAuobdN7M4zmsngeRg9t11hjqumEx0CZCOAeeQA93mFLoKtmImHLpcaR2iby0A0q6IB7nR+zroREsLDSXFhr7c+H2DVwHSEARBpaH68NZ1p5qiC0cP1fn1pdq5pu1S/bVF+p71Nmo0yXCy+9hDPYHoEEDnBGkfQMdEOK7c+Y3jZ19zx7WdOMC+wSzS7h0U6YgB6dlEV3r2lOMjgFsSnqWOdAk32tn6rl4E0pfNzODTA4IgCIIA0exMdE43OhTdiAVoekydOsi+gkNJ9w4F0SGQzu1KU99oV+SiC060BKKTpxqeBOkqtgNBEARBECCa60SnuNEhMI8uICSA/vQLb73n1s/c2cXjXEVLXAWHzJz0htkrjw8hmgPTOzLAtFrUYm9fIL/cdCY61o2WRDtc+ejZ9TaAbUaGIAiCIAjqIERzQNoF1Lbbod/BBWgfRF94y667u3ysvYNZOCCtctESkN7uAWgRTJ9yvALLfQGAlkD1vowgHetI+2DaBdE7R49L1ZEFgiAIgiBAtDTSYYKy63YpeKY1c/sjj/bmoPsGs4RgWo90pMK0FKR1N3ofA6i5jvW+AnGOfZnGggOkIQiCIAiSQjTXiQ4Bdm6ANkF65rb5/b078LE5aR9E5wLpHQFH2gezB4zbHLDO6URz4dmMdMxFdOwwjsvbbhzswicKBEEQBAGis4B0KjyHAPqC7Y8939dj7x3M4oBpay46F0xzQJrc6DkmQHMy1Bx4jhm+IoXp3Yn5aIA0BEEQBAGiS0K0+TtTIhyX3PPEob4f/2oYjG8wi82V5kB0iisdAmpXrIMT9QgBthSeQ1MM92V2o4MgXQ1lWcAnCwRBEARNOUTboLdpeLZB9OV37f3upDwHwcEsJkiHIh2NRDwCsQ4uXOdec4lu9FxE/2gbSFPuHYIgCIKg6YboFICWwjPHhSaAnsipcb7BLBpMV5GO6wUQrYN0Lpj2xTpSgPpACwAtLTLkuNEAaQiCIAgCRLvcaBOqQ9+Xmn9W47wneewy5aS9BYdqEQxLQZrjSktiHjlBuqQjzS0wzB3rqEEaY8IhCIIgaIohmgPIOZ1nF0BXvZYnXNUAj1BOWkU6FEhfHwnSMYNaRmD6lOPWor42wTmm1Z1kJLgk1rGjykgvAaQhCIIgaIoh2oRp7r+58BwC6HO2bLl4Wp6X4GAWWtdHQnSuLh47NDd6zhGpaAOe90XEOXYLQHqnB6RdrQHvG7y68bKZGXziQBAEQdAUQ3SJZeu+oQP0aVdt2jSVT9D2wYun3r/lhNONtoF0blc65Ey7QLotmE7JRu8ulI/esQ7SU/s6hiAIgiBAdD5o5kY4zr7mjmun+klyDGYZFhjq69YEdzolL62D9JwlTpEbqOcEfaL3FYTonQJHmo7Tvb/wE0w3hCAIgiBAdDaQtq0rd37jOO0fnqWTg1nGXGndjXbFO5pwpgmiCSo5EJ3TsZ7L3J2jlBtt5MgB0hAEQRAEiF7NWjyorffc+pk78QydlD6YRcG01Y1uIittg2mXGz0nAOg5oducG6SbcKMx3RCCIAiCJgei9eK+tuGZ1oW37Lobz8641GCWCp7NAsMQSF9fEKbVCoG0BKqlwJ0CzrZWdxyYlmaj9aJM6myC6YYQBEEQ1G+ILg3PNoB2wfTM7Y88imcmoHowCznSXje6DZiWgHQqXM9lyEHHtrmLcaPN7iY7MJQFgiAIgnoL0aZL3BY8VwB92/x+PCs8jQxmsWWjORGPEkBNEL0zEpxdX8sJyk2C9Gwg1rHjZC9pvKIhCIIgqGcQ7YLeHPDMjW8AoONUtUx77PK/qzLSHIjOmZUOgfTuDEC7jwnVuSMdEpBWAL07wo3WQZp6SWMoCwRBEAT1C6Jt8MyFaV+7Oi5MX3LPE4fwbMSpAq/tgxdZsY4SQG2D6VsNkN5dyDWeK+hGSwoMJVMMZy2Rjh3oJQ1BEARBvYNoV/QiFM3wgTfHeVbr8rv2fhfPRAZRTpob6yiVl7615yC9OzLSsVNzpKWdOkbz0dUxq0a/QxAEQRDUD4j2AbQv7mFzmrkgTQCNS9j5VPUfjgHpHDBtA+pb6y4Uux2Q2jV4js1Ex44D3+FwpddAGr2kIQiCIKgHEB2KZMTGNELjvAHQ+VXFAW4YvJEM0ikwrYM07YsCzd0Ot7erAD1XqEuHD6AB0hAEQRDUfdFAEx1sObCcCtKXbv8iALqwNl42M1N1fIgBaROqc8Q8CKRt8OmC6d0twrPEhTadaClIM2AaQ1kgCIIgqIMy4xxcoI5dCqDP2bLlYhz9BkTDPFIAOidMu0B6t8MBLgXWuzO70GaUI7XdnZmR3g6QhiAIgqDOyeVE+1YMTFfwXEc40H2gWVUAFhvvyJWVDjnSPpjOAdW7hUWEcw050TsA0hAEQRA0ERBdaikH+uxr7rgWR715VScuN234YZZ4RypQc0DaB9O7mZEMyffGxDikxYXSdncGRFcLY8IhCIIgaPIhWrnPtL1y5zeOU3QER7xdJbvSOWB6uwCkQ4DNca13e/o/zwXgPacTnRjpAEhDEARB0BRAtA7QtKX7wdHuGEynOtO3Jnb0oB7SZteOUlC9O2N8g+NAS3LROwDSEARBEDT1EG3Cc7W9+X5kOTuqqoUadfFoKzNNIL0zA0Rz3OQcrjNnYmGBDh3W0eoAaQiCIAjqP0Tb4JnWzG3z+3GUewTU2wcvJjnUMUC9XYPPXM50U8uMcsTGOWJA+lYUG0IQBEFQbyHaBc+0Ltj+2PM4wv0U9ZmuAI1cailU3yoEanLBdxgObh+A2hblSIFoaaQDXTsgCIIgqD1deMuuu7NENgyAvuSeJw7h6E4QVM/MbKyjHwtDsOZEQLh5aRdIdxWoud04csU5XBB9KyYbQhAEQVCnIXrY55nhQF9+197vYhrhdIha59WO9cIwCkLrVmNYy/UMV5pAersFPG0OdZtQ7XOgm4xzGCCN/usQBEEQ1DJE68Bs3rZBs74wzhsiPfLI/ne8e/Pmy8ghHUK2crGVk02LCgsJnnWQnj3leJYOHTl7RzfV9i4iFz3c3vsLP8F7D4IgCIIahmhfREMC0BjnDcWI4I8WuakE3+rfvViXrf3HsejxuNbpV7//A65FJx8xi+4TryYIgiAI6ghEh+BZAfS51918NY4oBEEQBEEQNNUQzYHnSz++d/W9t8+dwDhvCIIgCIIgaCohmgXNGjwrgMY0QgiCIAiCIGjqIJoFzQY8V4uGqdz+yKM4ihAEQRAEQRAgOgTP9cI0QgiCIAiCIAgQHYBmfWGYCgRBEARBEDS1Ou/2+3dJ4JkWDVPBkYMgCIIgCIIA0Qx4piJCTCOEIAiCIAiCANEE0QFwVltMI4QgCIIgCIIgD0Tr8KwA+szNV1yEIwZBEARBEAQBojWINsEZAA1BEARBEARBFlGfZxOaTYA+Z8uWi3GkIAiCIAiCIIgB0QTQ7968+TIcJQiCIAiCIAhiQDQcaAiCIAiCIAgSQDQy0BAEQRAEQRAkgGj0gYYgCIIgCIIgAUQDoCEIgiAIgiBIANEXbH/seRwNCIIgCIIgCGLoipvv30ULRwKCIAiCIAiaVP1/kzjhet6EsAoAAAAASUVORK5CYIKzxIU2nWgpSDNgGkNZIAiCIKiDMuMcXKCOXQqgz9my5WIc/QZEwzxSADonTLtAerfDAS4F1rszu9BmlCO13Z2Zkd4OkIYgCIKgzsnlRPtWDExX8FxHONB9oFlVABYb78iVlQ450j6YzgHVu4VFhHMNOdE7ANIQBEEQNBEQXWopB/rsa+64Fke9eVUnLjdt+GGWeEcqUHNA2gfTu5mRDMn3xsQ4pMWF0nZ3BkRXC2PCIQiCIGjyIVq5z7S9cuc3jlN0BEe8XSW70jlgersApEOAzXGtd3v6P88F4D2nE50Y6QBIQxAEQdAUQLQO0LSl+8HR7hhMpzrTtyZ29KAe0mbXjlJQvTtjfIPjQEty0TsA0hAEQRA09RBtwnO1vfl+ZDk7qqqFGnXxaCszTSC9MwNEc9zkHK4zZ2JhgQ4d1tHqAGkIgiAI6j9E2+CZ1sxt8/txlHsE1NsHLyY51DFAvV2Dz1zOdFPLjHLExjliQPpWFBtCEARBUG8h2gXPtC7Y/tjzOML9FPWZrgCNXGopVN8qBGpywXcYDm4fgNoW5UiBaGmkA107IAiCIKg9XXjLrruzRDYMgL7knicO4ehOEFTPzGysox8LQ7DmREC4eWkXSHcVqLndOHLFOVwQfSsmG0IQBEFQpyF62OeZ4UBfftfe72Ia4XSIWufVjvXCMApC61ZjWMv1DFeaQHq7BTxtDnWbUO1zoJuMcxggjf7rEARBENQyROvAbN62QbO+MM4bIj3yyP53vHvz5svIIR1CtnKxlZNNiwoLCZ51kJ495XiWDh05e0c31fYuIhc93N77Cz/Bew+CIAiCGoZoX0RDAtAY5w3FiOCPFrmpBN/q371Yl639x7Ho8bjW6Ve//wOuRScfMYvuE68mCIIgCOoIRIfgWQH0udfdfDWOKARBEARBEDTVEM2B50s/vnf1vbfPncA4bwiCIAiCIGgqIZoFzRo8K4DGNEIIgiAIgiBo6iCaBc0GPFeLhqnc/sijOIoQBEEQBEEQIDoEz/XCNEIIgiAIgiAIEB2AZn1hmAoEQRAEQRA0tTrv9vt3SeCZFg1TwZGDIAiCIAiCANEMeKYiQkwjhCAIgiAIggDRBNEBcFZbTCOEIAiCIAiCIA9E6/CsAPrMzVdchCMGQRAEQRAEAaI1iDbBGQANQRA=;" vertex="1" parent="1">
          <mxGeometry x="360" y="50" width="216.84" height="80" as="geometry" />
        </mxCell>
        <mxCell id="ztNJ0AJeoRaNc8H2oBHc-5" value="" style="shape=image;verticalLabelPosition=bottom;labelBackgroundColor=default;verticalAlign=top;aspect=fixed;imageAspect=0;image=data:image/png,iVBORw0KGgoAAAANSUhEUgAAAr4AAAFxCAMAAACiD1u7AAAABGdBTUEAALGPC/xhBQAAAAFzUkdCAK7OHOkAAAAgY0hSTQAAeiYAAICEAAD6AAAAgOgAAHUwAADqYAAAOpgAABdwnLpRPAAAADlQTFRF////AAAAAAAAAAAAAAAAAAAAAAAAAAAAAAAAAAAAAAAAAAAAAAAAAAAAAAAAAAAAAAAAAAAA////AuJdXgAAABF0Uk5TAAAwQCBggL/fz69QEI+f73CiEHkmAAAAAWJLR0QAiAUdSAAAAAlwSFlzAAALEwAACxMBAJqcGAAAHCRJREFUeNrtnW2DqjoMhO+KgiiC+///7D37DjppkwIN2Hm+nqOLzFDSNE3/+48QQgghhBBCCCGEEEIIIYQQQgghhBBCCCGEEEIIIYQQQgghhBBCCCGEEEIIIYQQQgghhBBCCCGEEEIIIYQQQgghhBBCCCGEEEIIIeSBNxOHqqqOto8UgLeGBaNU6Hiqm/P7D+2lvnbeptkO3hoWjEae6+3PuX+0NcfhL7w1LJioNscaeffbwSeOwW+0ryMRZY79e5ChpoFpXz+CusTM+2Vgb/e4461hwYRkuQ9x9/7jXHn7xxlvDQtGFuXYqMz7wa3sCMJbw4IRNbnqht7vOdzB20KeeGtYMJIktcG8HxHw1dtDjnhrWDCCIoo52wMnbxP54a1hwWBB7O4t2b/eGhYM1CPFvQX711vDgkFypLm3XP96a1gwQI17onvfh0LzD94aFsyzGFWqe9/fz2Xmf701LJgnLbpzun3fL95OcsFbw4J50uIyw72Fhr/eGhbMoxQzQofP8LfE8MFbw4J5lGJO6PBB7+0l2rckHpRIzjr8UuAWDG8NC+ZBiUCdztCfvhJj1T0UHxc4/HprWDBTIU6iK8+TSVlXyz4vb/j11rBgpkJIke9wf5Ssu3H4/cFbw4KZ6CClHWA5r1QQXF7ywVvDgpnoIBQ7tNiQB8G/xeV+vTUsmIkO2I+tJJvg3+KW3rw1LJixDFc8aZODgQMefr3tlBtvDQtmLAOejYX2EdfmT7wi3hoWzFiG1p5IgKmK0jo/eGtYMGMZ4FAaziPARHHj7afMeGtYMCMVYNoslsVFw+/g7afMeGtYMCMV4Ega20AB4+XCMr/eGhbMSIU6ZSCFyYfC5m7eGhbMSAU0kMbDWNqX9vVjpALqaRZPIqBP3aOfeim8NSyYiBHT7FtY5sxbw4KJGDEeBvS0r7eGBTNSIc2+F9rXW8OCGanA4CERbw0LZrYR0Uozp24kDyMVUN6XiTMF3hoWzEgFWD4Wk66ifWlfP0YqwHLfWNf0W4rnXwxvDQtmpAJc/41tnUAbLliyQzIxlgHZN7LvnQWTb7SvI2MZGrMXO7jbrbC8Ge3rx1gGvPUnFP3atxe9It4aFsxYBrzzMtAzHTflKS30pX39mOiAm+y0UvW5sNG4uDY73hoWzEQHofFTi6dvldCmpLgTCr01LJiJDsJw+j6gaFbqpXr2dlN2vDUsmKkQ4incT4duH8T/asw7dFV9a5r23zPSNJf6tMdpn7eGBTMVQm6QOtzGEUQVOPrNsk/z2j+H2819b+dreWtYMA9KhM4GaG/X6vh2qE596H/pJ25VLzUJPt931STYW8OCeVDi+j6TQWu8U/gUjX5HQ7C3hgXzKEWjtKmEMvI9xY+AuexmBPbWsGAepTgoLBpAd67moVV92W0n7U68NSyYJy1qlbMkNIkD+VyBp4dhH3kIbw0L5lkM3cgojJcKsZVDr/4L3fHWsGCexTgOBntNaRVan2xf3+wggPDWsGCAGsnZB82hLOZzD9vtpyC8NSwYJMfJarFv9yqM1q/ztbRvoUA91HOrCYp5VoJ7d+Bfbw0LZjmbKc7DSjwxeesnxXlrWDBLGU0zRCYGJYGK423grWHBiFazJQjOCvce0lMa266A99awYGSzxZd1/7gohsduTkJ50yd1emtYMAG7qSdwg6qnWdp88OdPbLkAwlvDggnJUukG4EZlrUr1XfIf8fYo7btFwsLU8XBVW5cwJ3T4YMM76Lw1LJiIMl0dHoFbbVCanHX4fUy8TUr7bhCF8S6So4ZeXxEWegrO/b36x6kOFhtvd/bmrWHBaOQ53i8D8NzVkI0NDL7jfRXdXbb5dodfbw0LRivRY97AGIqKrnzaUyEnnDc7/HprWDBaiR6r2G2F5FLaYQBPQScFK5tNPnhrWDB57CvUUAjte6QNH1vN/XprWDB57IsDArGUQYiUt3rii7eGBZPFvrgAPrCShkdrzWYO2rcostgXrxeHZn94kWOjhWfeGhZMFvtCMwZPzcD79Te68uatYcHksG+XMBGD4cNG9x17a1gwOewL02aREt4j+sxGU2feGhZMDvvCrRuxL0DZ340eO+CtYcHksC/K40aXgGHyzNuo3hyqU13XzT82GkcJ7Nq+qBInuv0HRg/7aBq1Cof7ZTwD3mgcJfBy9o13olzOvs0zW997/0D11FJ5Yt8T+IXelzzh5ewb/3zapxB7H8ZRN9mJPVF05n3RE2jfYu2Lt2zRvrTvDuiEaifal/bdPkdpiyDt62rfeO05qlIrzb5yZxfa19W+0bwlXGkuzL6dvHWK9rXY9/AYglmOrkLhW7T4ERZZppWc7da+ga2rtK/WvhXeATxctBaGuydin4VTlrSbt1f7hvok0r4q+177UKeS802T/4cDaWTrRIf+bGK9+k7t24XuPO0bt++xjreJak/RNzos3o0UPcCSh8RGkzu1b7DJMu0bs+9R2aR6qGMGhsNIcPjFk5bEzW77tG9w8KV9I/bVmldjYLj1Pdg0Em82TqxU2Kd9w221aN+QffXdUb+9GBwY8RwkUFWC+0Kklvvu077SgsX59tFSa/Ik075TrvZG6KEDrISjtsRQVsjWp/ZY36V98Q6r9wZdOe07uXNiU74gUg1kJ4Yhgh+ltabUnZq7tC9+5PFLjvYdYToWYDIywAg41CO4R5+ohA8k9+jbpX1h9H/X/1/v65+Q0b4zOvGC44UiHdqfm1vLUXe8wl1gl/ZFS0XSbIH2/SXp5MBfHipxjk30E9NgrguM1cktznZp39Zw1bTvD/PcO/WvMn1xvn3Lcgwu8aUfjrVL+6IbJf1f2vebue4d+/duSF8MTRMbqNP7S76KfcUqPdr3k1lHr/3wPUpWS3yXRrskJ2zevihvJubWad9P4pGqho/x95iWe5OZc67xHu1bWS6a9v1gfuTw7d+unv8lD8zpzkf7epPDvonnvQNSE8cyl+Q790b7+pPBvjOPvVyV86zOvjnt21XfzGyEsl37Hn5+oWEuvb59u/Tz3ldnmOeFTPat6kkbp/dzU6f/mS3at7vWzcQlbX/XKbO+fZeZtq3DzCOxMtj3eBfmqpfEa9+cfQ83nEo69woHr27f5QJfmfM1LZk290A3k32l5GEocXcKPfvDbfyWBf9zvBiuvicz6n2FiqhQ/XXouMh/uo4Fgs/d2vZVhg5t0zSpQcZHSXBSYnn2cYTohor/WRhF5TW/2LHP75PKJH/7SvV88m2O71wYGdjFvvGcWVtXPyIcrjd7buH2+ekE/84/TBPdUOn/CjdCdm+teZz/qvnd7SspIN5m3bab9ueOetg3lnU4P+2JP/SmUbj5+by1lnhY4ChYdEOF/ypUaYjurbTP8c8N8Lav2b2qx3P0MzzsG563neFv69Q/7F/QG7nX8ieXaMSLbij+n0KxqHR+ouVZHKpN2FdQWnLvwfC2/LpLDvYNDr6DWGerVO/xCyr9uN0vcpIbuqFLuNdY13/agH2FQECal9om9J9jjYN9Q4NvaA+bak/cswU75er0eaFz3NANRf9PeIol95rr+k/u9rVF9lqdfvnIz+e37yFwRZHx7xh7ueA2/JUmyxxtH7GwfQ+2k5cTKkROzvYVBlPJvfZp9tA52DcgRLRGPPwbz+KM4BS5N0O/3Pnx6Iaq3SulQ5Pqmw6u9hVeF4LG0ZEJ0XbZ7dvJV6PY4RDyb3D8rAIGON+XPL4Y3VDt75DWq9Oq886do32FdgVCNdQxLb/fZ7evHMOp9ucE/BsZQLsTnPvp+v4tbN8s7v13R/3sa4uNkncuoNTjqvYV8wfKho7yc6roSTatcxma22m5oMFiX5t70+uZwb3KY99M7oWsaV8xdhi0RrpK36BuaGquwFvavsJoKrh3Ri8BQBb7dqvPSwOsaV9RC30/R3H8XjKCXdO+glrCxPOwbG1pDvsKo6nk3oULuNa0r/SgGXpBH6XrXmDFN4d977arX3gTagb7GiP7w/uyrGlfaenIUhIrNXRI782Q077C+0dybzTwPX8dy6pdk4OrmsvW++IhStwFEH0+269fqPyBa9pXGjlNHcWkL0ns5r8wEScY3Su+aj5p7qOvru6q5Rn0Vxa1r9G9wedz6E9/n+t0tYcr2lead9ne+1IEsro1NYSdYO3GGnDkuX6afYYLvfPYF78bRfeGar+bZ1soag9XtK/0qNlmXdJDsIkdvcHrsrpXLm+SWnSfIgZe277C28Va8vwuNBf+qD30s69wsdad6eYS/oyEtOusnbDFuPAiPvAReVe2rzE2koOjQAf9SCvGFe0r/GHrKShC7iy5qemSBJwgTMll90qDb7isPphqW9e+QhZBvlwxExVcCw2m2la0r3BjrW99YYDZROpB/nmCewOnbghPe2wrf7AyBH1gKfsKD47sXmkVq4lEk6Ha2RXtK/xFq0WEUamxfs8ayE7AI00rKyW8WeONKAL+XdO+gnsD79bkcSjwhsluX3MjfuEdtW37mt1rncSPkP27on3NsZG0DNAqZvLypDa7fe2226F9sReDSuERRrUrRByd1rNvgnvxMKRr0iWWH6xn38VGzf3ZF9/toFI4P6hsPSwlF9ezLw7Ug3EAfqSVMyGp9mU9+y4Ws+7Ovti94TgAiqvuH2jJzixhXxwbhaNYGDtoW4NLCx607xygE/BrJxLFQnHVSRpB3bXsK0T2wUuEd0XfGlxaIVnNvovZbmf2xZFoxL3HmT8Rz+pXsi/OxEbmYPBDhrUnPPHLbl/z8cE7yzzcU9yLBxdDhhwPv+vYFw+EsQwCim8sXsB/lXnfOSBJ4NXGMggo9DWlGOH7fB37JrkXjp6mlVMcXq1n33VX3WacB7QcWnGjL0k0kzetrsN3VD77RoNYuORm2sMFJ7fbr3kQvmarNQ9J7oWPum2Dnnp0W8O+8dUV9FdtNdvwAc1fcWZ96ydbIgNLuRd9kbEgHw1OueyrWBtEoatxBEIPKOt956ASV6ESspQxOrpq//Ly9tWsbNeWv4pBw+GK9pVWqm3jprTeYvvpK6ERVzOKoltl7CKIUm+Z7KsRdIFDMuATsJ59pQK5197rluRDNHRaGwL52Vez+ABmMFYJczeJkrayWIZfqcR5E+W+OvsqmrIscYBPpEnULyvEvorpTJP0qfiFr2hfyXqG4Xd/fR4A8WFm5/ZVhPfg6sypz8z2LbLLDiIqFHCJeXXS077xSEd7dca7/eI9zo7fx4xa71T6DYXEwl/gEvOqoqt9o7VxO7Sve4fJcfDd9Hk6TMLSlNjzuqvRF1o6tn98Afui0ZD9feeAbij0b+R5XSL2BRPllSrOoCyRAQXY1zr7zt9dXd5jp3j0zHtof39n4FyiDN3VG/MFw+fcep3aPzrfvvilGB4ZFsg8oEjS7WyLqH8jZ1uI4WSs9cxwW87A0An4oQ2G3yZL6b9irXJ1OCUJh79gTdsaHmVetniLnCwUvtjUk4UUPUaHlU8WguoGc/vIUsbSJnVRwWqbhYLhL/oi41wEvdU8z3ULXX7iuW7KwyiHdc91g7V9oXclmpUYm2khR61m3w6+4UIPHJoRGHP36E/u+1TNhxum8fyPOdY8VRPHPbXti4zv1kH7FxfZaYxfq4HwF/1V29wNvtP2fqbx+MbftJ/6/OSaZxpjdQPRLLpNpjcEFHfFNiUwexYIf9H7xfaAwoDF/UT5erET5dUtub9v3ponyuPsr6wu0sY0OGXcLPT1L/BuBwIeJKrpAcUT4pXtqzhJpr1dfyx4OPW2w6g/+MokJBy4NN+/shNg9COHv9DuhvgGL3CuaV+cPZPDX2R3S+os+1bN7xurG0sHw4EGT5+9Jx4XNtu/shMMW38/0G9V09ts5Q6TeEH/YPkmS3Iw+0b5bxY+CgnSXtPO5Jnr34AiOGoS9UJu1zfxOOZtU/KFrTEQvB/64Td/m5IflMksF2b6N+QEqK7oSHiT1NGvEKGta1/8whPDX/tizoj8TaKif3oLaLZpJdoXlwZI440Q2ukuQ5ofr3w4AM6vSOEvrkJRvmCkpFIG+0azD56ou+DZ7XuwhL/djKvrpOnu2kez4LjQdN6t7gUjOiiHfRcMf5cfyK0nxejtK/xswSo4xFIFh2J0tvrBWHC2LTxzQvW3JnyTC2ez2Hexc5hP0ZOS7MxZP444AfpKCH+FynzF6CTf3NXti+NC4ZptxzuP/4o8L89j34X8+/FLj8n5NQH9/N5sX/xWF0ZUIQKI+tda1bfoqZr4ocOOTG2cEMqJZrJvUlr2ke8tY5V9ZUPztSvYV1AMh7/SeyVSnREaGDKcaYzzKzj8lTwQ9u8hZJ1M9l3Cv3/j0N0QAp/j6yHpm4iiTsCehG4REzShY8/CZaUZ7Is9iftNiptv+sATGi7DymXf+fHD+BntdNU5bf2ty/EaKqRI7xkRdwJUF8crclgv1idHapty2PdgCH/F1+ZZPKU8smiQz74z/fvwAxUhcD8ZtbrALozk4TfuBDxphumOQH4cFth3sX0lWewr5FegH8WN4/BE7n83L2qZjPYN7NyMAqKpa1i89kkSechObraqcAL+0TC3H8wv9tepg6+Kwrws9hXyKzDiCY0559v0Ko4nxSQ9p33fDqmTLnxuaOjVCcOpSviA+ahEg32FrCxUNzI/aPv6+tG04lrfdOmXPPbFbw0Y/oY2j33qfKs/23Kcpk0OZLLaV72ZRyPDx9eJLxchnJUO8EvN/WqcgLNn5xR1F7lvi9tXyK/02u+bQ177mvbz/BCaeVuT/YJ/UydvKidgU8Lwd2F1M9lXqEiA4e8SCdTxhWe2rzZp8MsQ3HGLw8XAUiseKVKjB50TsCnh71pW3Vz2FfIraNg5LLvsn92+mvnk6BZE9rTjaUMok4C9lFh4pnRCo/6by1bnZbPvUR/+zpi/owvPb1+9geMNGYw7Vt5S9njPty9WF4e/qf4dwAiYzb6WcrLkACnz2RYhjnV8ZtmeotUIMKyMRALwTicGv1on4BAdhr+po9M1W4s++B/xnByGv4n5/yF/k6gQ4cRle9OsJei3h/8B38+JZw2onYAlg2N+mn/7fB0m8V2FwxHO/qb595q9RV+MQ90gL53VvUzhiyj2WXj3LKb9Q+0EoaIcqpvi339hpq99hTkxLn5I8e8tf4dJDU9xsKUFJLoP0YEUDtlpVZN6J+DsGa7stse/H0UUzvYVYtre8H9D9A4NUlU8/hRLZ0U0pY/WP8Ky/7T+64Yvwik+vNcj2p7wgc93tLd9haQfXhE6GZ/Q/q0U+8ar9+EU1vBX/7B8Ec6e4ZSHLTn+9YZ2ty/OrwhZzIPpCe3FC385+8Y/n/YphOWLhJSukHE21OR/l3e421fIr7SGr8Z8t/Oifed8CmH6IqyutJlY26fwt9erv32FKZkUzWm3ff0UDdC+cz6FsH0RjgjErc6qxZ2/yroN2FfIr4gFUZXCwH+dFGnfOZ9C2L5I2DAlr/gdYyNwPwosN2BfIb8SWMSvIo/oebTuWoZ947XnyBNp9q2eCWXgjhUiWG8RWNxppynGw/M3Q9t0lotGVxy6XHAR0nX8XM5dHoIvk2k4vPCXs290/RceNLvWwYULUNXPP3O43Jc/pc6L7nR7fi+d+3jNwD92bV/0bosWP8JVLQfVLByruu6bTy51Xb2OdX+prnX99QObvr5X2mWkXdsXrgXEvgBVl5jPsMzDauKQGDnsCxfaYyduoc+YTxCmfV+cHPbFbd/Cr1Y4153RaYf2fUly2PfN1iH5Azj4zurTR/u+IlnsezObEadpljzomPZ9BbLYFy/EBnqm45X2xGp12vd1yWJfvNlNqJJ+E0vBE7e60b6vSx77CouOwnnJ0kaGreZRvTUsmDz2lXoeD+BrxKY8G02b0b6OaCV6nH0ZkwBiXWz/OKTKDRkXOB6W9n0xNPIcT5fn4PXcWxwc2Ng47pAa6iaa3KGP9n1dFM4TG/YNvT6ECG1LOPf3r4aFwcLSzQ6+tK8fEWViuwlaralmdx3a7uBL+/oRFkaxFeasjCHmtrXb7uBL+/oRkkW5EbFRJbRmHto561xC2vdVkUXRbwMfVOsJxparD39iqzlf2tcVURPTEQGNohph1qFbGy3WoX2dkSQxNlg5K1rvzuh5nH4oFu370giKmI/nHhT+vVq/9Iet1urQvt5gQVKaCypSA4nZs3ajhZK0rztQj7RZlmINI+mLNz1to31dQXIkDpKa+CHBv5qvpX0LBaiRHKJqhknzo7H1yIH29eRZjBkJAs0Uy3hk3GX77qV9/XgWY056VrMV2NQzNvkcY9q3CJ60mHdkpKoETf0nzhtuCkX7boFHKWYe2HtWvesPyrOqdxA40L6uPEqhbEY8921/ii9J91vPl9G+/jzaaqZ79UnaiIH3Y17a15EHJUKeautr9dG/9XQL/S99ecJVXNs7W47d8sdbw4KZCiEPvkM9Hg5D7bYNw2Z37Z+fhOa++XUK2ncrTIUQI9/b43Aon9hhzHV1VX377hjbXOrT3qxL+7oy0UFKO6B2DGJR2kab8K6It4YFM9FBqEho8ZBYCetnmy4tXwNvDQtmooOxFZmwvLzt2vIV8NawYCZ2xMGAPBfDM73iogdvDQtmLANezA3FAjja2MdS73J4a1gwYxlgMiG4Qx2fALyLOpsF8dawYMYywKE0nMaF4cNmW0GuhLeGBTNSAYa+sfYgaPgtLfj11rBgRirAXRaxLBiMfr39lBlvDQtmpEKd4kTY+6mwuZu3hgUzUgHZNx7G0r60rx8jFdIOfkdbf7Z6hspKeGtYMCMV0uyb9qmXwlvDgokYMR4GXGhfbw0LZqRCmn172tdbw4IZqcDgIRFvDQtmthHRpzh1I3kYqYBWIJg4U+CtYcGMVEB53+j674H2pX39GKkAy2+SFo13tU94Pt4aFsxIBbj+G9s6gfbMs2SHZGIsA7IvCybjeGtYMGMZYOvH8PALG5YUljejff0Yy2Df+lObP/GKeGtYMGMZcFv1QNNI4aRMbzvlxlvDgpnosMxG+S2f37oK3hoWzEQHoXOZ4F/pFIENH569Dt4aFsxEB+nYbNhmRzqkYigs60v7OjIVQup8+nzotnxgd3FNdmhfP6ZCyA1Sz5OQ4FjL5wPtqK/0QnhrWDAPSgQaTw/9d/fS6n6R/1eBgy/t68eDErMPByhw8KV9/XiUIn5kShjNyW6vhreGBfMoRTXPveWlHWhfT560SDtN/ofiWlN/4K1hwTxp0c0JH4pbcPvEW8OCeRZjxrmaujM1Xw5vDQsGqJGcfRj2eCzQAnhrWDBIjj7RvkUGvm+0ryNQjzT/Fleq84O3hgWDBUnxb7HupX39EBSx+7dc99K+fkiSGNO/Q8HupX39EDU5DQb3toXmHL7w1rBgZFGOrdq9tzLzvT94a1gwIVnuugH4XNrO4ke8NSyYoC5HxQxuqMseet9oX0ciysQMTPO+0b6ORLU51nINT3uied9oX0c08lxvyMFtXXS6YYS3hgWjVOh4ujV/Hm4v9ZXj7i/eGhaMTahDVVUFbmaL4K0hIYQQQgghhBBCCCGEEEIIIYQQQgghhBBCCCGEEEIIIYQQQgghhBBCCCGEEEIIIYQQQgghhBBCCCGEEEIIIYQQQgghhBBCCCGEEELI/vgfTlR0jUBDGkUAAAAldEVYdGRhdGU6Y3JlYXRlADIwMTctMDQtMDRUMDk6MTY6NTErMDA6MDCHa4BVAAAAJXRFWHRkYXRlOm1vZGlmeQAyMDE3LTA0LTA0VDA5OjE2OjUxKzAwOjAw9jY46QAAAABJRU5ErkJggg==;" vertex="1" parent="1">
          <mxGeometry x="730" y="39.89" width="190.64" height="100.21" as="geometry" />
        </mxCell>
        <mxCell id="ztNJ0AJeoRaNc8H2oBHc-7" value="" style="shape=flexArrow;endArrow=classic;html=1;rounded=0;" edge="1" parent="1">
          <mxGeometry width="50" height="50" relative="1" as="geometry">
            <mxPoint x="600" y="89.5" as="sourcePoint" />
            <mxPoint x="710" y="90" as="targetPoint" />
          </mxGeometry>
        </mxCell>
        <mxCell id="ztNJ0AJeoRaNc8H2oBHc-8" value="" style="shape=flexArrow;endArrow=classic;html=1;rounded=0;" edge="1" parent="1">
          <mxGeometry width="50" height="50" relative="1" as="geometry">
            <mxPoint x="720" y="140.21" as="sourcePoint" />
            <mxPoint x="610" y="230.21" as="targetPoint" />
          </mxGeometry>
        </mxCell>
        <mxCell id="ztNJ0AJeoRaNc8H2oBHc-9" value="" style="shape=image;verticalLabelPosition=bottom;labelBackgroundColor=default;verticalAlign=top;aspect=fixed;imageAspect=0;image=data:image/png,iVBORw0KGgoAAAANSUhEUgAAAgAAAAIACAYAAAD0eNT6AAAABHNCSVQICAgIfAhkiAAAIABJREFUeJzs3XecVcX5P/DPM3POvVtoAipIkyYgilJ3aWLDFltiSSzRmKIm1kRjT4zGxBrzTWzRaKLGEvWniZqosSt9aYoVpAioiBSBXXb33ntmnt8fZxcQQXbv3u2f9+vFS9i995w5d9czz5l55hmAiIiIiIiIiIiIiIiIiIiIiIiIiIiIiIiIiIiIiIiIiIiIiIiIiIiIiIiIiIiIiIiIiIiIiIiIiIiIiIiIiIiIiIiIiIiIiIiIiIiIiIiIiIiIiIiIiIiIiIiIiIiIiIiIiIiIiIiIiIiIiIiIiIiIiIiIiIiIiIiIiIiIiIiIiIiIiIiIiIiIiIiIiIiIiIiIiIiIiIiIiIiIiIiIiIiIiIiIiIiIiIiIiIiIiIiIiIiIiIiIiIiIiIiIiIiIiIiIiIiIiIiIiIiIiIiIiIiIiIiIiIiIiIiIiIiIiIiIiIiIiIiIiIiIiIiIiIiIiIiIiIiIiIiIiIiIiIiIiIiIiIiIiIiIiIiIiIiIiIiIiIiIiIiIiIiIiIiIiIiIiIiIiIiIiIiIiIiIiIiIiIiIiIiIiIiIiIiIiIiIiIiIiIiIiIiIiIiIiIiIiIiIiIiIiIiIiIiIiIiIiIiIiIiIiIiIiIiIiIiIiIiIiIiIiIiIiIiIiIiIiIiIiIiIiIiIiIiIiIiIiIiIiIiIiIiIiIiIiIiIiIiIiIiIiIiIiIiIiIiIiIiIiIiIiIiIiIiIiIiIiIiIiIiIiIiIiIiIiIiIiIiIiIiIiIiIiIiIiIiIiIiIiIiIiIiIiIiIiIiIiIiIiIiIiIiIiIiIiIiIiIiIiIiIiIiIiIiIiIiIiIiIiIiIiIiIiIiIiIiIiIiIiIiIiIiIiKhGpLEbQERETY0CNwAoAJAEkAJwPsAuo2XhT5OIiAAosByY9e+zBu68YvpEE63fz0eZNjCCUKQ0FXacUtZ5zyl7d390Fk5k19ES8KdIRNTa3ahYbI85JfFZyQ+g2idAppsVJJ0EsHCAKpzXDGC/SNv8/5V3HPD4wFEv/Q8T2YU0Z/zpERG1Yreqtjv+kn43JKK1J6nN7yDqYH0GHoCTAAqBisAoECACVOEha70tePqz8x66ckSv/VY09jVQdhgAEBG1Un/XL9sdfNHed4S+7CRjrI07d4NIAggUFhEUAoECEHhYKIAQDl69T5uC592Ag67qfeb9b7E7aX74EyMiaoX+qNru+Iu63RFo+ruRTYbGRwAAA/+N71MIDDwECicBUhpOx4CJF/Y+628z2KU0L/xpERG1NjMUHz/W87akVvw0bQts0pUj0DQik4DuoFsQ9VAIvAQwcAjg4L2bvXbkj88adMofZjfQFVAOmMZuABERNSTFJ08NvKat+/JHMNYmXDkMHMptW3jYHb9bDCACqRop8Ap4mzd8p1kP/fZO1bb13XrKHQYAREStyOL/+96RYXrlmamgTb5XwMIjIwlYjWA1s8P3x3kAAqvxlEEkIVQViuiggy7f+1I8p/V9CZQjDACIiFqLuYpw2aSfigm6eMTz/U4sDDwMPLzseATAwEGgm15r4GE1ghibaJteedaCeUd+q56vgnKEAQARUaug+Pg/+59hkRkL9Qj9jp/2a3ZUQUYSEO8gqp0Lvpj7o39xKqBZYABARNQaXA2YLz86PkSmfaXkwUvucsCtOiiAyOYh0MpvDb1yyPkApwKaOgYAREStwIdtjjrKICpWGBhVaI5u/xKvCYCKgfgIMGEiWf7pyW/96zd75OQEVG8YABARtXQnKApWzT8mgO/oYBHUINmvNlQMFBIfVz1UzJ6dpj7wKzzOUYCmjAEAEVEL9/J9n3Uy0YZ9TNWwv0p1db/cEWhVIADABAgyG46Y/9FhJ3IqoOliAEBE1ML1vu0HE61GA765xl/uGJ+BGNsxf828i1YsfrVXA52WaokBABFRi6ZIbPi4SIC22kAP46aqtoBRPyr663k/4yhA08QAgIioJbsbMJkNg4xpuMrvTgJYzSBpHKRy1Qkf3vvTsQ12cqoxBgBERC3Ysv639YVqf9+At3tRhVGHSAEr6F344X8vxMMcBWhqGAAQEbVgZdNfHGDE79yQw/AqVXsGQGAEsK7ikCVLDzidUwFNCwMAIqIWS5FfsaKneJ/XsH3v5ukGr0Bg0C5v9TsXzJ//Uu+GbAV9MwYAREQtmE2tHywGYUP2/1pVHmjTvxXwaock//7zc/AzjgI0FQwAiIhaqtcA41N7mK065IalUAUCgc2rXPm9BSPOLWqkhtBWGAAQEbVQD++/vr341E7xkHzDBQBSNQaw6V8i8FCoMd2S7//3QiznKEBTwACAiKiFGnT3pf0B7eYBCBqqDNC2eRg4CVCYWX30or+N/ykTAhsfAwAiohZqpy8+2BOqOzXe8P9mViNYzSAdFBYE6xf9YJKWdWrsNrV2DACIiFokRV7Fl4MMkFeXAECQm47CSQDrI4gqAu9G9rqi6BLcyFGAxsQAgIioJZoAuPT6Xs4mxWa5+59AESFYC/WfGHUQRdbJhAKFMxaAIrAqiYqV33u/w1lMCGxEDACIiFqiqwDRdJdQM3ASZHUII4CX4M28Y675YaUkF8AARrPLJYiTAqt2I1QgMkHPNh89f3HLTgjUb/jT+LL7rSAioibtI3tPX9HM7gEcKpAPi6jWx3BeIPltV7bf/5yXllx6z+2Z6PPr8xEVZurYdSiABDKIvD9i8b1jf9wHem9DrlKoPwrMBVbMPn2/8s8+7o7UvruY9MZ+Rp2FwISa8V7ynOS1XVzW7qi3BnR95lWcCjTWtTMAICJqgSrnvjKgHVznCAEMXK3fLwKo+lRFXuc5gKD3BL3t45d7HBIJjszFE2yEAKH4Ardh8Tmfv/3EK132wZI6H7TBKTAPWDjnguHhktmjTUXffdxD0R7OVw4qENdePayx1ioMPAyMOlhfAVe23rcrXfbl0hXd5rjLO76QOu4fjw4aceqKhg4EGAAQEbU4ikTZhK6qJuFNAOvT8FW1+WvyXkAg8d82+LZd3gMAHCHw1x10f2bNvNH54jtlYKFQiAog2QUETgVJpPYsffSaUwH9bdMfBVDgDuCtgQ92K5jx8NC8L/tPsPeXjgR8HwPd1UATFoqMCQC1MEahqgAcQp+CkwAeFka8MYJO+ZKe6Cs/nRA8eukxi6+77899/qNPYnrDfQYMAIiIWqD8jZ8PUDFJ6OaCPDsiGlcMUEFVAGDXtRk89gvgcQBAn3YvP7m0dPejXar8NG8sIBlYr/CSXadlNEJkkonC1IrTXn3oV48feCrmZ3WgeqPACcDb5z7Ru3Da/SMLS/ceW7akvEve4oq9Eq68h4ptCxNWfVYCr1XVFqo+8y3Douo8DInDJjgIoICYIJGP9H6ZNe/1/ejQccn+0/WRhgqEmnq4RUREtaZY/svd/5p0ZT+OENS4CFB1hr9AYQVIIfFSj1M/OQRDN3cVCx84Z3Ty7X89FCLq46EwqtAsAoBIAiRdJZwJIN5p2hbe1/OwZT/BxMbulhRPKTqNuO2E4cnP5+8fpb/sIVHlMBH0jCRsk6epuLKhWHit7vrrPiVi4QGX/nj1wONO2/On90+q+3XsGFcBEBG1MKX6eWd1mX2rcu5r/L7qAMCog1PAmeQCDP3qa/qdfvs0n9/xLusqKw1sPNydBasO8UOwQRTkS+jLTlo6efS5DZ4h/zPFaRs0f+GdPx6+6Oris5dd0vvesb/o+Eq4+LV/pitXXW41faq1sqcRbZPQFCIJkEICGY0DK6O1z6/YlkhCiEns3m7xqz/A1Q3zGXAKgIiohVl7z9U9LVy3eDZfIeqhsuPnPYHCVL3WwQKJNl9u61U3Xad3XfGLLkdamAmhVkJha91GgSIjCVg4iHMwJiw0ZR//cMkHL/yn9yB8XOsD1pgCy4Glr18yrGLZnH3z1+0xIrx63XAH6WYEOwuQUJMEVBHAAd7DiYXAVI2kKAJEqM6VqMnnWrNmxSMpNrOx6LV9b9j9ANTnZxBjAEBE1MKk13zavQ1cgYoBFDXupAQekYRIagoqbt2Gwt2mbWum+A6RjRffcOidBStmDoE1O2X7vFqVaAgB4KEQj30T959/FqCX526GWoH7gOeOWLhz/7//dHThhj33j/64fliATL+kup0hNiFGYKFxJwwB1G0KmlTi7H0VgZN4RYVkOe3xTUzViAhEevR85/kxYABARES1o5CKUf0EWqhau05KYWDgocZAnd9gdx+8GHhhm6/tPfyFx1f8r+cxzqdPDuCzGriPn6jjpEMoEIiTdKb0tOV//t7MHufjqSwOGR/oEuDWK9H2qHuOHZ63dsg4eX/tKPNOZW8RdAfQIc8IVAVqLFRRlakft2hz4zYHTdUBlNnU3tznKagIHACBaxOm1nfJ+Qm2gQEAEVFLMhZIVq7aWyBB7Wv2STz/LxbOSClOuugLnPyHbb90oqDs0ctuKSz560gxpr/mYNraQ5AUt5v/+I1zMV+fwoAadrR7KvBf4NP/fHes/6J4dFTxxXBzTaqf1czuRtDRihixAoc4cU/Vx4l7TaMg3yYKA6sZDdU3SMsYABARtST3A/auij1EpNYdnFEHLxYGCi/h4gG3dV37Ta/vf9L1cxdd9eIdBRuX/V6MFNQ1CBD1cV6ApoqWPFT8g97Q+7c9FaBovw6Y9u9fDC5cNmt0WNp7rP65oq9Fpr+I7RyICaxE8ZQGAqRhAQ2Q0BQCdfF6fDE5yd7PFakqEZyRBFyyXYPs3cwAgIioBXlLX+0G9TvXcvQfQDwk7yWE8WlIkLcA5+/4HZf9Uv9y67XdDk349OGbz2mQzeN1nIQYIRAUBOXLTr9e8f8uF5QBCjwNvLnHpK49nvz1IaZ0zyHBNWuGGXX9vEjHwEiBGoFHEO9VoA4RLLRqCWToUxAAkSTgJQkDVzXn3thLDjdTABYOKUmuRIdu8xrinE3n6omIqM4W33nywfkf/e8JMaZDbZ/IRasDgJRLt+t3Uc9rZ/6pJu9774ajDu+0YtqDPjSd4RVWAV+H3kUAQH3GJTv+U7rt+0L5px92DDLrxye0Ym+B7ymQwrjvrnpubjoP8lnzMMiTDCqcfbP7eV9MQN/67545AkBE1IL4VZ8VAhpm814VgREPiFmXarfbhzV93+Duzzy/7MteT4Sp1NliIJFRmDp0ygpAxISS+vIUXfz68YWioQCBxGMELabT35KFQ8obmOROJejbMOdkISAiohZDYSpX94WYZDbT2x4BLDwc7JKHjvu/GTV+46mCaOSpfxH1C8OqXPa6UgBGYBKI8gUIfLwArwnN2ueWEYECSyt6j3usoQbnGQAQEbUUNwLJqHSYgQTZdJRepGo/AFRcs2b3dbV5b5/jfzdvY7te91YgqMzq5NugEGQkRIQAConn91tgCCAAnCoyYdv/9T37vlkNdV4GAERELcUwwETl3VRqX5kPiDf1UwCZsO1K1HgCYNO70feHM29SE7wU57MLjEaIt8LNrj0Aqt4dP/vH6+9bRupadUBj1ANi4NUsTA884m8NeX0MAIiIWoi7e77e2QPt45IytWcRxSWAg7ylODWLA/QWVHYdfq/R9GqIQaY64x5RVu0BvrpBUUtiNUJGEohMAmG0saK8sOede/zw9ppPu+QAAwAiohZi4rM3DxWgBzS7ZeRWHTIwUZjXaXG2T6L9Ozz9TCro+I/AVTpfVUYXKps6coo5iesSeEWUCto+3v/YmX9s6NENBgBERC1Ect3Kflaj9l6yXOAlAoVsdB27fZR1I34keO3Uv9zgYafkayrO2m9C6+2bCqMOziRgNXpz9kXPXowRDf8ZMQAgImoRFC61YXeoC6MsV3h7sRDVVZWH/Pj9urTktH0mflHeZvcHI5VSLwGsNn7+viDe6EertiCqbk+8rLC6841fI4jr/1soTI76ZdE4M2LTU74YePXLNvQYd/NRu41YnZuz1A4DACKiluBiwLrSgS4shNXs5tw9LELx6y/scOAXdWuMoM+PZt2XkrwXQ6QRZTsikUMONt4LAAZAvNrBqIPVCEY9BKjq8AXqVaGaVu+XpTWcb3yUUsgWnXjtxO8wEESw3kGNBVy0srzDwMsH/uKpbe+21AAYABARtQAP3IwODtLbaoRskwAFHmnb9sPn7kCmzg3qLUh3G3F/pberQmmQ0vbfyKhDvi9H0ldAIUibPDiTgBgBRJCB8RUI11ifml6Z6HCNtOlx5vJxVxyKkd++3ItsCBDBiUU28/RWPSIDRChAZA2CTKq8om2vu/q/8sYjjbmqofHDMiIiqrMR91+4u6jfycDHW93Wsl8RAKounc7vPAPX5KZT2mPlv/6zJNjjSeu+PFMEpvESAeMh/5QtgAIINIL4lCpQlkKwJLIFc8OCneandhkw6y+nPTL9+nYoBQTv/vfEQXmTH/pZJOFOlZKHPLcRztS+21QYBJoBEACarkgFu9zeu8fca/BG4+ZGMAAgImoB8j97Z68ArpOHVO1fX7uhahEAXkuDZId3c9aomwSlMx76nf3nL4fmSVTkGjgNQKT6+dogA4PQV1QozPJI8ue4ZOFbUddB7+Sf/1BJD2mzOn7lHODcRwEAP1fNa3txr5s2mrYH5/uNABSRhDDwtV7RoAIIQqhWZkQK7+5x9oJL0b/xEyMZABARNXuKRPneAxTI9xB4SFXF/FofZ2Nql75rctmyIUWnfLLsypv/6So+Gxr4TCJjElWJdlqjxEAPExcBrir+H5mwau7ewYuBwsJqJg56RGCqdjRU7wAXpb3YLyIxizTR/r2o/d4zK4YePrnfMz9fiFsBQIAL2n79pBMU513S78oCv/4QLyGcCRFqGiJao87fqEPa5CH0cf5DQiuhCJCS/P/1OueTXzbERj81wQCAiKglSJV1NFJVQx+1n3MXAA7200uOv/ND/OSuHDZM8NBlevfJV/c4MjB6UEYSKHSlqDT5sDvIVRDopo7eiYEASPgUnBikTRIWEaxGcCYZL6tzmsmYcI1XWW6D9vN8225TFvXdf9oBXX/zIQ6ovsqXAPxi+ycdolg6eq9fJdIbzsmYvISo32LFQM06bicBjDoEmkbK5MFJAnD+vcw+R/8GfSX7qkg51jTCECIiyt5cxbKHerycQPog9QqBr5oGqDkjihTyH+7ZZtmpucoB2NKym488yn8+9y+FWrFbBkGNnv6r9iWAq1pFEGoGztg4MIAi8uI8JC3AJzDJt33hblNLdxs4/dOzHnjv4EOwAS/V9joUS64ZfXrB2g//YK10SiPMavmiQ4BA0/E4hzEwPlqyZtfR5w267D//bUrdLkcAiIiaq+8rlvzl4y7+ziP3h4+GxOu6tlhrXksuaLsK1+SygZv1/OWzz3582cCRWrnxiihI2ISr3GGBIBULCJDQCIDCKSojtZFBtMpL3nvpws6vauc9FnU57ddz85/eaznOEAAlwNkPZtFCxYKbjj4y8fmSqyUIOmU0rtWfTRGjUCsRSSKuJaBu8dq2e17W1Dp/gAEAEVHzMkTx4tSVu/T/8ylj7Lq+B+HXFfsVuMrOaUnsLBpvxevF1OrJVQB4DzWFbXM6/7/1WVaf/uZdXe45/uikpvbZepWCQqqmLmRT8p5ThXq/0UE/TdvC98rzd3m9TWGnz4J9D5y/q7/0HRxZ1foLn6hz69565NeDC2bP+k0A19urwCGArdVo/ZaBl8CIwrjK8oq8Ln8beO2kJ5pa5w80xRYREdFXXa34YN/f7JGc9/LIsOyT/YwrHyvqdzcihSICqMJnczvXuCqeNR4Zb9Z90fvwE4ae/+DLOW//5hNi6dVF5yY3LLxBTVCoVVGAlarMeu9h1KW84MuM5C+ELZwate82dfl+Z83Z7z/fW46bgHrptmYolj+22+MJZE6oWWrillckMOpg4OGqpjaMKBykstJ2uLX3ER9diQOaZlfbNFtFRNSqKfAQMD/vyiHhvFf2CctWHGg1NVYQ7WaBQjVxjr/WaVmdAmrgxSBABFW3eOkZ904oGnLcJzm6iG06Yb0m/nht96cSWvktQBBBvFdZFSBaXh7sNMUW7PJ+eddB71x/8n1zHmyHVH13U6dt0OA3v+1zV4HbcKrA5NU2fbI6STBTNeRv4CGqUGNeeOxXnx3/i/aysV4angMMAIiImgQF5gEzZ16wV8fFUw8OKz8fm/AVRaqyqxVNqARQQby8LQeb64gqfFWioDECeDe1y49WjcXg+u8WFvzf94rylr9xsZo8NXkd5q3ZbdiL++53bwkGAw3ZLY38VPGvP/e7D5myHyQ0Y+JKf7UTf44WDgZ5WgmBYqMUTEkeeM7ZXY68Mnc1FeoBAwAiokajGP4Zwn88/t3RbdbMPwgbV01I+vIeUO3hbTKECFBVp94jTkoDtNYZ/ts9uxqEmkLK5sNJ+Pdetyz9YcN0CwpcDaAIwBFA43RFioVXDr+ibdniX6kN8yLYHS5L3BaBwiFemZD0lSizbSeX9z34wkE/e2B2PTQ6p5gESETUkE5QfPjA8t2Sfz57nKwbPCpxy5qx1mf6e0hHEwTiJQ+AQlUh6uFgEWgaKhYZU72zXt3FT66AKCDqPJId5zdcRyyor9UGNaNY8tuJRwdrP/mZBGGeeg+T5aiKh4FCkUQG5ZL30dquw34xtBl0/gADACKi+jdE8fnUxbusvv2ConZr+x8dXLm+yEF6B/BtrBGotRAFvN88A13dHVk4qFgYxBXmckehMHFlPR9lkN95bQ4P3oQp3r/zuweHC9/6fWjQzakAtVw1sSWBRwIekZrSTGH3Pw29+JmZzWVwnQEAEVF9mKhYes71e/q3nxtryvqNSP26fEwnzfQMELVTE0ARAKpo6Pr41eKENQcRwMMuW9V970nAG43TmAb08dO/HRq+9ub/hQaDXW13TNoGFYvII5VO7HxXnyGz72gunT/QnFpKRNSkxfPas/a+fuAu7zxdnClfMzYvKt0/0FQPEZOEbK5+vyl7PwfJfNm3Nt7f3hiBc37abuesGtMUNqipT0tVOwQ/7/qAMXq0SDzNUhcigPiMrwjaPzTkqo9P39C+eX1+HAEgIsqaAo8Di9edOdIsKxoXln2yn0zJ7AX4nnmChBWPSpP/lfV6Ag8Rre1mfblp6xbPfAoDgwiAQExQiXRDt6eBPa7IXNrv6qSkjhAYODV1egKOt09WpKXw2fU3zfjlhkYM5rLFAICIqFbiNfrvrT19VP7n+05MTF81wmhmhMDvakVCNQLVuKadg4Woi3e+qw4CpGp3epGs552za7agehQC1WMRVZsHVQbt5sdL8FoqxYI5e13ZNr3mJ94kgggmq4z/aqIKiEEKySnRmDOu3Ee6fJHDxjYYBgBERDuk+NY6JG6979iDC1YNGqdzNwyzPtrLaqYrbMLEQ/kmns/Xr76v+rlw65ryDdr5I95Qx6qDRbx1ropFqB5pr14K2r/ToI1pSN9XLOgx6gcFFavPC0ULU9CqXQTdpk2Gas0E8D5agZ7Fv+t3/LXvAb/NbZsbCAMAIqJtUmAWsPDVbx2GNQPHJq9Zf4CBG6hiOgUiCJGBE4HXr/X6TVLoU1Br4CUJ9QrxmYqUBJ+6IH+2dO4/o2WmhCmW7nnQCXb18t8lJLNrGiEiBAgQwaP2RX8AIKEZbNRglXYYdP3uP3/i+eb8uTXflhMR1QvFkr9dWCRLXvlOonTlKItobxXp5GwSUCD0lfCwiCQBqRpG3pze17QIsGljnQwMAh+td5DPUuFOr5k2XaZVjDtu5sCPLpiPs1pmV/DuX87ap9P8//d3I2aoR7xmX6qWP8Y/s9oV/jUCRIrVpcnuVw28fs7dzb0Lbd6tJyLKGcWSv51bJB/875Rkeu3RzqJXCAsnFkajrbr3eAMYjXd8j4fUG/R2Gndim1vjAbWAxEWCBAYQDx8PTqxxYhZ7235W+U69XnDHXPrW4MEHL2vpt/8lz984IPnirXcaiQ4URVXZY4X1Ds4E8DBVuw9uX3WZX4M4jyNSKY+Cna7vdfOC61rC59f8r4CIqI4W68pdzBUHnhOmVp9i4PoaEWhjJOrXQryML65DZ6DIWAujgDif9garnSQWuqDD1I2d9ph03Zn/fuWRK5DCna3klv+QYuncXnfnafmZkQSwPpNV+eTqpZIi8W6LKVP4SO+fLjkFfVvG59gyroKIKEvz/nr+8I4fPHZrqOkxYmzgtSkO5m9LvOe8QpBR+MDLali/qDSvy3PpLiOfff/c+xadKChrdbf55Yplf+59ZzJad1pk8gurV2FkQ9TDSwBA4dS+7k++5Ue9Rp6yOLcNbjyt7DeDiKia4sPrDzus7Rdv/SZEVJQxYfy0V8t54YZUPZ8v3gHQdAS7SE34nsvvNqey+x5Trj/l4ZK/t0Vlq721v6b4+JUht+SVfXKOt8m80FXCi0Ha5CHQTK0P5yRAAhlETt4q2+fkM/Y4409v1UOrG00r/S0hotZN8eENRxzVfmXJbUbQa9OiPM3dTnu5IgIYxEVnPHSjqvksMnnvuIKuL32y70kvjp9x4WLcBLT623lXxcKfjju3YO383wVG2lVKiHy3EZW2AAmf3rT1cW0YKNIIPyzrUnTBoEv+9WJL+4xb1tUQEdXAgru/X1T44Qt3WSND61oOti6ql6KZTUVpFKhKTrPwiGCgqhu8BMvU5M/c2K7n6+uKvz+pKPzxEhzA2/dmig9vOuaw9ium3ONNokfoU4gkgMBDESfx1SRJ02g81y8AYAKIq/x0bbvBvxx07aRHW2J32fKuiIjoG9yu2ubYi7s9Ffj0xLgyXmNRiAKRhEhqJbwE8eiDj1Tgv3QI56XD9vM2duz/aptjzi/p9d1DV2Aeb9nb8v4jlw7eqeTev6sNRhofVRVdyu6zykiINr4cFZLYGIW7/KbXje/c0lK7ypZ5VURE26RY+OviiwpLF10fiIYZ2EZbvy8ALDx8vJucAlgp8B9Eyc6z0h33eLXfCU+/gt7weYc4AAAgAElEQVTI8Db9zea//XjvwgcuuEuBQwM4WM0gI4kdLvHbFg/AikJ85DNBuwe777n0DJzRcj9/VgIkolbjdEVe/i+WHAMbhpGL4k15GtCWhXmc10wadm0kyQ9tXrs3ynbb98WBAx+agolVr7yk5XY8OTNJ0e7B3a738Ifm+wo4CVBhChFqdjsbBfDIeOMj0/bR0ptmXtqYuzU2BAYARNRqXHzzd4osogHiFa4eN+PRqnlkAw8Vs+k83kUOwOqUKZwtBZ3eKO26z/Srv//AlCfaw8VhwcP10p4WabJi6TN73OA1OsaKoNLkQyHI8xUAUKOkP4XEPyMAccpfgFAzU6Ze/OrPT5RdV9Vr+5sABgBE1Eoo2q7fZ6yH7SQQiKLeduQziPeadzAwGlU4hCu8CWZF7Xq9Ge0+Zm6/oX+aiqEC4G3g3Adzfv6WT/He/4pODjPrzjIGeapxMSSgZh0/AMSDPwonFqGm4E0CcDpn5eDvXHJi1/4tvvMHGAAQUWtxCmDSZYMDUeugcBLCIKq/8ykqMzbvhUy7Hv/G4HGz+n12w3s4H4if9P9cf+dt8RSLrh19cmLd0usCoEOk1eMttT+OAAg0g7TNh3HpVWW7DrtuyE/+Oh24N9eNbpIYABBR69AdMJnKfAggHoDUX/V+gSIywfqo7+hn+h37zwewW/xVqivF+7eeND7/kwXXhpDeDhZeBDaLpZwGHimThxARbJRaV9au3/V7vP/iv1rTz6n1XCkRtW6XKj51PZ80yHzHuAyc2Kqqf/VxG1QYVYW69ZHJ+8jld35tbfdxT+6buasE5/O2m605D1/Za7eZ9/wjHQTj81wKGUnCIgXNcmtfgcB5X16Rt8t1/Ua/dz2OaV0/m6ZV8oqIqL7cCGQSHT5V5+JCOxqhvp6BFAZOrIgJOgTiRwbln1/SZf7j/172cfdHF/z2gO9gTbxNH9VOu/WfdPYivfM1gwgGgabgEGZ1rEhCWGSQ1MyGzKHnPdvaOn+AAQARtRoCLdhltkIrIgnhJKi3LXzjveYVDgKvCiMCZ/O65qHyezutnvnX5b/d9bXFl+911dRHLh+IhxkI1FS//vfPTifaPZ/yBs4koJCqQK72Er4CGRSg0oadky/ec0hrDMgYABBRq2GHHTpZRZZYeChMvS0D3JoCEI0QwcIFBR0TVvbPq/zimr4ld7y4bE73fy29ZtxPFpUt2gXDW18nVCsTBdHQE/8SaLQohIOKqUMQZ+EkQoFGgUmv/O6y527rm9O2NgOtb8yDiFoxxUeXDLquQ3rFFc4kROOuucHO7queuazG0xDOhDDqoIqKNBIfRIn2L2f2POThAUP/bx6G8Pa8bYpPLxvwK59ad2UeomRl1jv9GSRcBDUKrzbamLfzpf2uf+/W1tQtcgSAiFoRgfYc9WJaEqsg8eKx6lEAhUC0PrcCVhh4GHh4MYjEwvgMIgQQQX6+SQ/Lz6y6uN3ch59f9mDPp+Zfvd+Jr302v3NrHJr+ZoJuZ82/WcTMEkFWnT8AhD6DlE3AIYEkUkFe5ZoTnpvxcPccN7ZJaz2hDhERADykWD6v/902s+4nMIFYH3cglaYABW4DIpNotKZVlwpWVSikVIH3KsOOL2a6D3tjwGGPvIr+vGXHFEuuHHZZ3sZl14q1YV13dIw/Ve/TYcdbet644NLW0jW2jqskItrCoumP9C987LwHvdhiFYPQp5A2eRD1WW0iUx9E4oqC4jKaMYl1kSTfTrXp9Vib/U56vutB5yxt7bfvOe//t1f3e0553tm8QVC34zfsgBWFd+ajL4d++/RBp989LQdNbPJa928QEbVSivl/OvWgjkue/aOXxN6RBAg1BYXAS3ZryuuHwMMgEAfjI3ivlWmb90E66PCq6zrkhT0OeuxlDIlf1/ooFv6q+Ko2ZR/9CsYm6jgIsOmYXtr9rduXi36Ev7X8z7TlXyER0TYpZt3wnXHdv5h0O8TsI97VuI58w1FAgYxJVu1wJ9VzBHCQtV7s266w+/NfHnDmv4bd+aOFeKJ13dIf0dIO4y/q/3xCXLGvYwCgEBhRwPmVG/od/v09zn3opdy0sulqXb8tRERfofjoukNOaLdm1nWA3cOLQMVD1MB6ByeJqrrBjZeIJ+o3LXcTKEQ1jgMAQATea8Zo9FFluPOkiu4jHxt42MOvYQDQOm7vio+u2f+Mtuvm/cmbZFuvcYnfbJd3CoBQK7De7vrnPrcsvKClf4Yt++rqwUEH7Td6Q3lFgVVzlHrXRoxJqupoUWhc8AOAMc5F0evGmjxr7QvGhKsnT578cmO3nYi2RfHeLSeO6/zpKzdmkBwTQpARQCQDQQai2VWaaygigMJCVWE1sxqC90vbDng402fY64NOv31Bi7/Nz1Us+0f35wNkDrMaIZIwyzwOgYcgqWmkxS4p7XHAjwf8/IlXc97eJqSF/2bU3fjx4w9KpVJHW7jRUN1HRBIANq0e3jL7NP67VI3SxcN0UrXUyKtmrJEP1NiS/MJ2t7788ssfNMoFEdE2KOa8dl+/Ts9de53xG48s0ExhhHxEGsBIBk19KV51xydi4Y0FMhUro6DDLb2WLrylNUwLLLzuwO+3Xz37LjVBYQYBLFytCwRtuqfDIEQGTpJPddnrs+NwRsv9/FruldXBoYdO6Ld+ben1AhwkxuykqoAqsllqsuVQlEhcINRYC+/8B9bKPydPn3VtLttORHUwT7H4yQk/TJbO/6kTDEkinVC19VYyOFc8DAI4iI98xiTmRh32eHC/70/689LeTbvduXJ1qeb/6Jru/w41c0iEAElfASe13+zWqIOTAF4CGJ9eX77LsLP6Xf6/x1pqV9kyrypLY8YUne8if6FAe4t6qPfx+BoAlew+KvmGoMFaC+f9OjX2thkzZv46qxMQUY4pli9/tVv6novPzSv79CgL10eMyY/z8bQqGIifFWXTvxuWQOFhNhUyMvBQ79eUJnd+JJx44f/1Ovini7d3ex83blzR5MmTZzRsi+vfkt8fcmxi1Zx7Q9FOaUnUeo+AeHsmA6uuaiBXkDKJF8f86pNDP2nfMrvKlnlVtbT/uDFXZ9KpyxTIU+8bfLDPGkHk/GcIgqtmzJj19wY+PRFty8WKd36zZNeCG7/73XDjJ6ckfeVe3oYFHhZGI1gfITJJKBxMA5YUFvVwEsLAIYCHU/URwlfX7Trsz3t1f+5ZnLr9dhSN2Pe2RJg4d9K0kpZ3739IsXhun78X+A0/8MZ+48NXTYgA6qPS8k5Dz+p71auP5qiVTUrL+yWohQnjRh+Zqqy80xjTw/vGK/4hUEAMIAYqZtb0GSUjG60xRLQVxWL9Yhdcf8qh9ssFJyczG8eoSDsYgYNFwqfhYbIeJawtBwsRieepvf+8Mtzl4cpz7vnDoF77rdjee4qLRx4G1fsNsKs6//60WXMGN0hjG9iSW789Ibl80sPGmG51rQ4IxPfmlCTf3PmWt79XIJ23+/k2V602ABg9etQLiNyhAgevjfsxxIOJVX8XgYopL2ybN/SVVyYvaMx2EdFX3aKaOO7WIw/zK+ZPyHcbjjaa6S02sAogN4VodizUDJwilTIFM1y34j/0vunJZ7By+/ewUaOGPxZae2LkXLz5i/o502bOHd4wrW1gzymWv9rrAesrTjOoe+pmVQJ3lGnb74pe1067uaV1mS3rampg9KhRh3qfedQYs5M24lP/9kjVUKKxFjYIfvzmlOn3NXabiGhrio8eOH8o5r92dLJi9XdCZAZZY0KP+gsEROKcooy371Ymd76n9IZpjw6Vtqu39/ri4uJvq4/uV+/aWIFxMLDx0qXbp82cc179tLLxvXXv2UM7v/fUUwmju7sc/CxEBF5R8tYfFh1+hLRdW/cjNh2tKgAYXTTiLnX+7C3jQhWp81xRrmxeMRD/zdgAxuLMyVNn/rUx20VE26P4/I17e1e+9Ndjg/JlxxlkhhsJ8kS1aiW6bnodNhXy8XHanpivFawRKBwsDDysj+DFwouFhYNTKau0BU+5nuPu6n/+Q9O/6fZdPGrkc9bI4ZGLNt3fVARGBMbae6dMK/lJfXwaTcIJik979X1QdOP3RX0ckWU5PROJRaErR0ryKjJtul7V87dvtajtglvOlexAcdHIuUb9vqq+wYbqcsEYg8DYH785vYQjAURNluKiUrS98E8Tvh+sWfBto9EgwO0WGEilJGG823S3jW8/cWU/g69uYuOrstAVQGRCCAShphEpPnYF3W7rOeqtW3HMNyT5FY0403h/JwC7rTlwYwxSggNmz5j9eo4uvEladN/PxiXffeIha2wv8ZlNSZO15REg6TciHeTDOTsluvzfx/feZdTn9dDkRtHiA4CDDz54t42lGxZBXV5THPKvCWsMKiI9c86cORwJIGrqJinem3niqOSKt47Li9YfEyLqC7GBwMPBwCMAoLAafS1x0MEgoRkIEG9L7DIVmaDN85n+h/6x71l3T/6mW3bRqBGvWMGB3m2/o7PWAkHywClTpryWo6ttohQfXzrg5vzUqovUBOJgsqsOqAYqPg4eNIg0f9ffdP39vN+1lK6zZVzFdhx41IG7Vny+/mOF5jWrx/5tCMIQoTXjXps8fUpjt4WIakIx65GLB7af9+IJbVMrv6MaDbbGhMDmomJb7zwoUHgJIC4DZ8O5Wtj9vvMunnnHv9tt/1Y9ZtSI33rVXwqQVP3mTs4YqZhaMqeg7tfW9M37zx/77PzKb58yxuwD77Pa5VFFoT6BhKbhggiRK5hTeuIfjhs0+qSPc9/ihtdiA4ChY8fuFmYyC42P8pt6Gc+aEAAqsrHdbj0Gvfj008sbuz1EVFOKaW/9t1uXp645VTZ+fkTSlQ21xrSNJIRssY+9IJ6qdk7XZcK2j/txP7y19zFXzd/ebbrf3nt375QXvhCIDI6ci8uP74CIlE+bOacwV1fWtCkWXrHXL9tUrrzOwyYkyxEASAQnIQJVOGiEsMNN3W6cf2VL6D6b2t6XOTF+/PiuiXTFIqsto/OPKQQoLP380/80dkuIqDYEo/c98tPe15bcuPu5yyZs2Gmfn1SYwqfhos8cDEQEgSgiFYWLSso7Dzq718DFZ/U+5lfb7fzHjBp5fedksNwAg533Nev8AaiYD3N8cU2YoOKwi/6Z0eDdEJksD+EBCIw6KDxC8YFJrTnyqVn/65rTpjaS5h/CbOXxxxW3/qGoHD7Kb+7D/luqLjkqxsKEiSenTJl6fGO3iYiy9Jri/bnHj+/w2ayfhNG6Q9KSRCrR4fHMgWfeOeDQiz7c3q157KhhxRB5QhXda1u8zAjgjX1x+oxZh+biEpoHxSdX7XOdbPz8CisquagLAEWmPOx8a58V71+GfzTvLrR5t34biotGvAXv92lJnT+wOQAAAGMtUlH0rdmz33qukZtFRHVxiWJx7zPGb1y9wu4dvfA6rvmGuf7iorvhozOzLVduBEAQPjh1WsnpWbe3GVr27r/6mnvPeiwwOjwXvYIRwHksK9v7xBP3+OEdzXpPhdpvl9SEFQ0fdrdR3ce3sM4fwFc3HPEOCWv/ixYYwBG1KjcJ+gCT4n9s+3/n4nHFY5Fxj3n13ap3Ja3JkP/XiECcn1uH1mZl2LBhw4MgcVZJyfQzG/rcANBzr2MXLfz1DX8qLF10pxhpU9fuwamBIOqZ+OD5EwCd0Zxvwy0mB2C/0aN/GITBmfVV0z/e92vzn8Yi0HiXQlWMLhrFFQFELdi44pHPmHRmMlzUTb2DV8T7hmRFYEO7OJft25GJE/frH1qZaeAO+vp3FfOuPqjP2/edvRfeUyAnz+fbIphzzYtPR5KcLlAY9V8rwFQbRj2sCIKo9LiPbz95dA4b2uBaTAAQ+cx9LkrX2/FlqxCgsSikepsqBEbHHLz/+FY0n0fUeoweNbzMe3dU9UONqFaVD8ru/iPG4M0pM57JZRt3pHRDxTQLFQvXZVvfb5/+/Piu8x55ZsXfuk1aMnGvWz/8w3cO+GjK/X1xd27vsSdKuw3pnXa/K/JmPUSgCnjUflkgEC8NjGBhobuHS6eehD2b74hziwgAxowe9ZR634wHYnZsy2tTMVATwDm98eXXJ/2v0RpFRPVi/Pjxp4pIYS6Ll+Vid7zaGDli2Pui2smrQsRso/aAoCKv8xJnwt0CyYxLpr64oMPyNx5PPHnJi8sW9PrXJ1eNuHLZ7SdNPHmdJjCk7ul7fQ+e/BSMmatiqsorR1kdSWFhNQMYC5tZd+KiM479dh0b12iafQBQVDRsCJz7tqrW29C8SNWwvzFV9fkDmCD+I8bGQ3Kmvj9KrW4MVOyaZH7hxKklsy6r55MSUSPIZFJd40Tm3NzTRASq/v2cHKwGikeNeCsQDFIf1znw6jF+zJhTt37d+l2HvBdJsDqjFhbeqAk750nUJ0/LjjUbl12Lxa89/Ltrd3vt08P7/GXZtfud9upzd/fFR4qslnePFviOAx6OVDYEiLLetcloHDhEsBCb2DX8fM6PMa95jgI0+wDAqvwRdZzT+SYm7tjVhkGJCcJLJUgcOHXGTJk6Pf6Tn194hgnDGxUyXYzNLjmnpm0RgbHB6zNKSjq/8cYbL9fbiYioUYlqr1zf0QSSyPEht2lMcdGbRnQfeLcpfFEAmcj32vq1bQ79zloLXxFoFL9KHdIIESGAhTehuJ3bSTQmTJeeFa794O7BL13xyvK7uk9ZesWQG5be8K1vvbPynV1xQs0Dgh5jXr9XYF8CJC61nAUVg4wkkfQVgAJGK8Yvfu7wrwU3zUGzHjWfMKFo90x5ZolCc7Lqb/OHoRCJt46wNrhr6vSSn9Xk/fG+A+vuEJFjNYp/oXMxKiECSJCEQH81ZdqM6+p8QCJq0opHDHtFBAfmatheRAATPDhtRv0uARxdNPJ2UX+Oqn5lykFEAJFXppXMPvgrb3hNsezZbq/mSfqAjFrEOyZW5TxU75woBh4GBgqLuKSveqeAX+8kXKI2/20U7DqzrOeIuYNG3j4NQ+J3b8/8G488qN2KKQ9rkLer+GynAWTz3gIiyGjwnx7Fnx2FE5tXl9qslwFmKqIHFbnbf7v6MMZYiOC9GTNm71Wb97/88sufAfj2xAkT9t3oyyar93UuuVn1P85GRXLE1GlvtKIqXkStl7HSRX3OxwCyLIdXM0VFo+6C6NnebTtvQSC7fu2L/wC0U/4X6tIABAYRvvIoVrXiobqzdYgToEVERGwHCz/U+/KhvnTJqR3fXbBu+btPvusu22lSuu2hM8qKT3t3mD95KSbiK8cc8Pizryw5oPeTea7sbBEx2XzKX6nLAoXx6dGLFxx8XB/ok83pubpZTwF4r2Nysexv0/SBKowN4ET+MaWWnf+WXnrjjbemlsxuo2IWmjrkBlhroWJfnlYyu800dv5ErYfXPrlM2hMRmECeztkBtzJhwoTvGdGz45HPr1NVeGifr33jbwKEbT/wqh5QSA2vWQF4BZzGxxbVwIjpnCfp/ZOpVVcVrJ77YJf/XPD88hd6Pvnh5SPP+vC208fitaqpgtmCsq7FDwP+i1zM2Do1CA06Jde+e+EjWtau7kdsOM02ACguLj7bGGNzNucuClgDL/h/M2bMOi0Xh5w+c3Z/I2Z+bYMAEYlzD4y9dnrJzIm5aAsRNR9ONaePkSIC7115Lo9ZrXhs8VGZirJHt9f5b2oDUDBmzJivPVilCnaeB6DMQDc98deGQpAxIcolH5WSBwEkFN/RGjMogdR3OlYsvH3nhU88/cmzXSYtv6T3Q8uuHX9hl8F77xSZwpW52CtGoHBiEWh6+KjfHP695rT/TLMNAAT+Z95vf9/rbI4IYO306TNPyOFBMXnGzIEAFgLYfoKgbC4uJCIQwdqCgoKDp0ybcXUu20JETd/48aMPDaxN5vKYzjk//tgDSnJ5TAAYO7b4cET+mZqMxIoIQmP6b/31ss59FotinQHgs+iSjHrkuXLk+XKEPg0F4GA2jRBENi9IBe06JRGNS0alp8iXH92kL9z0gPGpgbmIs4x6qAqMSH5yw0c/WKQbd6nzQRtIsw0A4KK9c3k4IwYq5te5PGa1qSWz+0PMxu0N6akCKgIYC4i8MqVkdqeXX5/0Sn20hYiaNu/Nptl/zdmqIk3ddOlNpTk6GADgBFWI88/B1Sy1QL1HFKUO3/rrj531l0XO2FUmy616VATOhHFyYJwzVTWtW1W4TR1EHSIYOBiE4kJvE52saDIXz+oKwFcVFwrghptrDzsmB4dtEM0yABg/puiY3C63i39deg4c/GQOD/oVNhGeZOy2cy6tAKLew5grp5XMPliaURIJEeWWuuj4XBYAqkokznkJ4GVFI79wLqrx0mcB4KJop62/fuNilEUmuQbqNmfW16PqxPFcDdR7sRBVxFWaTaJw/YdH4qXmMQ3QLAMAp/67uUyQUSjg/donHnjg85wddCtTpkx/NlJ9QsxXy08aI/DAsrxE/vDp00t+X1/nJ6LmIfIul3ObcXKz2BU5O9zVQPGoEauN+p23Xu73TbwqjJivJ1f3BTKmYIZvpru4CRSBZuBhkTZ5cN6PfGf+6c1ij4BmGQBEkXbI5fEEgNRnBZ8qJSWzTlT1a6pPZK2FMfb56TPn9Hpj6tS36vv8RNT0GTETcnrAeEh8ba4ON+b54a+L+k7ZrMBSwYBtfd0E4QI1JtOcltBtyYkFBEi4CngT7tzus7f3aw7JgM2yDoAVv3euP1uF1v/YEwBrzNWA3g4TAN6dO3n6zDsa4rwN6cADDxyyceP6jtaY76tzaYGZqFDvvbogCAZCAGg8NBm5SNX7BcYYIyKRqk4xNqzIOP/vkpKSVxv7WpqzceOKD9aMO8B519lYs6867ahx2cz2gQ13rX5yExFkMqkPBcYaI0ZE5qv3n8PIM+3btVv9/EuvcdfJBuTV2+pxwpoui9uaQjYtb1YRwNppuWjb6KIRL8LrhOy2JFYIRHC1Atds+V5BRf7hnxVUfrbRiCZyXv6gQVTd1NQjMAh85erhuBrANY3drm/WLMOt4pFDF4uid65+TwTxTllhh06D3njxxXpfbz+6eOSkNm07/PCll176qL7P1VBGFhVdZdVPUOgwAB3FGMD7OEO2+kVV82Rb23wjiWufqxiIMYicc9aYL0RklsI8NH369Mcb4lqaq6KikT8R4EBVFKn6bqGRxFeGaKv++80/g+q68fENXgA4SIUKpqnilZKSWZymqmdFo0akxLsE8NWCM7WxZQAgxsIGiUsnT516U13aNWZM0QsaZQ7NtkCRxI2BDZMXTZ469dYtvzf1v7f06vXy718PjN29eQYAm1kB0t5M6v69z/dDUdPuYpt267Zj9KjhmtMkGWicgW/N3dOmzTw7ZwduwQ455JDh69ev+ymgRxiRrqoKqV6WWd3pyOaljbXP2YjLMUN10woJ532lEfO6Qu4uKSn5d26vqHkaN2bMdelMeqxA97MCo6pxRy91r5ApVd0PUL08Vaq/vtDB33P7jNk3j6j/mbNGM27cuMOiKH24c76NNThQVVwcGNX+sxVBwprg3qnTp1+7o9eOLh6lGsWZ9bkIAIwNMHXGzDr9oIqLR1wC1RuxnSp/NW6VsYAN7pg2bca5X/nWEjXLb+8yNQlX5HJbAqHBGQGc148/Pejag0Ye+bOcJ1/mUjOcAlAYMwouhwEAAKhXePWn3z1LzztrRP2WzGzORo0a8UtVPaN0/dpBVhXeb37C/8o9cYuOIbuETfnqk6uLYIE8QA+zIoeNHjVspTHmgSnTZ12a5aU0W6NHDj1IxPwKwAQXpWARB1xfeXLKwVPUluM1W44kCNDPGHPTeUUjbhxdNPKfHTq2u/n551+ZW/czNr7Ro4afJsAFqrqvZiqNeI8AgPqqkUIgnr6q5XENBE7dxh29bsKEccemKlNZtHz7xNStQy0eNfTnRnHj9kr81rgdqPo9cr7v1755K7xPmFVAbvMfG4sAtlPZwibfvzb5Bm5TvQwRKYwxeX87Z9SrAMbXxxmas7HFo/7qnfuRQMXHqyaqHzS3oFv9K7sbz7Z3dtwioPAegO6qwCXFRSMuETH3T5teckZWJ2tGikYOv9QAZxsju1cnim+5YezWa8aznT/emkK+8oNWAPL/27vzODmrKm/gv3PuU91ZgLALw46I7Et319qdtImsQRAcN8YdUdRRRwF13sFdZxxHBHVmGEUE9BVGRVF4BWUNSbq7tu4AirKIDDgKyBKSkK27nnvP+0dVdTpJd6q66tbSnfP9fOKSPHXu01XVz3Ofu5xT7PgRMZ2/ZvW685Px6IqOOfP+fvny5Q95abSJzj3zzFc+++ILFztxHwARi3MQEdjSezx+468DEWHXOZ3rKh1nxwqvFPFX2JwAhKGteVqzry95gRQKV1ivGxPkpO3+6t8B/tTcZ6QwVp5Nx4Rvdum/aauRjXYWcsDBWNiU6ov1mIG7AAjO2Yq/SNMx/utmLYy4vkSs6199xp/JUvHua+M9Jzux4YUijpxzpSH+0n7arf7QVn9qtW0cGU/rUXqCKB3jnADWgmz47kS06/ne3t6LfPzM7aYvHr0kFe36qyH8K8Qdaq0dfz8w4b+pmBN9/I8vBJk0NgGAsxAbAs4uGtv48m+Tidh13hpugmSs+7t/feGvjzPch1gci7XbjVht/z2f3h9XWk9x9/KB71Y6H2fd/mbiyEudnWiCgKi2MsCpVOqVY5tH/8vXzV9Kwycisl0uAIBgI3vcHwqPMYoXlxBBKTOgjy5YcznBaOfRJzUk9bJPM7ADAED8bWnZOmxxSJvJfOrEE0/sbUQbM0UyHrsmHutx4uQ9TETtvEW39BS8twtHvx2L9WTPOeecXVt9Tj4sXJh6dzIefcGJu1yAfSdOt7Sb8SkC594dj0fXvuY1i9q6M7YoGXtnMnrSRhK5EAD8PuFujWg6z6xysvjckFTcAjg83Zclk8mjXDj2MBM8PsUSQJw87TYAACAASURBVAYmMG+d7F8L83d/mOFWgxhiIgjIISJjEDBCisCBYST02rlthGJegPCJV8x7T1vP/wMztANQrAHkv0dYjulciLmdZmDhwmTKeyNtblEqcXE82v2ciHsvOUvTSfTRKuVzFGthRGJ/ffaZ1X19yUtafV41E0E83vNbOzp6HazdqzwkPROIs4Czu41u2vjtVLznxlafz2SSiegtobXfJ8FcV/ruNDINSLEQj6tqGN4553w/7RLR+ukcf8YZZ7xaXPhbiIv4qLVe3k3CQQcI/N50evIFvH9OXDS8ebcj/s8YzfmRsZsfIWfXCxidMopOGYWB3ZLut00RAVbgwjn75nBsq8+mshnZAXDOLm/oV0CKg86F0dEfN7KZdvKOSy+dn0xEB6wNv07i9oHXQkvNI+IAFwZhIbw8lUr8stXnM13RaPQzyXiPsHPHOedKKy5mxs2/jEqdMYicn4x1/anV5zNRKtbzDKw7xzlXrC3fBKUORlWP9cTc57sMcCSI/HY6r1nz0uq7yNnAx80fKP78bAwYkcvTudy1Ux23ePGb1x/2hez1Bx78p/P/dMF1p63e4/j3bo7s+dW1vOCOUOh5ltBxaTdKu/YBSgsdX1i97/F3zYRpi/Y/w0n0JeOXWBte7nMr4GRKQ3d/zuRXHdTQhlqsN9r1Zkf8Q/HU428HAgIbBoMGBq69fiEd297d8XPPXXrkM39+5mfGmOPGM8FuWQ01YxER2ATo7Ox4w73LB37eqvN43eted9SLzz2bgbgF5RusEDVlOJmIIGyuzmTzFadFEtGu9RCZ76dlAZsATMGpA5nM3dW8Ih7tepiJj5I6HwAIpdS/zAAx2PA1g+nc+6YfSfARQeRDV745Neevv18cjL3Ub2jsGCPhfBLMF9MBK8UWCa74ey92fOFq8fOlBo8aEEgchAjsQllndv/eWy974n0je7b/7XVGjgDM3WW3m5vRjoiAiQ5MRrvua0Z7rZCIRW8Roh+Ls7Pm5g8U5+FcGEKc7Utd8O6GrBnxpa+v731/+d9nfsOE48ROqKk+Cz4OEYENC9i8adPNvdGTz27FOZx55imJ1S8+/7CILJj4dN3Im/9WC2GLN59Ipdf09yVOMcyebv4AQHACLNhrr4erObo33n2/Aeq++QOldTlEIGYI0dW13fwBgPDvRIWjL75p+WFffejzB134l8UbDznjvJc6D33PhmDBD0OhxwM7tiniNqMDIRwFsBSBEMPBwFIEjrixHb1SbMsREOyLwStOvGkm3PyBGToCAADJWM8fIe7wRs+NCgDDDAfcnMmN/G1DG2siEUEyEX8U4o4ksbPp3r8dYoYDvZjNDe/d6nPZVioV/4FY9w5xxdXntNXGvtmDiABmhERvyGfyTR0JiEW7n2aR/ZvZoyrf/AkCMgZjYXjayMgDd+3oNalUNInQDdWSY38yBMARb87mR+ZWOjYR7/4OC97vq22gWOvEEV+TztR686/gq4IHjvzKkbvdf1vUbX4uNqew9lQj4SFENM9QsUpfKFzqilk08veKAZAb27h+7n6XH37EI5/De2fG7/CMHAEAABa5tRntEFDaGUBv6I11N6xccDMtWpRamojHXiBnj4Sb3Td/oJg3gMXtlYr1tM1IgPzkJ+iN99wBa98hNiytOwFm480fwPgizYjIzalUvGn10mPR7qcNmnvz3xaB0NnZUfmDdeTxAaOcBZArJh/qjXVfZUDvd6XcHj6wCVBw8t2G3fwB4FOEk877p8cO/+LgDUfc89g/jL3jv85c/4qe9xc69v7mJolkrHPPdLhNhQ4UAAoa9pslFEBECmPBbtcffvLMufkDM/hqIyJYmIhK2MDtOxMRADYGlvjzmUyuzUs8TC2RiJ4hTn4FEVBz6h+1DSKCo+CebC53SqvPJRHreY4h+0wcbvWX/qV9FT8DWpvNjXit6DmZRCJ6K4mcLU26Rkw0cQQARPbi3Ejw5grz0KlE7Cqx4Qd9jGoW8+4TBLg7k1916lTHLepLXeYKo1+21sKBQB4WnhARTBDJDqSziboC1UxwjWD+Sf95wav3fHq4v3PzC6exjJ4I8J7E3Eko5zEpj7fJeMrlCcmvq2rJkCB0vD40c3/8lU8/+dH/2p3afu//RDP6ipOIdg0RkGzmFilmBgTvG8qPXNO0Rj2JpWKnmdDe0ejFk+2Mgggg8p10tnU1HxLRrucJ2HumbO3zrbQt7KWh/Ko9G9VGKh5/N5O7LgzDygc3UKnOyOZ0rvIwfF+8J22dS/j6XpTm4G8Zyg6fO9m/p+LdS+HkNp85PogZjviRbDZ/tLegdRHgN8ATuQtj7qmHTurY/OxpbEdPMlI4kCGdRAwhhpXi4kFHWwbFy4sKaXxWTkACCBtwKf12AeYx17nHdw958+8vx8kz73Y6Y6cAAGBuZ+Qjze7DOOdATN/ti0cbN7TVALFY7Cxj3U598wcAZy1AdFFfMjnpRbHREtGu53bmmz+AcqGoPRI9J93RqDZCF/5nI5P7VKtYOEiqygFgnfM6KkJEgLMrJvu3/v6+cx3Y782fCEA73fwBgIATCIdf+L3cEV/KXn3wQU++cWzpJ5aGexz7IYosuKYAs6rg5EWWEIZccfSCBAFCBGJhUCz+VNx6aCAcwDlx1obPEHX8JDzi1Pcf8pWZefMHZvgIAAAkYtEBcWFvs38QNgZO5MJMbuR7TW562lKp1GkuHLtjpu7t944IQrwhmxvepZnNxqPdxWH/nfjmPxEzwwm/O5PPf99n3GQiegucO6cdOrtcrDV+z1BupOK0U7Kn61mBvMJb20yIRCKfWT6Y/fLEvz/99MXHvrx2w0M2LPirOUAMR/RoNjd8lKeQjXeC4HMPYre3Xv76hbuseeI0u/nlQztk0zEkrhOQ3R14DkBgFMaIeK0IPS/gP4dz9hnZeFDsjqPCa4fw0Zl9C53ZZw/g+OOPT+y6y9y0HRtraDavyRhjQMa8f2AoWzHHd6vEYrGzDLlftmIetJ0RM5zQ7dn88FmNbmuZCP4pHn0O4vTmvx12meER4yvaKae8acGGdU+saYebP1DsAAjxDencyNsrHduXjElY8FeIlJkxlBvZ7qIYi3Y/b8Tt7eubSESwxI/kcsNt9OQ/XQL8EPifV15/6Av35zp3W/fUUTT28h4QiI3Me3nzgoOfePLci//3vKuPehFfAGbBrRPALPkpUvHoDyDuHdLkXOlUSrQxp7PzwntWDLbdSMCbzjnniD//9ek/iHVo1SroiZ2y8f8tE3LblZOylI+Z8P8avSiOTQBDrntlZmRVI9tJxnoGIK4X4hr6M02snTa+CGw8zW3xb4sfQeldlgklhYrD8hAnAPH439daj77qcyYGBeaeobSfhZnJnq6biXGedf7OuqYkMgIwHIgZzOaSgUz+ih0dfuH557/i93987Fmf2/CCIMBAJr/VySfjPS/Aub28dUSJIZBHsvlVM/jmv/OameWAtzGUzb8z0XPyOQAWNLttZy02jY5es2TJkofvvffeoWa3vyNPPfOXQdPklf5EBC6uPi44wTMO9KiJGCciv3bWRcAM51xoDPeFhXA3Y4KjWNyB47XCyzesJjwpiwsRkvl/AA5oVBvJZPw2smGv1wIvUyi/Y6X3H04AJnqZQGkQd5ChvAM/J1ZIyAmbyD5kw5hzdozY9ItIJwcBnDiQa04CYhEHsXjtscce+8rf/e53f6w7IOEs56Q8+e7hDOtLGCQgUKSj4of/yFOPv63mRqbgrNsqDXNfPPqn0IZ7+WyDjAkPOmi/c7P5hvahVYPMig4AALDpuEgk/FFzh/5KZWqdxfqXX7qz+5TuA0buHlnbxBOYUioZ/50Nw33LGbkaOvTMpjik7tyjzrlfEMmdQ7lV91Z41ZXl/3Hppe+Yn03/4Y1jhcL5IF5CkAiaccMUgJn+Jhrt+lA+v+oq3/GTyfglcG5p8anOfx3zrT5XYoAZIrLJQn7eEUSW7fmqV/z0lu/fsqbaeEuXLj1kzZrV58DSuWJ4CYuDzyfSqZAIdpk/90cAovXESSQSHydX6GiXaRYHArPBypWD36h4bDhZidw62yca3wKRiHbdZZ09yNe1oLidk61zOPGmm259tO6AqiVmxRRAWSra8wOQvMNa26T1AAygdIEsDrNuOmif/Q+/6fbbn21C41Pq6em6NML0tUZ3hpgZVmAd6Ce77LLr15ctWzbiI25fKv7RQmgvZeAgH2lJKyHm1enciNcno6VLTzn6xedXP0QCbuT0C5WKowjRCBnzlaGhrLdkVclo9xcA+QiAPQA0pBM5vv/aBOCg47jBwcHf1RorHo8Osg1TAr95/oW4tGDRbSxtCqviykkQMJhpXjqdqbjbKpmI3gVrT/G6BTAIBofSub5UIvZLuLA4MuIlOEOICk4Kx+XzDz7mJ6hqhVnVAQCAZKzrUQiObM5TQHmuVAAqzznyxgOjiVfcdNVV0yrB6Uust/fEiCs8YAuFrdJa+FS+6QDy+aHcqoYlRUqlEl+yY6MXM9G8Rn6ehhkURC4ZGMrscJ52OmKxk//IgsMbde8vd3CZacUuu+/y3jvuWP54Y1oCFiZ6riqE9oONqE1UHhURYjgyd+dy+SmT1lQSi/asZbG7FeP56QAwM0KHYTC+msuN/LTugFNIxLp/SSJn+ewAgPlKDjrEFcYuJhfCebjcF9MLk410zjthYGDg9/WfqWqlWdcBeMcHPrDvH+4f+Qs8lrOsVinrFwTYZOftdnh++fKmjwSkol3rnMiujYrPQQRW5Ef/mcmd39OUURZBPBobNuS6GzMcXcoFxub+bG64y0fEVDx6IwTnO+c/CY0Ql3Yw4AGg43253OCw90YmsWhR6rSxzWM/J3HzGrGYsdyp3Hu/A3a79dZbX57u6095zcLXbtq48W7r8TvCQQQOuCqTyf29t6BTSMR6NpCz83yuzBfBb4hwgr8FfwQLKvDc4Njsiuwf/ARVrTSjEwFN5v9++9vPBZHO11jXmk3vxd81mkubNvwRBx5YMfuXT6lo17UgasjNn5hBzKut2MXZbL5JN38AIGTz+R44fIuNt91iW2EmMNHJS5YsOaTeWEuW9J8NovNFGvD1I4IJAhDzZ3O5/MnNuvkDwIoVQ3dmcsPzAXoO5P+yUb5JrX7umctref3mzaOLXWkRqQ/MBszmB824+QOAiAt9loEqFZY6wWen2YFk7tzIiXrznz1mXQcAAAYGBgZNpOOzFFSswNkYIiBn5yUP2P/FpUv792tGk/39/YuF6D2+n5JlS03ve9K5kb2y2ZH7vDZQpaHhkX8gE1xhPHcCCATnijeO9etfvqzeeBtfXv8tCQve58uLZVV5DcgckU5nv+Q1+DSk8yOvEOJnG7HGRkRQsPaMWl7rnO0B4GXtDxEjFFk+MJR+V93BqtDf338cEe/mO66glLrcAw4imD937sdWrMhUVVpYzQyzsgMAAJlM7l8EtGzLfHXjTRwWZQCw4dx1qzf+8XOXXNLwMrRjG9d9qxFTHkEQgI35Xjqbb3kBncGhzCUC+qbxdFErKs1BF7cfnllPpFS0+1OG6dDiIJDHz4IZwuaxbG54j6Ghofq3ytUpkxveH/Bzs52o2Nk0B8f7+uLTfa0TeLmBChGEGQJ+q4941di8efP8Rl2jvKz4DyIgYz6xbMXAtzyckmojs7YDAACZTHYJsck3e1NQceldcXGgs+G8uwbu+3Uj21u4sPdjRHxcI546OzvnfHkgnbvQa+A6DGXzHxPmnzEzCPUPmY532kTAkAPPOeOMV9ceC1/wnX++NPXycCaTq/m8GiHo6Hg7lTpiXm9d4hDYsWkXamKGl+9/qd+2Jp/PN239Tqeh15W3vbbHBsYtjDEAmUsHB9M1Tc2o9jarOwAA8M+ZXBzMq5uZJlhKtyZBac+tk+5YtNvLFrnJjI2Oftr7zZ8IofDf3rti4DNeA3swlMm/USB/JvJ3wSQUyyO/sPq5mp78Yj1d/0qEzvG/EA9D0cwgE8mlM/lj6g7m2crBzA1W6J5ylkFvOQ6cg9gwNt2XifOz8LV4mZCnfMSqVhgW9tySEbN91mWXpts+kU6nv97qc1GNMes7AIuJJJMd3ssJVrfmDAhOBAFTVzwW/ZXv6IlE7BMM+EvtiVKK3EjH1fl8/mZvQT1bu37tYrDxOgxdzNZHC2t5rQmCT3ldf1EsWPTwUDoz7eHwZvnGN791Nhsz3uH1opiq+FXTmc4667WvPdxP46VpDUHDqhROxokc2sz2qsFMcKBLB7PD+uQ/i836DkDZXvvudywHkab3sMuXMWctDNwZ8WjXv3mN79yn4Ky3JzBmhrX2ewNDmYu8BGyQ3//+j4/DmJ+V87T7+PlFABGZ9lbAZLT7Sq/FlooL/p7PZNvvyX+iZDK5qRDabxN5zHEoABFFevv6qp7yWLdpbczzCN8cn8EqEdDh7TT4z0QgY76Yzub1yX+W22k6ALfffvuzQuZsNq35kQnFlMHGBJ9I9PV5WVC3cGHq7Uy0l6+LRylN6CPZ4VVtM+e/I0MHZN5IvrekEe2xdOnSaW4HdBcRfD79M+ZFOmtOiNNMuy7Y40qfn4FA4JyDteEHq38Re91p0xGYpo4AADK/je7/AFFhMJ3/XKtPQzXeTtMBAIB0Ov1LcfS3FARodg6k4pJAggsLQGHsrgsuuKDuOUs7OvpxOFuaga3v5yEIRJydv2Dua+s9r6a5iSDEdxWTL/n5PJkI6154en61x/fGuj7GxHPrnYEprxoxTDBB8LVlg4MP1hexOe65557HHLDK3xM4gQCw2Kpz44dWkj6r2yGg//UTrDqRSOSgdrr/i0gkkYgua/V5qMbbqToAAJDJ5282QXA2WjQSABHAWfzuoQcz9YQ5ddGiw4ioy8+8M4GZEeno+M7ddw8+7SFg0xDxl31uCxTnIGZO9avQid/v4zMoFm1iWCePDg6mP1l3wCYiY270d/tHeQ/NSdW+RiYuvqyTdXbzihWZ3/qKVw1nm1uxsyIREOg1vb3Jj7X6VFRj7XQdAAAYGEj/EkR/CzZNKTu7FaLiVieiY1KpRM3DbBtGRz/lnPOT+AQCR/TnlUPNyXrmUzqdXmGde95nTGvDQtUHC+qqgz5x9lyIMH/B/DfUE68V0uns1339FknpP8RJ9XmUReL+cuhjo5dAVUqlEhe3S/XCMgEgNoQNwyvb7dyUXztlBwAAMpn8zcaYDyPoaGq75Qu+tRZSGPt8rXEKNjzT29w/E4K58y71EqwFmGjE1xB0MYkPVZVuMJGI/dDL3vNSDQkH/vU998zMAisEetxPZ7SYvMYEQdWLMZ3ImJ8MgAQG/6XuQNMQhoWNbbTzb4tiNlMkY90z8vuoqrPTdgAAYDCd/c9IR8dVbILyBuCGk23qwvclondNN0Z/KnVcYPhgX51zAT2/8r6VP/YTrfmCILjPZzwG+qs5jkROF6mv3mJ5Bz0bg6dWv/TOOkK1lED85LkgFDtDVZbyeNvb3rZbYMzB3p5UxT3hJ1B1DNFZ4qtMr2elNOBHR6PRf271uajG2Kk7AACwcuXA30fmzPkamaBpbZYXrIkInMgpJ5+cmNYw8tjY5veTp1pHbAwKzrRdsp/pEGMeJ4/rAEgqz8metnDhQeTs3j7KLRMxnFDm2ccf9zqV0UyBCQa8jMLI9Jbn3nDDDeuq+byqQUSA4U1eglXLuq0eCDxuqPTCWYsOln/q7Y0vbvW5KP92+g4AACxfvvKTkSDyvWZ2AsrEWXREwmun9SLD3uqGO3Ebh4dz3/ESrEVWrhz6mc8kPNW8s5vCzR/xdalmJrhwbEbnWWemF1rR7sJE7MP+nv4F7DDtEbl6EFOime3VwjmHsOB+0erzUP5pB6BkxcDghSYSuZqC5k0HAMU1iExIJBKJ3upfI14ShxARmPjWugO1Aa+JYKq4oYShTflqzlm3OTfywH/7itcKy4eyP2rFgrHQWn+FtogwZ/686hcfeuBEIu2+0E5EwGJ3S8a6G1rTRDWfdgAmGBgYuojJXEPcmLrzUyHnwK5Q1SK8ZDL5zuLNzs+ipzAsXFd3oFmGquhNEPHxXhYAEsEYvq/uQG2gmfU2xttkOsnPQsziud+9bMUP6g5WpdP7+w+FYIHv980wv+QznqC4c4kJpy9MJT7uM7ZqLe0AbGMwnXmfAFebJuYJEHFwIudWdawNTyCRmst8yoSLjSNCbuTBO2sKNIs54g2VjiEST/XbCYh0NnXYuVEE9CxRffPY5TUVVGUH14nsW89W3nLpZiEH8VpmurK1Gzbsawx7KdlbJqDRwdzInqDiYmMffYtidVOCtQ6FwtjlfX19VSdpUu1NOwCTyGTzFzmia9g0ZySgmASG0NvbWzkBDUmsWLu+vjZLL59FW3z8PEURgNDZwR0d0xuPequ+aIzBwMDQFV6CtZiDPFnvp1B+GhbIi1W+4hVAHZ/+hBc6635Ta5hadMyJeBm9mIiYCQDY8D8Tsfc0JwSwLYwO+Y2qWkU7AFNIZ4bfZ0FXkwm89tCnIgJYO7a00nFExSHPus+ICAQM1xumffj5jARARxCJ7PAgoj18fSXCMFzjJ1LrkUjd1xMRoDjiLE9W+ZLDgS0jB7UiouJ2jCYqFMITfF5biAji3AAADGWGP+1A3js0pfM9KpGIzehFq6pIOwA7kM3mLwLz702DRwLGn3mcJCsd65zM3fKa+to0Jpg1Nx9/meAIRDvOBW+drfg5TaOtpiaemRkIAHbcCQPwu9JnXp40qIeIIAjMQ3UFmSYieC1iBADMPJ4Wea+D9jsPpZ1NPrcXig1hIB9ZtCh1mregqiW0A1BBOp09VgSPNHKBU3GRjYCZ937ta5ceOdVxixalljBRMP6aOhARyBW+X1eQNrFoUe/fsaf5WyJC6EZ/tcODREa9NAaAmR73FavlPDxAl5e3csDpSse+rzfxluKvZf03N2aGdfa5ugNNg7POa7lnKo7qDZT//2033/YEM3/H1+/GFgIXhhjbPHaj58CqybQDUIV0fuRoAdlGdQHGa9o7iw0bVk853BBuHp3LpaQnUmOHhKSUe44AUEdT6543Srhp40G+JjudCA474agdJuRhIi/V5wiAFXmq7kBtwqGc2ZBqfuIUKaZFto4q5uRnEebynEHNCBAChAEEO1z74Z2nBEZAeaEeAA62et+G0tkPOCcP++icbWkLAAQsbq9UPHqft8Cq6bQDUKXOzsgZXGFq2Icg4DdN9W9kOO785f+dPYhf4zEZzJr/vvq/d5jUxjnnLWMUUf3z5u1jGgV8pkBEEBFEIkHFinwi8nqPRYDAnfyYl2BVCiKRo/2tASjum4h0dt677b88unrNGcbrtas4TuNEICT9iUT3ez0GV000iy4+jbV8IHO3FXyykdkCBUBYKOw51b87Rwd7a4yASND8zIeNIE5O9jECUJqTH6h8nL/uk8cEhi3HxClfuRGslYpTAGL9raBzTrD7/N2f9RWvujZ9Zq8UEDOWL1++3ff3pSee+FNo3Td9pcuWCeM7Yi0YdM1+++23j5fgqqm0AzANmUzuaw7irfLcZGSHz+bySl/tEIDQbp7x4wCnnHJKDwfmFT5+ECIgYiIVt0b6/PzFVyL7WaI4kC2FdHrokYrHsvT5mvohyEu333570zoA/f0LP+yzA0AArLVT5q/IZPMfg4jHQkfFW4eIQJzDIQcftMxfbNUs2gGYpv33P/DvhBv35LzDD8TZA8t9b6o1EVBpjtYJQMQzfg3Ahg0vf7CeC+lWiynZoHPX3SoubPI1bCsAAgqmXPQ540woUFXrIlUiggOtrWZe3zlYGc8bUPuaGBDBEr9cU4AajW3eNMY+nyOK2UF3uHZll90XvJO87GgSbNl7QRAnMCTH9iXjV3oIrppIOwDT9Itf/OIxAS1rSL0AEVS4lc0TkZoXWAEYv66KCAqCt9QeqD2Ic2/zUU619AT14p133vlg/WdVPSfuoGa21ygLU/G3sqdqgCBaX+mwz4mAmQ6ptzNW/F0iCPBAXYGmSYDTvK7DEYDMjjsxd921bBBM1/pJd7D1yTtr4Zz9WFdX10IPwVWTaAegBsbgO14udpPGnjoHsTFmX59tORs2P3m7R8lk/FIS6ax3RWMxHSzBGNPUDGelm5fXz7RVwjD08mUiZsDJqkrHfYGqTxdcsU0AgTHNnYoR6fC5Erd0ORqpdFw6nX+vMD/TiAcYcQ6dAf3Ue2DVMNoBqMHQUPbHAtjKR04TEZjp0an+2dsOAAAQgQiqrkDYjsjZS3xtpWImMPPPq2rX48WTiff5SZtXg6sGk3mdj++nOAcTCTorHZdIxN7mYyqm2PkDnLjb6g42HcTH+f7UCZW3TgJA55yON3AQqXkr8VREBBDZNxnrud1rYNUwM7IDsLC3913JZPz6Vp4DCf7i7dendCUgIjhHKyY7pC+V+OyWC179LQuAwATH1h2oRRYmej4Mkf18VYJzTl4eGMpWVRlRhLylhhQRfD0araoSZDsT5zp8xCFmyFjhZxUPdHTEVq+r8Wm6PIoQBJF5NQWolcgefpcAMCC2qk7M8uWDmdC667lBVU+Z5My+VPSjDQmuvJpRHYDje3pe3RvvHgzHNl5P4ejbWnkuAnnS1zAawxWrbYGw6667Tjr/KeHYJhJBnSsAtlo8KDZEf2/yi3WEa5nQuc+Lh1XU5aRIjiNVPf0DgIMM+3p4EnEQljf4idY6DuJlMaMA4DmdcysdR4xXeaiIUVoBQBgYGGpabvtlIiCxu/gc0RNicGRu1Z2YXC7/HifyPNWdU3Sb8xApVQ20V2DBAq0a2OZmRAfgtNNOOzGVjN23W0CPWOtSxeRfJkilYpe17qxkh/nip4sIgMiaO+6448nJ/53P8ToFgOI+5NHR0XO8Bm2CWKz7KoD28vVuMDP23nvvL1R9PFHBW/VBERgg+bllM3wagPA3vnIADAykr6p0nBM5zNcUOjexMv4zigAAHVtJREFU9DcAfKov3kPsN6GIczYcGBiY3vy7lbOJTUNyghGRiR/1qvsaEFp51PYdgFQy+r2X17z4gIRhvw23JBpzIrBh+PpWnReT6fNeJZBw/1T/FFo31oh1h2z4xP7+04+ofGR7WJRKLTVEH/Tx9A+U5vPFDd92221V75FmMlkvjZeJ4Fef7Lnaa8wmE5G6t5QWy1xX+SUX7FZve0Cp9kNYaGoGwAj4YIjfJ2/Q9KelsiMjWUd8HZWmAnwWDIITkOCEZDw2K0pdz1Zt2gEQ9KYS1yajXSKhvQDObpU3W4p7hREQR7u7u1tSkcqKnznPsmIWOp4y+QkzndSItWLiHEZHV1d84moHy0QwFo7ePHG/eb2YCIGJ/HBaL5LwGV8LAUuJb2CILvQSsAVO6uvbJzCm7uFeJoJY92R1R8txPqYAAICICl4CVck5WeLzd5mIwKCaKhlmsvkLHOiZBuwJAJyFc/bj/f39i72HV160XQcgFeu5LN7T/bKEhfeISGmr1DZ9UwFIHJxz6Ajoa80+x1P6+3sC5v19xStufSZEIsGUi3icc7s0IgOhFIegT+3vjfV4D+7ZP/Z03U8inb4unsXKf/bZFensN6fzusHcqq/5SqsKUDGZnQj1JWM/8RS0qfaZO3d3LyMyxRzL66o6VJynPawCB/qDl1BVCsOwUHz89/f7bCE1JzLq6JzzRg7KZYP9YghGN67/seewypO26QDE4/FLE9HulwH3ZUOyy8TsbtvW+y4vXCltOzkhlWpuXeoNG+vLPrc9gnNu/cqVQ5N2APr7+xPM3OF9yqHEWYvNY4WbGxLck95Ez2+CgE/y+R4UO12Ry2t5rbPuaa8pgcXBWfum/v7Ucd6CenbMMYlJ61S8vHbNBb72tBNTxVTMi3t738xEgZf6DwCYjdf1PJUYptOL32OP32U2w7W+duXKlUNW3HWNWA/gnAMT9lmYjP0/z6GVBy3vAKRisYXJROxFhvsaxO3inEzv91oELhz9j4ad4KTo3c5nKU8CIoGZMvnJ6OhoQ1fTiggC5oOS8Z7vNbKdWiUTsQfEyfHWeux0EcER/3kgnf96LS8XcRWL1UyXcw5jGzdXLEbUCqlU/D277WrvnOzfODBeyvIQAQSpmI9/89jYRsBblwOBMTtMoeubczLqM16pG7q6nhiZ7MgFFljtO0EQEcE6B+fc65J9yQu8Bld1a1kHoL+/77xEvOdBkFsBG+4pdssCv+nd/wWG6FXJWNdX/Z/l9lKx7hzg2OdgGREDTDdN/e9ybKPXiFvrwMAFC5PRzze4qWlJxqMPwtkT/Y64AGADNpGay5hGgsh9DUqjuCAZ7WpuXfoKFi9MfdOIXEugSZ+UxTo/I3ACGA4er3icob8VT4voiAnhaOGXHkJVjY05yVcRIwAAAXM75uTrDtMx9w1BA6qdltJsQ0ZHv3X2qace5r0BVbNWdADmp5KJB0dHx26Gcyc4W1zgR3XscC/GwCdPWbjwLM/nupW+ePRTDES9/vICEJENKwdzU49iODnOd5uTsdZCBJ/rSyROaXhjFfSecsrfxGM9T8LZE7zXzCWCCIaGhoYmfaKtxspM7j8a8YmICJgolYp1t0UnIJFIXDU6NvZRGxbAsA9PdowV62URHTGDyCyvdJxzzufcC3aZN69i7YF2RsRYtmJF3dn3MgMDy5242xpV7ZSB+S+sXd3UzpbasaZ1AM4///y9k9Gu21OxrvUSjp2AsIDyTU3Gb/+1ffHKF+J1mzZUlcmtFqnYyR8Xcf8aOuctdUZ521MIc/0Oj3OFiolRfAnDEM4V7lqUjP9Ds9rcVm8y+g9u7Ut/YmcPEfG11rtMYIxBNpevOw2ypeBuacAWKlfc5ZBKxqMt6wS8/e1v3z8V6/6dcWMfFGsBYpAJJl0sFyFK1bo2o5yOlgAUBDBz5lQcjg8IMV8TABa05q4VK5q2CLC/f+EHuLSLxfm8/MrnvIQZyg6/zhGvbUQXwBWvd8ekErFpLbpVjdO0DsATf/zD0wDOFFde2e9X8ckJ+yRiPc/5jr0oGfs+wFdYj0+iIgJmBhvG7rsfusN5aGLj7YJXDeccrLPfSMS7v9O0RgEAglhP96/FyTdEnGlIghI2CK37ko9YQRB8m7zWdN2iOOUhqVgs+mijFn9OJRaLffmxRx9+QkSOcU4gEDARTMT9aopz9ZEBCICsvvfee/9a6VDn3Fwfvw4EgCBNffoPw8KW0RJPXx1n3ZOgqvNYVUTMH6KgMSXPnXVwIh9dvHhxf0MaUNPStA4AgXJAed9zg4iAxO0Tj3Y/t2hRamm94XoWLjwoFev+gw0L7/SVeKZsfJhNcMddd930Pzs6VpxrzG/jDlhrwYL3J2M9f4hGTzyp0e0l492fScV6xDBOd9Y2KjsZHPFD2fzIZ33EGxoa+plzUtoN4HFUuvzf1sKIOzIR6xldlEr8k7cGprCot/fv4j1dDwckl7G4OeXRFwLBieCAA1613eK1/t7eU8nDD1+c0+eqFscR0aFevh/FvANTJt9qBGfdYt8dOmIa8xkvk8ndGDq5DWzgf2NgMT/AhvXr/ttzYFWD5nUADC8vXiYbW4FWRMCQfUY3jd7W15e8ptY4vbHodZHRjX8SkSOcNOb5mwgYc4WKRTNMEBzYioJxzjlA3BEdHLm/N97zi9NPP73LdxvxaPSLiWjXSyT4onMO5SQ/jfiWCESy2fzxPmMa4h8XOwA+P6AJP71YsLiOMCz8cyLW81Rvb/KdHhsCAPT2Js6OxXpWhYXNNzDhqG2n9ItpCvDMjTfe+NJ2L3aFBT5WjhMRQFJVhkV/ORgAYxr0qDsFgezqMx4zQyAZnzEBIJcbfp0A63xXDAQAiCDCtH+sp6uttx7vDJrWAUins5fB+4VycqX8AAjHxt4bj3a/lIpHv3PmmYtfWel1/QtTb09Eu++N95xccGLfLcXtK3Dk/20iIoDN3fn8gxXTkPoefZiOYnEPC+fc69etfn4kGete3pvo+XA9MRcmYh9JxroHE7GoMMlnILK7tc5vKtJtsDHo7Oy4yHfcdDZ3MQDbiC5L+f0QAOIEcPZgF4bfT0S7/ieRiH35vNNPrzkZ1ZL+3sXJaM+/J6Pd61wY3sriTt6SeGvrNQ1UTNAz6dP5mN8FqhUD9fcmzvaZBjp07hdeglVJnDt4vP1a101M+K45AZiChvzidEQ6P2SCoCFTttZaGKbzent7/957cFW1Jg8ty71EvKQZc5oEKeajBnYXJ+9f++K696di3Wuc0P1CZJgIDgIRcQbuCOfkgMLoKDEEDthyISzmivd8boADyWGHvvKCocyOd+8kk/FLyc8i67qMvx8ii0RoUSLW/U0nyDDRAAfB2qGh9L9MdhPsXbz42HDj+jcYoiNDJ682YqNOXHEBqITjV3yirS9sHs8cZCKwwNVDA9nvNqABBIH5Shji0747ahPfj/LUmdgQBBwqIpc9/dKLl8WiPY8QcxaQx+fMmffA8uXLf7ltFICQSsU/ysSHucJol3PSNbp5dBciKY7y2C1HbttumSOe4ulcjizn6qzn8yMiiPAdlY4rFMKTfXUUBTKtCnp+2qRDpHQ9qfk9m/gcRQRLcqu3E5xg5eDgDdFoz7sixpzqfRsuig82Lhz9Rv+bPvT95TddNaN3YsxUTe0AhJa+Ggl4CSbs+W+W0hd4dxAtpuIAARjl4c3ir2EjvuSTEWNAgi/86Ec/qpiBTESonerEld8viLAhSgFISWEMqXj0n4Ge7Yq5yIZ1MCg+wRpsGVFoGg7gBMuzubz3p/+yFUO5zyRiPRcC2K9RbUwkAGBDEAhMOArOHQUiFDatR2+8B1sPyccg0gOEFlYK4ztPpvsZBIY7Jz8ZOcTLyh4RdM6JRCod5pyb72vdJRHhW/8+8I2ensZOS27VJjDH5zgoESHgyu9brfL54dPi0e5NBNRd7GlSIsHon3LLAEQbEl/tUFPzAORGRu601j3ZqH2mU9lqxKE0PYDycGeTJ9eFGAJ6JJMbrm7ZrpOeJm4AmBYRgTgHEYGzFs5a2DDc6o8rTaNMHF5uGmKA+cVsLv+aRjc1d07nP7DHuenqyPj7Wp6uspN9BtbCOTv+/k/3cyhlc7tl0jMgOgTwMAFChJUrBytm9CTmXh8LiYsdIUYzb/6pVOokZva6pdc551YODTU0174Q3luuXux7mk6cA4v09CViNaXkVvVpeiIgEwmubnYHYFtCtNWfZjKGkc3mj676BUR7N3MLYLUEtN37WM2fZikuKsOaTCa7dzPaW7Zi8Ccichc3aFvgtrZkztiSQKvi+1/HbdqYyX8w56Sj2J+o7+eutvMkhDletgASwTlbVeEhXyIR2sd3XguiBixQ2kYuN3KjiPs1e/79LV8PxFk4F16yaNGipNcGVEVN7wAMprNfAaT5cwATkMhWf5olCAIYwXum8xqGHN2KHQCVEGS797GaP005NyJY0EuZ3MgejdlPMLl0ftVpjswm3/nUJyPbdAGA7b/X2/2p8dYjIvj+YObGbf/+nHPO2bXD8D7F86kNiwOIMObk6WqOJycn19rWxE9FmOCAP9cYqiZ2bOwcmlDKut41L6XdJxUXEfuQzo2c6SDrfO54KV8PpFQRs7B5ve4KaLKW1AJgMp82xrSi6ZYhJliRb6/M5q+fzuucc5NWYFOTIyII8ZpcfqQl75vAneYE0oxOQLMQEV5FtN0ugCAM9/S48PHF6g6TuheQEAgQQESeqjfWdBTG7CbfMQl4wXfMqXRGOj9NDckNUF6HRfvFY7EbvAdXU2pJB2Agm/9qKPgTEW23aGxWMgw2kbvS2eEPTudlZ5xxxglE1NnEh9gZaasdG2xeyuSGG1o9cUey2ZEBY8yXUS6t2o7DN9NAAMTJk5P923Orn7uw3nUdUmoj4MoV+fqX9J9NRHUveCv3zwj0x3pjTUdgzKnekwAZ4z3z6VSWD2X+XcArGtW5FefALH/Xl9Sqgc3SsmqAoZULyZjmLwxrsuJcND08mM5Ou2LaunWr9ytegWf3e1QvIoIxBo6DB/4lk2v5iEk6m/+sCcxPDRvM+JGA4p1y0qdzEhqt95tJpTasuN9WOnbDxg2hzweGIDAvewtWBSfO+Tx/IoIrhA94C1iFoWyuH6BCQ/IDAZAwRCHc3OTy7juvlnUARkZG7hLnftL8ldPNIaBixjLmhzOZ4WNqicFCR5A0an/87EFsIET3ZbO5kxe3yQ13cDDzJoByxDN/qouZJ83Pb4Ez649eWr9A9JdKR0bInFXPVt3xzooImA3AHc2dcyZ0+Xjg2TJ3DgQRrriV2LdIhD9E3Jgd5ASAQXMT8Z4HG9KA2kpL777p3MhbBFjTHpdsv8gYCPHD6WxtN38AEBtGxXMSotminH3fRCKAiXxxKJNf3Opz2tZQLh8XptxM7uRSMWHWpBdjJ1vm42vd4SHlNkykYmlmsW4+UPsM9HjlwWI5aHR2clN/uXxd58YXc7LBQDp/raewVVs5lL/GgR5ozPRtcWs2i5yQSMQua0ADaoKWX5lMx9jh3Nx03A1HJoB18p1MNl/zzR8AnN78p0TMEKJnbcDxdDrtpxZqA2Qy+TgFkTuZeYZO5Qg6OjqmOvFjvDzRAth1zpyK1yIhOb58TvUQAE7c2nvvXbmqrkDT0N+XOMN3TALw8Y9f3LRS4RNlsrmTpSGjWzSebMzZwpf7+hJaNbCBWt4BGBj47UuG+MNmBj8llQkRYAKwMf+Vzw9/oP6I5OXLXy49PBsQEYIgAMjclsmv2j+zMpNr9TlVMjiUOd0K/iXo6Cjn1Z8xiBgOwaRzsiJS93oLAuCsXX3PPfdUrMpHwF4++lClomQNy543mXCscICvWMVRE8Ba99SVV17pfWdBtdjwP1IQ8TpFWY4lIjAg2LHCdttPlT9tcVdYkc7+JxFdNJO3BhZvsLQmiHSeNziU+ZCPmAI/mQpNcbHlf8z0ThYzQwTPmyA4byibe12rz2c6svmRy2D4NURUMG2yTqFau3V0bPeUuWTJkhR7yAwjAMhwVTdjJ9jD2x50YLmXQNW2Z4KTfC14Lr/pxNThJWCNhoayXxVxw/B6XSmuAgBK1z/C38Tj8aYWbNqZtM0dYSA7fLUD/b0xpu0XTm+dfgWgIAJHdFs2P7LHwMCAty9rJNJxmKC+RYBEgBUZTedXfSS0wWIwbyAuL+5uZpqc2hCKuesdBygIvpYZXrXv8oH0jLwgDAxklg/lRjqEgxVkDHwmVfGpPEZBRHDi/nrbPfc8se0xo6Mb9xOZcDOq8eZWbAM7rohVEmFaAACuxssWjW8XBYSaWwfFOXuQr1hS+s1lpqrKJzfSQQcfdrqAPCZ2c6U/AARw1oLFvn5hKvERf22osrbpAABAOpu/KhJEPkDEMyI/ABEDxBsE8oZMdtj7E+l4wZYa34ry/YWApwAgO5K9L5Mb2UUQXC9EAJOPMi7ejXewiAATAQWRn+dyecrnRz7Z6nPzIZ3N9Xd0dH7WibxUzrHejoppayf/8ongEGBCUbo6vkcEjFU65owzznj1eNKh+gsPIMJmuN4o0yHAfj47e0QEZ23F963RbrrpptVE+EyjRm8JBHEWhbBw+ee+9a3dGtLITqytOgAAcN9g+jvBnPmHO+I/YPwpqd1QcesZ87WZ/MgumUz+575bWLSo70N1J1kpLxZms2Hi32dy+ffsf8AhxzhghYkEbfEeT/xZqVgwCWTMzzrmzDt+KJ19QwtPrSGWrxz8Unb4/j0FfKNjU9wy2mLl74GgmKCLgwjIBL+c7FhrrbfqbYEJhiods37dmrf4XETprG1aAh0AEJFX+V4D2tnZeZffiLXJZvP/GoLub+TQLYl03PnDH9zesAZ2Uq2/6kxixYoV/5PNDR9pgo4rpE1GA4ioOM/PBhIEPxnKjVA6m39vo9orFApeVvcSEcTa7RbK/fznP384m1vVz4E5kQhpZgYzN31KoPzZGmNgjAGIXjBB5NrM8P00lMm/cfny5Q81+ZSaKp3NvS2XGyYBX8/GtOQzKCsvFiVmkIms3H3PvY9Jp7MXTnYsEXbx8URLxYZfqnSctZb93GAEzIQD9z+gqdNIrhHJoa1d7ztkrbLZfBeIS5MTtdedmEoxVbD0LkxG/81r4J1cW3YAygYHhy7Ze9/5+xDTnczbdwQm+4XatkhKNX+mMr7XnBkC2UREPzro0jxlMvm3eP1BJ+GcPX7CD1UzAcAmmLKW98qV2d8M5ValOoPOI4j5BgG9zOxv5GWqOBPTQAuxtc7dZsPwbZn8qn1WprMN61i1q0wu/57BTJ4g+Edi/nNgDJh3nCp72p/QZI+gxUyVCCIRGGOeNCb4Ujo3QkOZ7KLbb7/94SljOUmVP0MmQnnajqf5h0yAAw/Y946Kpw46i6iYXIuIp90Ol17LHIBNgB/fcsuT0337arVwyZKuSKRjj1ren0n/MAPEuO/UM37UrJ+hGiLyfziIgEojWl5+1gl/AMA594ne3liixT/qrNH6R+sqvelNbzrg6f998gpxci4gHSJbVshPvKzVsmBufNFT+f8zwxFDRMQQDYu4K9O5kf+u80eYlng8ejdZ+9pyl6a2hYACYwxsZO5rMgMDVa967u1NvMuNjZ1OxGcKZPdiqNK7PMl7vuNTkHJpXgDFmw2Y4Kz9i2EzHATBD1YMZrQK2DbOOmvJAWtf2vCZQiE8nSCHMBGVp0mKT0NF1X4OxY9gy3MZM8NZu1mMeSgSRJatHExPa33F60577bkmEqwvjIXHiEhNDxIiQvMW7H/LzTffuN0iw22dddZZxxUKm18N0HwiGArt7kRU9deQSDikyGORSOQ5Y+atvfXWmx6t5ZxrteS00xbNIbeHdfaVLFRzgg8iYQnmPFQoFObefffdt/g8Rx/OfP3rjxfn5qCw+UCx4WH1/KyTEZHIaIDbl92x7Hc+4+6sZkwHYJwI4onE60XsuxhYwkwLxMn4ljmaRr3tLU+gBAKBmOCcPCPO/Qpmzp0HXzL445ve3Jq3KB7rfohEjoXU3gEgAGwYCCJLBwczv6rlPJL9yaMw5s6TsHA0QD1s+GiAMLEDNmX7pSfYMLTPENE6iL0HJngoCDpzAwMDI7Wcz87oiis+PvcXNw2+yQFLrHVxEdnVBOYAcQInU38zyln2StNAmwX4H8D9tiPoeB7kblgxlE838+dQSrWXmdcBmEQqFf+otbabBHsRJAZQpxMLgFxggt2ltF/JWSsA1hGBADbiXJaZCmL4YaLIb4aGhq5r9c9SFo/1bCLn5tQ3AgAAGM0M3z/lFECtlongst7kxQAKADAxR3vAARnmTcsHBr7ru121tYWp1EesC2E4QMFtvRsrCILIwMDQFS06NaVUm5sVHYAdOf3002ObN69n55iPOOKIP1x33XUVy462moggHusuMBDUMwIAAMw8NpQb6fR8ikoppWa4Wd8BmIl64/FTBfZOZ23lg3egmHaWRjL5kR5Pp6aUUmqWaOtdADurIMJ7+9rzTEzrvARSSik1q2gHoA3ZQniKx6QnTa8XrpRSqv21bx7SnZgV8ZbiMwh4VifSUUopVRvtALQhgSzxMQJAROiIdD7t4ZSUUkrNMjoF0IZIxHnJxMeMe+5beUP9gZRSSs022gFoQ0R0lI/a4dbWuY1AKaXUrKVTAG3Ix9M/EQEiFVOsKqWU2jnpCECb6e9f+G4vOwBEQMQ6AqCUUmpSOgLQZgqjo3t46QAQASSD9QdSSik1G+kIQJshcUf6ygBgiCOeQimllJpltAPQZpxzR/iIQ0QQop/6iKWUUmr20Q5A+1ngIwgBYOe3FrdSSqnZQzsA7Yb4OB9bAJ2IrLjuurs8nJFSSqlZSDsAbUacrfkzkQnbBx2ZkI491ltKYaWUUrOLdgDayMJk9LXGmM564xARRNwffZyTUkqp2Um3AbYRZ+0GgYcUwAAAetZTIKWUUrOQjgC0EUfBu3zFYkN/9RVLKaXU7KMdgDbiYK1I7WMAE1/JbFb5OSullFKzkXYA2giBXwMA9ewCEBCICMz60SqllJqa3iXaiIgjEQFx7esAiIqLAAcGhv7N46kppZSaZbQD0FboGCIANQwAUOkPABh9+ldKKVWB7gJoI0T0LAlvAAmolpUARCCArRPdAaCUUkoppZRSSimllFJKKaWUUkoppZRSSimllFJKKaWUUkoppZRSSimllFJKKaWUUkoppZRSSimllFJKKaWUUkoppZRSSimllFJKKaWUUkoppZRSSimllFJKKaWUUkoppZRSSimllFJKKaWUUkoppZRSSimllFJKKaWUUkoppZRSSimllFJKKaWUUkoppZRSSimllFJKKaWUUkoppZRSSimllFJKKaWUUkoppZRSSimllFJKKaWUUkoppZRSSimllFJKKaWUUkoppZRSSimllFJKKaWUUkoppZRSSimllFJKKaWUUkoppZRSSimllFJKKaWUUkoppZRSSimllFJKKaWUUkoppZRSSimllFJKKaWUUkoppZRSSimllFJKKaWUUkoppZRSSimllFJKKaWUUkoppZRSSimllFJKKaWUUkoppZRSSimllFJKKaWUUkoppZRSSimllFJKKaWUUkoppZRSSimllFJKKaWUUkoppZRSSimllFJKKaWUUkoppZRSSimllFJKKaWUUkoppZRSSimllFJKKaWUUkoppZRSSimllFJKKaWUUkoppZRSSimllFJKKaWUUkoppZRSSimllFJKKaWUUkoppZRSSimllFJKKaWUUkoppZRSSimllFJKKaWUUkoppZRSSimllFJKKaWUUkoppZRSSimllFJKKaWUUkoppZRSSimllFJKKaWUUkoppZRSSimllFJKKaWUUkoppZRSSimllFJKKaWUUkoppZRSSimllFJKKaWUUkoppZRSSimllFJKKaWUUkoppZRSSimllFJKKaWUUkoppZRSSimllFJKKaWUUkoppZRSSimllFJKKaWUUkoppZRSSimllFJKKaWUUkoppZRSSimllFJKKaWUUkoppZRSSimllFJKKaWUUqom/x8IwlcOHlgR+QAAAABJRU5ErkJggg==;" vertex="1" parent="1">
          <mxGeometry x="460" y="190" width="142" height="142" as="geometry" />
        </mxCell>
        <mxCell id="ztNJ0AJeoRaNc8H2oBHc-10" value="" style="shape=image;verticalLabelPosition=bottom;labelBackgroundColor=default;verticalAlign=top;aspect=fixed;imageAspect=0;image=data:image/png,iVBORw0KGgoAAAANSUhEUgAAAoAAAALQCAMAAAA3nTHmAAAAM1BMVEUAAADjJCjjJCjjJCjjJCjjJCjjJCjjJCjjJCjjJCjjJCjjJCjjJCjjJCjjJCjjJCjjJCgbmCs5AAAAEXRSTlMAQHCAr7//EGDP31CPMCDvn4uhNsoAAA00SURBVHgB7N0HorI6EAbQCYGJIMX9b/b13ou/QTlnDV9Iplxv8OcAAAAAAAAAAAAAAAAAAAAAAAAAAAAAAAAAAAAAAAAAAAAAAAAAAAAAAAAAAAAAAAAAAAAAAAAAAAAAAAAAAEoZah2naUr+xPSNWodSWvA85Val7t+ap3or8T9R6rjkf8Yy1v/4NaTd1zmfgHm9t/hX2IY5n4i5bvEPsa1LPh3LusXfYq9LfiEsdY+/wn3ML4rpFn+Cdlvyi2MZWvB7rR7JSxy1BeIngufx6suX4xb8aJuSl5tL8K22Jl2sLYiyJJ0sRf5q0tEa19bmpKt5jwvbjqSzo8Rl3ZITuMVFrckpPOKSHvkNJFD+eMgfEih/EnjJ+gMJ1H9hiMsoyQnd4yL2IzmhY4trmJNTmpsChA8uRDwA8QxsS3JaR3MB09PoAqarogKmp8UIhK5qfLB2JOqQfmpyeqsPIF3tPoCYh/gAegV+miFRCHe0JG/hiI90T/ypekdj8iam+EB7ohOjBOH1zWhrCFhJ2JI3spmC4A52A7uD1cB0sdlEpadBFxq96Oc5kveiCUNXxRiEnqonID1NVgGxFPgkLXk7ux/koKe7QTA9VTUIqpDnmBL7CB0lb8gqDF1timB6Knax6KnqwiCA/jXmZU26MHQhgGgEWodGH5ouBBALWQYhFIMQXkkAEUABRACxlC+AVAFEAG1jCaBtLP4HX8DpG0fyRo7pG7f4LFsZ6jQnJ7ZMdShbfLQyjEdyOsdYS1zFNszJicx1i4vZhyU5haXucUnlkXQ3lriuXQQ7e+xxbfuYdDPtQVmSLpZ7fIO2Jh2sLb5HOfLFOO7xE/Y5X4p5i1+gTflCzC1+hB+QkT8JlD/mRP46al+zd58LDrpKGIcHkaFIu/+bPb2fTTaamSHm/z7ft8EvcVUkKNDEiPQH0d3hvZ8hTO+9c/SbNlgfNPqNc/+et8N1up/o/J5/Wu3oVj89Atvz9vxe+H/l3btIt+Fq5sf2FBd+og0EeiimffBDuTq6gTYH/2LMTg/EwapgdHqgvzJzH95gTOXNVRgbqwL/5sK4skX6VNGP9++EF1YEJb69HmT4SB/JDz6jOPvzEEj0k1b4jOG/Y1XfhrdAa0XoRV/cVyzpm3gLNJbE7oHukT5Iy8xiBQ5WAiNK9cdcGn2MdLmZSv+vshKYotcd0jdsPnRgT/O1N+EOgZ4Xm9LXRTOrgCJ95X/evj/mYHYxGqr4vc95+/6YDxyD1x2BHfPNC/Qax4XCCmBojHS9/+67CefBq86BD4XpU6awgjSLZg0nUgksoN1+DX3T/ycQ9Ma5RFqlah0aBssDrfnbaRGndnkqsDgIaid7B61R1I4NnsVB1TkCmx+EFSrZcBZiwOtd8Pe0QB8sZTf4cC9wiltR9HvvpDFwGrwiwMxiJunTbCTS/2BxQJqD3O+9lZDTvw4Dqv/nzFu/AXJSvw4DRTVA7mTLsySvHiAE3SmcZGsgQAS4cMutxKJ2bFZ59wA5kaVdfXCEQVCew0yGOt8tQJja/+Z0srPdLkDw2gFuZCcjQAS48BgcGQEiwIXH4IQAEeDKY/BEgAhw5crogQAR4A/ISOMfIEAE6MjGph+gY2Gw6QfoycZEgDfk9APcVz6MhAAR4CATkfUDJBYGXT9A7mTBIcA7IoMAD7KwWQQYWBQUiyH2ZGFaBLgz3O81vpOFYDE6nkVBtZjHTBaGRYAHq8PebPLIAlsE2FkUNJMAO+lzJgHSYElAJgG67wlwZ0EQbAJMpM/bDM/GgsDbBOi/J8DGgqDZBFhJ37QJkAqLgUE2AQbSZ/V7VxYD8/REIsDGYuAwmshM+opugAo/CAoZBcikj60C3FgIeAR4IcDIQqAjwOeC5vk2TDILMH5TgJ1FQLML0JG2ZhcgTRYAk74pQGcYYB/8PugI8DdB77YfVEKAvwlqFx2hRAR4PUDHIJEEAnwuaK29gUoI8HyAUsME+c2RRYAx82Uw4psBIkBqgy+C0QgBng8QBar1hwCfBIgCFfpDgAIBUsssDP0hwBMBUgx8EuRICPBVQfpZPKhECFAwQHKF4WXFEQKUDZCiZ3iRj4QApQMk6pPhBbMTIcCzASJBIbMRIUClAIm6LwwPjdqJEKDuA/XHHAw/GPOQ2mEAAT531Mz/BXI9ZLe4QIDPxcOHwsDMI/gjKu2xggCfc4f3IQT+QwoheH+4hZv8IEAgQoAIEAEiQECACBABIkBAgAgQASJAQIAIEAEiQECACBABIkBAgAgQASJAQIAIEAEiwJtCgAgQASJABz9AgPoBum2Gwg/ACNO7qBMgAmw18wsg1yYdIALstfDLoNSOAE8I4jsiwO4Q4MuCQn6wd4kAEeA2+BIYGwJ8O8C482UQIgJ8RVD6mBDIDQG+E2Ar/BYYDQH+Lqi9/8HolwNEgAL9QY4XA0SAldfBR/YjQMci4LgUIAIsLAJGvBAgAvQsBPz5ABFgHCwERjwdIALcWAz40wEiwMJioJwNEAE2FgTHyQARYGVBME8GiAALC4JxLkAE2FgUtFMBIsDEomA7FSACnCwKdgT4RNAeHSgI8FSALAzOBIgAOwuDdiJABOhYGDgEiABX2k4EiAA9CwOvECACBASIABEgAgQEiAARIAIEBIgAESACvC8EiAARIAI8GBAgbsX9Ue8FI8DG3wQBYj0gxDMBIsDComDQmQAR4M6w8KkHBOhZFHgE+ETQ/jFwnAoQAdJgSRDPBYgAdxYEO50LEAEmFgTpZIAIkAbLgXg2QARYWQxMOhsgAuwsBvrpABEgTRYCk84HiAD7YBnQLwSIAMmzCPCEAJ8LpDdEkE+MLgKUPgjDaBcDRIDU+G1w0NUAESAlfhMk+q4Ao2mAlAarQH93DZBsA6RW+DIYjRDgewFS3PkiCJGMA4zfFyDRUfgCGInIOkD6xgAp+sEnwfCRZAJEgEQxZT4ByhaJzgWIAJ9rFQ2+KNdGRN8aYNYM8Ll4+DD4CRihHp2IvjjAoBLgCc4l/wNIzq2eyPKtAQImEgEiQAQImEiPAB9BgDsCXAkBegT47RBgQoArIUCHAB9BgAcCXAkBOtLXEeBKCJAQ4CMIMCLAlRAgWcgI8GcIcJCFgABXwjzuCHAlBOgR4M8QYCUL29IAu0ve7wH+z+59cn1pgJ4suGUBvrAiH0I94qoAD7LQlgQY084vgj3FJQE6MrEgwD4HnwGzLQgwkolhHWCffBqEZh4g2Qi2AcbKl0CN1tNoY5r+5q3wRVCaaYA72fCWASZ+AyTLAD3ZcIYBbvwWmIYBJrLRFQLU6g+mXYCOjJgFmPhtkMwCJCvBKMDGAsAZzWImK9MmwFhYAIxoE+BOVjabACuLgGkToCcrziTAxkLAmQToyIxJgIHhVuMbyUw2GCDHYsAZBFjIzjQIcLIY2A0C3MlO0g8wsiDo+gFuZKcrBKjZOGz6ATYyNNQD3FkQZP0AydKuHiCLgqgdYCBLm/Yv71gUHNoBbmSpawfoWRRU7QAbmSrKAQaGWw3xIFtTeXQKywLlACfZOpQDZGEQdQNMZEw3QMfCwOkGGMnYjgDv5VANMJC1pPrrJxYGXjXAjaxF1QA93woC7GRuR4AI8J8y2UsIEAH+U6IFBgJEgP8QaYGJABHg301aoSFABPh3jpbICBAB/lWhNRICvHOAlaVstMhQWyu0sTYE6BV2XjDm1QbHsTBI+rNnLg6WsakHCE5tQVOnZbzW4EQWBk3rRT5pnTiUBodYGKjdze+0kGcR2BhGXdY6h/S0UixKi8kqi4Kp9CIfkZZKLKCqb4wAm9Lha/uGD/081J/7hKaz/1im1ZrSWorMoL132lDp2prX2dersiCoOuuZKn2ArLKasbMgaCrP1uZIH6CPT9/EHQr9qGhkbS+pvI0nBu0l817lu9qrKlfSCwuBonIna9LH2DWupCcWAknjDDLT54hZ40p6YBGQNe5k5UhfUeCh/tAJNHrI3ao/hQKn+j6s4OmJeqP+FArMUfvJT9jpKY15WyLufFqJ2he5IUf5d44Q6RPV0/01pSM7POhPZowrfahjiL+Px8nwhj0SCRc4DrKncRieUXuxA3j5Y1fo9MlcEX8dtcxwSXH0oqPwa8pBny4VfkGN9LptMJw2PL0u+iH1LW+Q4KidTom+MJzMLxKRaIIlRboJNwc/lFOk846dXwZ7ovNi2p8EPR3diquZ/1+ZKdJF8aiZ4Vd5HtfHOM3C/y/Xg+7IbT6EwX81QqjeRZlvWfgHUELw2/tjHP9j2jiEujn6c3twQAAAAIIA6P/rbqQCAAAAAAAAAAAAAAAAAAAAAAAAAAAAAAAAAAAAAAAAAAAAAAAAAAAAAAAAAAAAAAAAAAAAAAAAAAAAAAAAAAAAAAAAAAAAAAAAAAAAAAAAAAAAAAAAAAAAAAAAAAAAAAAAAAAAAAAAAAAAAAAAAAAAAAAAAAAAAAAAAAAAAAAAAAAAAAAAAAAAAAAAAAAAAAAAAAAAAAAAAAAAAAAAAAAAAAAAAACQ7wBL+CC545TzIAAAAABJRU5ErkJggg==;" vertex="1" parent="1">
          <mxGeometry x="220" y="212" width="106.66" height="120" as="geometry" />
        </mxCell>
        <mxCell id="ztNJ0AJeoRaNc8H2oBHc-11" value="&lt;b&gt;CoachDB&lt;/b&gt;" style="text;html=1;align=center;verticalAlign=middle;whiteSpace=wrap;rounded=0;" vertex="1" parent="1">
          <mxGeometry x="243.33" y="290" width="60" height="30" as="geometry" />
        </mxCell>
        <mxCell id="ztNJ0AJeoRaNc8H2oBHc-12" value="" style="shape=flexArrow;endArrow=classic;html=1;rounded=0;entryX=0.25;entryY=0;entryDx=0;entryDy=0;" edge="1" parent="1">
          <mxGeometry width="50" height="50" relative="1" as="geometry">
            <mxPoint x="443.33" y="260.40999999999997" as="sourcePoint" />
            <mxPoint x="349.99499999999995" y="260.40999999999997" as="targetPoint" />
          </mxGeometry>
        </mxCell>
      </root>
    </mxGraphModel>
  </diagram>
</mxfile>
